<svg width="31" height="36" viewBox="0 0 31 36" fill="none" xmlns="http://www.w3.org/2000/svg">
<path d="M11 28H7.5625C5.59499 28 4 26.4554 4 24.55V6.5M5.5 5H12.4335C12.808 5 13.1726 5.08562 13.5 5.24495M23 18.5V16.2245C23 15.922 22.9385 15.6252 22.8216 15.35M13.5 5.24495C13.7656 5.37423 14.0067 5.55202 14.2086 5.77196L22.4001 14.6964C22.579 14.8914 22.7209 15.1127 22.8216 15.35M13.5 5.24495V11.9C13.5 13.8054 15.095 15.35 17.0625 15.35H22.8216" stroke="#66AAEA" stroke-width="3"/>
<path d="M26.406 23.4358C26.4108 23.2042 26.3524 22.9757 26.2371 22.7749C26.1158 22.5778 25.9441 22.4166 25.7398 22.3079C23.9003 21.2922 22.0599 20.277 20.2185 19.2623C19.9966 19.1286 19.7419 19.059 19.4828 19.0613C19.2237 19.0635 18.9703 19.1375 18.7507 19.275C18.0186 19.6889 14.3546 21.7002 13.2624 22.3063C13.0546 22.4109 12.8812 22.5728 12.7627 22.7729C12.6441 22.973 12.5854 23.2028 12.5935 23.4352V29.5653C12.5881 29.7917 12.6432 30.0154 12.7529 30.2135C12.8748 30.4163 13.0501 30.5817 13.2597 30.6916C14.3519 31.2977 18.0165 33.309 18.7486 33.7229C18.9681 33.8606 19.2214 33.9347 19.4805 33.9372C19.7396 33.9396 19.9944 33.8702 20.2164 33.7367C22.0545 32.7199 23.8937 31.7047 25.734 30.691C25.9436 30.581 26.119 30.4156 26.2413 30.2129C26.3511 30.0149 26.4061 29.7912 26.4007 29.5648V23.4358" fill="#659AD2"/>
<path d="M26.1667 30.3096C26.1946 30.2789 26.2206 30.2466 26.2447 30.2129C26.3545 30.0149 26.4095 29.7911 26.4041 29.5648V23.4358C26.4089 23.2042 26.3505 22.9757 26.2352 22.7749C26.2161 22.7435 26.1879 22.7191 26.1661 22.6899L19.5 26.5L26.1667 30.3096Z" fill="#00599C"/>
<path d="M26.1663 30.3096L19.4997 26.5L12.833 30.3096C12.9453 30.4682 13.0923 30.599 13.2628 30.6921C14.355 31.2983 18.0196 33.3096 18.7517 33.7234C18.9712 33.8611 19.2245 33.9352 19.4836 33.9377C19.7427 33.9401 19.9974 33.8707 20.2195 33.7372C22.0576 32.7204 23.8968 31.7052 25.7371 30.6916C25.9074 30.5986 26.0542 30.4679 26.1663 30.3096Z" fill="#004482"/>
<path d="M21.4127 27.5731C21.1761 27.994 20.8069 28.3248 20.3627 28.5141C19.9186 28.7034 19.4243 28.7405 18.9568 28.6198C18.4893 28.499 18.0749 28.2271 17.778 27.8463C17.4811 27.4656 17.3184 26.9973 17.3152 26.5145C17.312 26.0317 17.4685 25.5614 17.7604 25.1768C18.0522 24.7921 18.463 24.5147 18.9289 24.3878C19.3947 24.2609 19.8894 24.2915 20.3361 24.4749C20.7827 24.6583 21.1562 24.9842 21.3984 25.4019L23.3188 24.3006C22.8314 23.4641 22.0824 22.811 21.1872 22.442C20.2921 22.073 19.3004 22.0085 18.365 22.2585C17.4296 22.5086 16.6024 23.0592 16.0108 23.8257C15.4191 24.5921 15.0959 25.5318 15.0908 26.5C15.0895 27.2678 15.2911 28.0223 15.6752 28.6871C16.0638 29.3588 16.6224 29.9163 17.2948 30.3036C17.9672 30.6908 18.7298 30.8942 19.5057 30.8933C20.2817 30.8924 21.0437 30.6872 21.7152 30.2983C22.3867 29.9095 22.944 29.3507 23.331 28.6781L21.4127 27.5731Z" fill="white"/>
<path d="M23.7907 26.2545H23.2988V25.7653H22.8074V26.2545H22.3154V26.7449H22.8074V27.2336H23.2988V26.7449H23.7907V26.2545ZM25.6357 26.2545H25.1438V25.7653H24.6519V26.2545H24.1599V26.7449H24.6519V27.2336H25.1438V26.7449H25.6357V26.2545Z" fill="white"/>
</svg>
