<svg width="31" height="36" viewBox="0 0 31 36" fill="none" xmlns="http://www.w3.org/2000/svg">
<path d="M11 28H7.5625C5.59499 28 4 26.4554 4 24.55V6.5M5.5 5H12.4335C12.808 5 13.1726 5.08562 13.5 5.24495M23 18.5V16.2245C23 15.922 22.9385 15.6252 22.8216 15.35M13.5 5.24495C13.7656 5.37423 14.0067 5.55202 14.2086 5.77196L22.4001 14.6964C22.579 14.8914 22.7209 15.1127 22.8216 15.35M13.5 5.24495V11.9C13.5 13.8054 15.095 15.35 17.0625 15.35H22.8216" stroke="#EA6676" stroke-width="3"/>
<path d="M20.208 24.375H24.1038L20.208 20.4792V24.375ZM15.2497 19.4167H20.9163L25.1663 23.6667V32.1667C25.1663 32.5424 25.0171 32.9027 24.7514 33.1684C24.4857 33.4341 24.1254 33.5834 23.7497 33.5834H15.2497C14.874 33.5834 14.5136 33.4341 14.2479 33.1684C13.9823 32.9027 13.833 32.5424 13.833 32.1667V20.8334C13.833 20.4576 13.9823 20.0973 14.2479 19.8316C14.5136 19.5659 14.874 19.4167 15.2497 19.4167ZM18.7418 26.8117C19.0322 27.4492 19.4005 27.9734 19.8255 28.3346L20.1159 28.5613C19.4997 28.6746 18.6497 28.8729 17.7501 29.22L17.6722 29.2484L18.0263 28.5117C18.3451 27.8954 18.5788 27.3359 18.7418 26.8117ZM23.3318 29.5104C23.4593 29.3829 23.523 29.22 23.5301 29.0429C23.5513 28.9013 23.5159 28.7667 23.4451 28.6534C23.2397 28.3204 22.7084 28.1646 21.8301 28.1646L20.9163 28.2142L20.3001 27.8034C19.8538 27.435 19.4501 26.7904 19.1668 25.99L19.1951 25.8909C19.4288 24.9488 19.6484 23.8084 19.1809 23.3409C19.1237 23.2853 19.0561 23.2417 18.9819 23.2125C18.9078 23.1833 18.8285 23.1692 18.7488 23.1709H18.5788C18.3168 23.1709 18.083 23.4471 18.0193 23.7163C17.7572 24.6584 17.913 25.1754 18.1751 26.0325V26.0396C17.998 26.6629 17.7713 27.3854 17.4101 28.115L16.7301 29.39L16.0997 29.7371C15.2497 30.2684 14.8459 30.8634 14.768 31.2388C14.7397 31.3734 14.7538 31.4938 14.8034 31.6213L14.8247 31.6567L15.1647 31.8763L15.4763 31.9542C16.0501 31.9542 16.7018 31.2813 17.5801 29.7796L17.7076 29.73C18.4372 29.4963 19.3438 29.3334 20.5622 29.1988C21.2918 29.56 22.1488 29.7229 22.6872 29.7229C22.9988 29.7229 23.2113 29.645 23.3318 29.5104ZM23.0413 29.0075L23.1051 29.0854C23.098 29.1563 23.0768 29.1634 23.0413 29.1775H23.013L22.8784 29.1917C22.5526 29.1917 22.0497 29.0571 21.5326 28.8304C21.5963 28.7596 21.6247 28.7596 21.6955 28.7596C22.6872 28.7596 22.9705 28.9367 23.0413 29.0075ZM16.5459 30.0417C16.0855 30.8846 15.6676 31.3521 15.3488 31.4584C15.3843 31.1892 15.703 30.7217 16.2059 30.2613L16.5459 30.0417ZM18.6851 25.1471C18.5222 24.5096 18.5151 23.9925 18.6355 23.695L18.6851 23.61L18.7913 23.6454C18.9118 23.8154 18.9259 24.0421 18.8551 24.4246L18.8338 24.5379L18.7205 25.1188L18.6851 25.1471Z" fill="#EF5350"/>
</svg>
