<svg width="31" height="36" viewBox="0 0 31 36" fill="none" xmlns="http://www.w3.org/2000/svg">
<path d="M11 28H7.5625C5.59499 28 4 26.4554 4 24.55V6.5M5.5 5H12.4335C12.808 5 13.1726 5.08562 13.5 5.24495M23 18.5V16.2245C23 15.922 22.9385 15.6252 22.8216 15.35M13.5 5.24495C13.7656 5.37423 14.0067 5.55202 14.2086 5.77196L22.4001 14.6964C22.579 14.8914 22.7209 15.1127 22.8216 15.35M13.5 5.24495V11.9C13.5 13.8054 15.095 15.35 17.0625 15.35H22.8216" stroke="#00ACC1" stroke-width="3"/>
<g clip-path="url(#clip0_25_1146)">
<path d="M13 25H15V26H13V25ZM12 27H15V28H12V27ZM14 29H15V30H14V29ZM22.477 26.5H19V28H20.6195C20.4265 28.2956 20.1655 28.5406 19.8583 28.7146C19.5511 28.8886 19.2068 28.9864 18.854 29C18.662 29.0072 18.4708 28.9725 18.2935 28.8984C18.1163 28.8244 17.9573 28.7126 17.8275 28.571C17.6969 28.4143 17.6013 28.2316 17.5472 28.035C17.493 27.8383 17.4815 27.6324 17.5135 27.431C17.5889 26.9113 17.8431 26.4342 18.2323 26.0818C18.6215 25.7294 19.1215 25.5236 19.646 25.5C19.9625 25.4929 20.2717 25.5962 20.5205 25.792L22.0015 25.1995C21.738 24.821 21.3851 24.5135 20.9742 24.3043C20.5633 24.095 20.107 23.9905 19.646 24C18.7553 24.0252 17.9024 24.3657 17.2393 24.9609C16.5761 25.556 16.1456 26.3672 16.0245 27.25C15.9595 27.6558 15.9845 28.071 16.0976 28.4661C16.2108 28.8613 16.4093 29.2267 16.6792 29.5367C16.949 29.8467 17.2837 30.0937 17.6595 30.2601C18.0353 30.4266 18.4431 30.5084 18.854 30.5C19.7447 30.4747 20.5976 30.1342 21.2607 29.5391C21.9239 28.944 22.3544 28.1328 22.4755 27.25C22.5054 27.0009 22.5059 26.7492 22.477 26.5Z" fill="#00ACC1"/>
<path d="M25.146 24C24.2553 24.0252 23.4025 24.3657 22.7393 24.9609C22.0761 25.556 21.6456 26.3672 21.5245 27.25C21.4596 27.6558 21.4845 28.071 21.5977 28.4661C21.7108 28.8613 21.9093 29.2267 22.1792 29.5367C22.4491 29.8467 22.7837 30.0937 23.1595 30.2601C23.5353 30.4266 23.9431 30.5084 24.354 30.5C25.2447 30.4747 26.0976 30.1342 26.7608 29.5391C27.4239 28.944 27.8544 28.1328 27.9755 27.25C28.0405 26.8441 28.0155 26.429 27.9024 26.0338C27.7893 25.6387 27.5908 25.2732 27.3209 24.9632C27.051 24.6532 26.7163 24.4063 26.3405 24.2399C25.9647 24.0734 25.557 23.9915 25.146 24ZM26.4865 27.0685C26.4112 27.5882 26.1571 28.0654 25.7679 28.418C25.3786 28.7705 24.8787 28.9763 24.354 29C24.1621 29.0072 23.9708 28.9725 23.7936 28.8984C23.6163 28.8244 23.4573 28.7126 23.3275 28.571C23.1969 28.4143 23.1013 28.2316 23.0472 28.035C22.993 27.8383 22.9816 27.6324 23.0135 27.431C23.0889 26.9113 23.3431 26.4342 23.7324 26.0818C24.1216 25.7294 24.6215 25.5236 25.146 25.5C25.338 25.4928 25.5292 25.5275 25.7065 25.6015C25.8837 25.6756 26.0428 25.7873 26.1725 25.929C26.3031 26.0856 26.3987 26.2684 26.4529 26.465C26.507 26.6616 26.5185 26.8676 26.4865 27.069V27.0685Z" fill="#00ACC1"/>
</g>
<defs>
<clipPath id="clip0_25_1146">
<rect width="16" height="16" fill="white" transform="translate(12 19)"/>
</clipPath>
</defs>
</svg>
