<svg width="31" height="36" viewBox="0 0 31 36" fill="none" xmlns="http://www.w3.org/2000/svg">
<path d="M11 28H7.5625C5.59499 28 4 26.4554 4 24.55V6.5M5.5 5H12.4335C12.808 5 13.1726 5.08562 13.5 5.24495M23 18.5V16.2245C23 15.922 22.9385 15.6252 22.8216 15.35M13.5 5.24495C13.7656 5.37423 14.0067 5.55202 14.2086 5.77196L22.4001 14.6964C22.579 14.8914 22.7209 15.1127 22.8216 15.35M13.5 5.24495V11.9C13.5 13.8054 15.095 15.35 17.0625 15.35H22.8216" stroke="#8AADF4" stroke-width="3"/>
<path d="M15.9999 21.5C15.2599 21.5 14.4999 22.26 14.4999 23V25C14.4999 26.1 13.3999 27 12.6699 27C13.4099 27 14.4999 27.9 14.4999 29V31C14.4999 31.74 15.2599 32.5 15.9999 32.5M17.4999 24.5V29.5C17.4999 29.7652 17.6053 30.0196 17.7928 30.2071C17.9804 30.3946 18.2347 30.5 18.4999 30.5H18.9999M23.4999 26.5C23.4999 25.81 22.9099 25.5 22.2499 25.5H21.7499C21.0899 25.5 20.4999 26.06 20.4999 26.75C20.4999 27.44 21.0899 28 21.7499 28H22.2499C22.9099 28 23.4999 28.56 23.4999 29.25C23.4999 29.94 22.9099 30.5 22.2499 30.5H21.7499C21.0899 30.5 20.4999 30.19 20.4999 29.5M23.9999 21.5C24.7399 21.5 25.4999 22.26 25.4999 23V25C25.4999 26.1 26.5999 27 27.3299 27C26.5899 27 25.4999 27.9 25.4999 29V31C25.4999 31.74 24.7399 32.5 23.9999 32.5" stroke="#8AADF4" stroke-width="0.633125" stroke-linecap="round" stroke-linejoin="round"/>
</svg>
