<svg width="31" height="36" viewBox="0 0 31 36" fill="none" xmlns="http://www.w3.org/2000/svg">
<path d="M11 28H7.5625C5.59499 28 4 26.4554 4 24.55V6.5M5.5 5H12.4335C12.808 5 13.1726 5.08562 13.5 5.24495M23 18.5V16.2245C23 15.922 22.9385 15.6252 22.8216 15.35M13.5 5.24495C13.7656 5.37423 14.0067 5.55202 14.2086 5.77196L22.4001 14.6964C22.579 14.8914 22.7209 15.1127 22.8216 15.35M13.5 5.24495V11.9C13.5 13.8054 15.095 15.35 17.0625 15.35H22.8216" stroke="#FF7043" stroke-width="3"/>
<path d="M27 25L25 24V22H23L22 20L20 21L18 20L17 22H15V24L13 25L14 27L13 29L15 30V32H17L18 34L20 33L22 34L23 32H25V30L27 29L26 27L27 25ZM15 27C14.9997 26.3113 15.1431 25.6301 15.421 25H17V29H15.421C15.1431 28.3699 14.9997 27.6887 15 27ZM20 32C19.2255 31.9991 18.4618 31.8179 17.7695 31.4707C17.0771 31.1236 16.4751 30.6201 16.011 30H20V29H19V28H21C21.4095 28.4095 21.1485 29.154 21.5895 29.685C21.681 29.7874 21.7937 29.8686 21.9198 29.923C22.0458 29.9774 22.1822 30.0037 22.3195 30H23.9895C23.5254 30.6201 22.9232 31.1237 22.2308 31.4708C21.5383 31.818 20.7746 31.9991 20 32ZM19 26V25H21C21.1326 25 21.2598 25.0527 21.3536 25.1464C21.4473 25.2402 21.5 25.3674 21.5 25.5C21.5 25.6326 21.4473 25.7598 21.3536 25.8536C21.2598 25.9473 21.1326 26 21 26H19ZM24.579 29H24C23.735 28.9992 23.4811 28.8936 23.2938 28.7062C23.1064 28.5189 23.0008 28.265 23 28C23 27.7348 22.8946 27.4804 22.7071 27.2929C22.5196 27.1054 22.2652 27 22 27C22.3978 27 22.7794 26.842 23.0607 26.5607C23.342 26.2794 23.5 25.8978 23.5 25.5C23.5 25.4733 23.4993 25.4465 23.498 25.4195C23.4631 25.0264 23.2803 24.6611 22.9864 24.3976C22.6926 24.1341 22.3096 23.992 21.915 24H16.011C16.7457 23.0196 17.8152 22.3435 19.016 22.1004C20.2168 21.8574 21.465 22.0643 22.5232 22.6818C23.5813 23.2993 24.3755 24.2843 24.7546 25.4493C25.1337 26.6143 25.0712 27.8781 24.579 29Z" fill="#FF7043"/>
</svg>
