<svg width="31" height="36" viewBox="0 0 31 36" fill="none" xmlns="http://www.w3.org/2000/svg">
<path d="M11 28H7.5625C5.59499 28 4 26.4554 4 24.55V6.5M5.5 5H12.4335C12.808 5 13.1726 5.08562 13.5 5.24495M23 18.5V16.2245C23 15.922 22.9385 15.6252 22.8216 15.35M13.5 5.24495C13.7656 5.37423 14.0067 5.55202 14.2086 5.77196L22.4001 14.6964C22.579 14.8914 22.7209 15.1127 22.8216 15.35M13.5 5.24495V11.9C13.5 13.8054 15.095 15.35 17.0625 15.35H22.8216" stroke="#FF5555" stroke-width="3"/>
<g clip-path="url(#clip0_25_1275)">
<path d="M17.5918 21.464L26.4078 19.864C26.8478 19.8 27.1998 20.224 27.1998 20.664V30.6C27.1998 32.152 25.9438 33.4 24.3998 33.4C22.8558 33.4 21.5998 32.152 21.5998 30.6C21.5998 29.056 22.8558 27.8 24.3998 27.8C24.8318 27.8 25.2318 27.912 25.5998 28.08V23.064L18.3998 24.664V31.8C18.2078 33.16 17.0078 34.2 15.5998 34.2C14.0558 34.2 12.7998 32.952 12.7998 31.4C12.7998 29.856 14.0558 28.6 15.5998 28.6C16.0318 28.6 16.4318 28.712 16.7998 28.88V22.264C16.7998 21.824 17.1518 21.536 17.5918 21.464Z" fill="#FF5555"/>
</g>
<defs>
<clipPath id="clip0_25_1275">
<rect width="16" height="16" fill="white" transform="translate(12 19)"/>
</clipPath>
</defs>
</svg>
