<svg width="31" height="36" viewBox="0 0 31 36" fill="none" xmlns="http://www.w3.org/2000/svg">
<path d="M11 28H7.5625C5.59499 28 4 26.4554 4 24.55V6.5M5.5 5H12.4335C12.808 5 13.1726 5.08562 13.5 5.24495M23 18.5V16.2245C23 15.922 22.9385 15.6252 22.8216 15.35M13.5 5.24495C13.7656 5.37423 14.0067 5.55202 14.2086 5.77196L22.4001 14.6964C22.579 14.8914 22.7209 15.1127 22.8216 15.35M13.5 5.24495V11.9C13.5 13.8054 15.095 15.35 17.0625 15.35H22.8216" stroke="#CECECE" stroke-width="3"/>
<g clip-path="url(#clip0_25_602)">
<path d="M24.64 22.0476H23.7412C23.5686 22.0476 23.4287 22.1875 23.4287 22.3601V22.497C23.4287 22.6696 23.5686 22.8095 23.7412 22.8095H24.64C24.8126 22.8095 24.9525 22.6696 24.9525 22.497V22.3601C24.9525 22.1875 24.8126 22.0476 24.64 22.0476Z" fill="#56B3B4"/>
<path d="M16.2589 34.2381H12.3125C12.1399 34.2381 12 34.378 12 34.5506V34.6875C12 34.8601 12.1399 35 12.3125 35H16.2589C16.4315 35 16.5714 34.8601 16.5714 34.6875V34.5506C16.5714 34.378 16.4315 34.2381 16.2589 34.2381Z" fill="#EA5E5E"/>
<path d="M23.8777 28.1429H21.4551C21.2825 28.1429 21.1426 28.2828 21.1426 28.4554V28.5923C21.1426 28.7648 21.2825 28.9048 21.4551 28.9048H23.8777C24.0503 28.9048 24.1902 28.7648 24.1902 28.5923V28.4554C24.1902 28.2828 24.0503 28.1429 23.8777 28.1429Z" fill="#BF85BF"/>
<path d="M20.0683 28.1429H16.8838C16.7112 28.1429 16.5713 28.2828 16.5713 28.4554V28.5923C16.5713 28.7648 16.7112 28.9048 16.8838 28.9048H20.0683C20.2409 28.9048 20.3808 28.7648 20.3808 28.5923V28.4554C20.3808 28.2828 20.2409 28.1429 20.0683 28.1429Z" fill="#EA5E5E"/>
<path d="M15.497 28.1429H12.3125C12.1399 28.1429 12 28.2828 12 28.4554V28.5923C12 28.7648 12.1399 28.9048 12.3125 28.9048H15.497C15.6696 28.9048 15.8095 28.7648 15.8095 28.5923V28.4554C15.8095 28.2828 15.6696 28.1429 15.497 28.1429Z" fill="#56B3B4"/>
<path d="M16.2589 31.1905H12.3125C12.1399 31.1905 12 31.3304 12 31.503V31.6399C12 31.8125 12.1399 31.9524 12.3125 31.9524H16.2589C16.4315 31.9524 16.5714 31.8125 16.5714 31.6399V31.503C16.5714 31.3304 16.4315 31.1905 16.2589 31.1905Z" fill="#BF85BF"/>
<path d="M16.2589 25.0953H12.3125C12.1399 25.0953 12 25.2352 12 25.4078V25.5447C12 25.7172 12.1399 25.8572 12.3125 25.8572H16.2589C16.4315 25.8572 16.5714 25.7172 16.5714 25.5447V25.4078C16.5714 25.2352 16.4315 25.0953 16.2589 25.0953Z" fill="#BF85BF"/>
<path d="M23.878 20.5238H16.1221C15.9495 20.5238 15.8096 20.6637 15.8096 20.8363V20.9732C15.8096 21.1458 15.9495 21.2857 16.1221 21.2857H23.878C24.0506 21.2857 24.1905 21.1458 24.1905 20.9732V20.8363C24.1905 20.6637 24.0506 20.5238 23.878 20.5238Z" fill="#F7BA3E"/>
<path d="M14.7351 20.5238H12.3125C12.1399 20.5238 12 20.6637 12 20.8363V20.9732C12 21.1458 12.1399 21.2857 12.3125 21.2857H14.7351C14.9077 21.2857 15.0476 21.1458 15.0476 20.9732V20.8363C15.0476 20.6637 14.9077 20.5238 14.7351 20.5238Z" fill="#EA5E5E"/>
<path d="M16.2592 32.7143H15.3604C15.1878 32.7143 15.0479 32.8542 15.0479 33.0268V33.1637C15.0479 33.3363 15.1878 33.4762 15.3604 33.4762H16.2592C16.4318 33.4762 16.5717 33.3363 16.5717 33.1637V33.0268C16.5717 32.8542 16.4318 32.7143 16.2592 32.7143Z" fill="#F7BA3E"/>
<path d="M16.2592 23.5714H15.3604C15.1878 23.5714 15.0479 23.7113 15.0479 23.8839V24.0208C15.0479 24.1934 15.1878 24.3333 15.3604 24.3333H16.2592C16.4318 24.3333 16.5717 24.1934 16.5717 24.0208V23.8839C16.5717 23.7113 16.4318 23.5714 16.2592 23.5714Z" fill="#56B3B4"/>
<path d="M13.9732 32.7143H12.3125C12.1399 32.7143 12 32.8542 12 33.0268V33.1637C12 33.3363 12.1399 33.4762 12.3125 33.4762H13.9732C14.1458 33.4762 14.2857 33.3363 14.2857 33.1637V33.0268C14.2857 32.8542 14.1458 32.7143 13.9732 32.7143Z" fill="#56B3B4"/>
<path d="M13.9732 23.5714H12.3125C12.1399 23.5714 12 23.7113 12 23.8839V24.0208C12 24.1934 12.1399 24.3333 12.3125 24.3333H13.9732C14.1458 24.3333 14.2857 24.1934 14.2857 24.0208V23.8839C14.2857 23.7113 14.1458 23.5714 13.9732 23.5714Z" fill="#F7BA3E"/>
<path opacity="0.5" d="M23.1156 32.7143H22.2168C22.0442 32.7143 21.9043 32.8542 21.9043 33.0268V33.1637C21.9043 33.3363 22.0442 33.4762 22.2168 33.4762H23.1156C23.2882 33.4762 23.4281 33.3363 23.4281 33.1637V33.0268C23.4281 32.8542 23.2882 32.7143 23.1156 32.7143Z" fill="#D0D4D8"/>
<path opacity="0.5" d="M20.83 32.7143H17.6455C17.4729 32.7143 17.333 32.8542 17.333 33.0268V33.1637C17.333 33.3363 17.4729 33.4762 17.6455 33.4762H20.83C21.0026 33.4762 21.1425 33.3363 21.1425 33.1637V33.0268C21.1425 32.8542 21.0026 32.7143 20.83 32.7143Z" fill="#D0D4D8"/>
<path opacity="0.5" d="M27.6874 32.7143H24.5029C24.3303 32.7143 24.1904 32.8542 24.1904 33.0268V33.1637C24.1904 33.3363 24.3303 33.4762 24.5029 33.4762H27.6874C27.86 33.4762 27.9999 33.3363 27.9999 33.1637V33.0268C27.9999 32.8542 27.86 32.7143 27.6874 32.7143Z" fill="#D0D4D8"/>
<path d="M24.6403 26.6191H18.4082C18.2356 26.6191 18.0957 26.759 18.0957 26.9316V27.0685C18.0957 27.241 18.2356 27.381 18.4082 27.381H24.6403C24.8129 27.381 24.9528 27.241 24.9528 27.0685V26.9316C24.9528 26.759 24.8129 26.6191 24.6403 26.6191Z" fill="#56B3B4"/>
<path d="M17.0213 26.6191H14.5986C14.426 26.6191 14.2861 26.759 14.2861 26.9316V27.0685C14.2861 27.241 14.426 27.381 14.5986 27.381H17.0213C17.1938 27.381 17.3338 27.241 17.3338 27.0685V26.9316C17.3338 26.759 17.1938 26.6191 17.0213 26.6191Z" fill="#F7BA3E"/>
<path d="M13.2113 26.6191H12.3125C12.1399 26.6191 12 26.759 12 26.9316V27.0685C12 27.241 12.1399 27.381 12.3125 27.381H13.2113C13.3839 27.381 13.5238 27.241 13.5238 27.0685V26.9316C13.5238 26.759 13.3839 26.6191 13.2113 26.6191Z" fill="#EA5E5E"/>
<path d="M22.3544 22.0476H19.1699C18.9973 22.0476 18.8574 22.1875 18.8574 22.3601V22.497C18.8574 22.6696 18.9973 22.8095 19.1699 22.8095H22.3544C22.527 22.8095 22.6669 22.6696 22.6669 22.497V22.3601C22.6669 22.1875 22.527 22.0476 22.3544 22.0476Z" fill="#BF85BF"/>
<path d="M17.7828 22.0476H12.3125C12.1399 22.0476 12 22.1875 12 22.3601V22.497C12 22.6696 12.1399 22.8095 12.3125 22.8095H17.7828C17.9553 22.8095 18.0953 22.6696 18.0953 22.497V22.3601C18.0953 22.1875 17.9553 22.0476 17.7828 22.0476Z" fill="#56B3B4"/>
<path d="M21.5927 29.6667H14.5986C14.426 29.6667 14.2861 29.8066 14.2861 29.9792V30.1161C14.2861 30.2887 14.426 30.4286 14.5986 30.4286H21.5927C21.7653 30.4286 21.9052 30.2887 21.9052 30.1161V29.9792C21.9052 29.8066 21.7653 29.6667 21.5927 29.6667Z" fill="#F7BA3E"/>
<path d="M13.2113 29.6667H12.3125C12.1399 29.6667 12 29.8066 12 29.9792V30.1161C12 30.2887 12.1399 30.4286 12.3125 30.4286H13.2113C13.3839 30.4286 13.5238 30.2887 13.5238 30.1161V29.9792C13.5238 29.8066 13.3839 29.6667 13.2113 29.6667Z" fill="#BF85BF"/>
<path d="M25.4015 23.5714H21.4551C21.2825 23.5714 21.1426 23.7113 21.1426 23.8839V24.0208C21.1426 24.1934 21.2825 24.3333 21.4551 24.3333H25.4015C25.5741 24.3333 25.714 24.1934 25.714 24.0208V23.8839C25.714 23.7113 25.5741 23.5714 25.4015 23.5714Z" fill="#EA5E5E"/>
<path d="M25.4015 25.0953H21.4551C21.2825 25.0953 21.1426 25.2352 21.1426 25.4078V25.5447C21.1426 25.7172 21.2825 25.8572 21.4551 25.8572H25.4015C25.5741 25.8572 25.714 25.7172 25.714 25.5447V25.4078C25.714 25.2352 25.5741 25.0953 25.4015 25.0953Z" fill="#F7BA3E"/>
<path d="M21.5922 19H12.3125C12.1399 19 12 19.1399 12 19.3125V19.4494C12 19.622 12.1399 19.7619 12.3125 19.7619H21.5922C21.7648 19.7619 21.9047 19.622 21.9047 19.4494V19.3125C21.9047 19.1399 21.7648 19 21.5922 19Z" fill="#56B3B4"/>
<path opacity="0.5" d="M27.6878 19H22.9795C22.8069 19 22.667 19.1399 22.667 19.3125V19.4494C22.667 19.622 22.8069 19.7619 22.9795 19.7619H27.6878C27.8604 19.7619 28.0003 19.622 28.0003 19.4494V19.3125C28.0003 19.1399 27.8604 19 27.6878 19Z" fill="#D0D4D8"/>
<path opacity="0.5" d="M24.6402 29.6667H22.9795C22.8069 29.6667 22.667 29.8066 22.667 29.9792V30.1161C22.667 30.2887 22.8069 30.4286 22.9795 30.4286H24.6402C24.8128 30.4286 24.9527 30.2887 24.9527 30.1161V29.9792C24.9527 29.8066 24.8128 29.6667 24.6402 29.6667Z" fill="#D0D4D8"/>
<path opacity="0.5" d="M27.6871 29.6667H26.0264C25.8538 29.6667 25.7139 29.8066 25.7139 29.9792V30.1161C25.7139 30.2887 25.8538 30.4286 26.0264 30.4286H27.6871C27.8596 30.4286 27.9996 30.2887 27.9996 30.1161V29.9792C27.9996 29.8066 27.8596 29.6667 27.6871 29.6667Z" fill="#D0D4D8"/>
<path opacity="0.5" d="M27.6873 28.1429H25.2646C25.0921 28.1429 24.9521 28.2828 24.9521 28.4554V28.5923C24.9521 28.7648 25.0921 28.9048 25.2646 28.9048H27.6873C27.8599 28.9048 27.9998 28.7648 27.9998 28.5923V28.4554C27.9998 28.2828 27.8599 28.1429 27.6873 28.1429Z" fill="#D0D4D8"/>
<path opacity="0.5" d="M27.6873 20.5238H25.2646C25.0921 20.5238 24.9521 20.6637 24.9521 20.8363V20.9732C24.9521 21.1458 25.0921 21.2857 25.2646 21.2857H27.6873C27.8599 21.2857 27.9998 21.1458 27.9998 20.9732V20.8363C27.9998 20.6637 27.8599 20.5238 27.6873 20.5238Z" fill="#D0D4D8"/>
<path opacity="0.5" d="M27.6871 26.6191H26.0264C25.8538 26.6191 25.7139 26.759 25.7139 26.9316V27.0685C25.7139 27.241 25.8538 27.381 26.0264 27.381H27.6871C27.8596 27.381 27.9996 27.241 27.9996 27.0685V26.9316C27.9996 26.759 27.8596 26.6191 27.6871 26.6191Z" fill="#D0D4D8"/>
<path opacity="0.5" d="M27.6871 22.0476H26.0264C25.8538 22.0476 25.7139 22.1875 25.7139 22.3601V22.497C25.7139 22.6696 25.8538 22.8095 26.0264 22.8095H27.6871C27.8596 22.8095 27.9996 22.6696 27.9996 22.497V22.3601C27.9996 22.1875 27.8596 22.0476 27.6871 22.0476Z" fill="#D0D4D8"/>
<path opacity="0.5" d="M27.6879 23.5714H26.7891C26.6165 23.5714 26.4766 23.7113 26.4766 23.8839V24.0208C26.4766 24.1934 26.6165 24.3333 26.7891 24.3333H27.6879C27.8605 24.3333 28.0004 24.1934 28.0004 24.0208V23.8839C28.0004 23.7113 27.8605 23.5714 27.6879 23.5714Z" fill="#D0D4D8"/>
<path opacity="0.5" d="M27.6879 25.0953H26.7891C26.6165 25.0953 26.4766 25.2352 26.4766 25.4078V25.5447C26.4766 25.7172 26.6165 25.8572 26.7891 25.8572H27.6879C27.8605 25.8572 28.0004 25.7172 28.0004 25.5447V25.4078C28.0004 25.2352 27.8605 25.0953 27.6879 25.0953Z" fill="#D0D4D8"/>
<path opacity="0.5" d="M27.6874 31.1905H20.6934C20.5208 31.1905 20.3809 31.3304 20.3809 31.503V31.6399C20.3809 31.8125 20.5208 31.9524 20.6934 31.9524H27.6874C27.86 31.9524 27.9999 31.8125 27.9999 31.6399V31.503C27.9999 31.3304 27.86 31.1905 27.6874 31.1905Z" fill="#D0D4D8"/>
<path opacity="0.5" d="M19.3062 31.1905H17.6455C17.4729 31.1905 17.333 31.3304 17.333 31.503V31.6399C17.333 31.8125 17.4729 31.9524 17.6455 31.9524H19.3062C19.4788 31.9524 19.6187 31.8125 19.6187 31.6399V31.503C19.6187 31.3304 19.4788 31.1905 19.3062 31.1905Z" fill="#D0D4D8"/>
<path opacity="0.5" d="M27.6876 34.2381H23.7412C23.5686 34.2381 23.4287 34.378 23.4287 34.5506V34.6875C23.4287 34.8601 23.5686 35 23.7412 35H27.6876C27.8602 35 28.0001 34.8601 28.0001 34.6875V34.5506C28.0001 34.378 27.8602 34.2381 27.6876 34.2381Z" fill="#D0D4D8"/>
<path opacity="0.5" d="M22.3538 34.2381H17.6455C17.4729 34.2381 17.333 34.378 17.333 34.5506V34.6875C17.333 34.8601 17.4729 35 17.6455 35H22.3538C22.5264 35 22.6663 34.8601 22.6663 34.6875V34.5506C22.6663 34.378 22.5264 34.2381 22.3538 34.2381Z" fill="#D0D4D8"/>
<path opacity="0.5" d="M20.0681 23.5714H17.6455C17.4729 23.5714 17.333 23.7113 17.333 23.8839V24.0208C17.333 24.1934 17.4729 24.3333 17.6455 24.3333H20.0681C20.2407 24.3333 20.3806 24.1934 20.3806 24.0208V23.8839C20.3806 23.7113 20.2407 23.5714 20.0681 23.5714Z" fill="#D0D4D8"/>
<path opacity="0.5" d="M20.0681 25.0953H17.6455C17.4729 25.0953 17.333 25.2352 17.333 25.4078V25.5447C17.333 25.7172 17.4729 25.8572 17.6455 25.8572H20.0681C20.2407 25.8572 20.3806 25.7172 20.3806 25.5447V25.4078C20.3806 25.2352 20.2407 25.0953 20.0681 25.0953Z" fill="#D0D4D8"/>
</g>
<defs>
<clipPath id="clip0_25_602">
<rect width="16" height="16" fill="white" transform="translate(12 19)"/>
</clipPath>
</defs>
</svg>
