<svg width="31" height="36" viewBox="0 0 31 36" fill="none" xmlns="http://www.w3.org/2000/svg">
<path d="M11 28H7.5625C5.59499 28 4 26.4554 4 24.55V6.5M5.5 5H12.4335C12.808 5 13.1726 5.08562 13.5 5.24495M23 18.5V16.2245C23 15.922 22.9385 15.6252 22.8216 15.35M13.5 5.24495C13.7656 5.37423 14.0067 5.55202 14.2086 5.77196L22.4001 14.6964C22.579 14.8914 22.7209 15.1127 22.8216 15.35M13.5 5.24495V11.9C13.5 13.8054 15.095 15.35 17.0625 15.35H22.8216" stroke="#EA8766" stroke-width="3"/>
<g clip-path="url(#clip0_25_730)">
<path d="M18.9975 20.5024L18.258 21.2419L19.2727 22.2565L20.3352 23.319C20.5772 23.1993 20.8457 23.1434 21.1154 23.1564C21.3851 23.1695 21.6469 23.2512 21.8762 23.3938C22.1055 23.5363 22.2946 23.7351 22.4256 23.9711C22.5566 24.2072 22.6252 24.4728 22.6249 24.7428C22.6191 24.9837 22.563 25.2208 22.4602 25.4387L23.5545 26.5012C23.8416 26.3354 24.1774 26.2749 24.5042 26.3302C24.8311 26.3855 25.1284 26.5531 25.3449 26.804C25.4961 26.9491 25.6158 27.1239 25.6962 27.3175C25.7767 27.511 25.8162 27.7191 25.8124 27.9287C25.8127 28.3472 25.6495 28.7492 25.3576 29.0491C25.2107 29.2025 25.0337 29.3239 24.8377 29.4056C24.6417 29.4873 24.4309 29.5277 24.2186 29.524C24.0086 29.5273 23.8 29.4881 23.6056 29.4087C23.4111 29.3292 23.2347 29.2113 23.087 29.0619C22.8369 28.8435 22.6704 28.545 22.6161 28.2174C22.5618 27.8898 22.6231 27.5536 22.7895 27.2662L21.727 26.1719C21.6734 26.1961 21.6184 26.2174 21.5624 26.2356V29.625C21.8708 29.7348 22.1379 29.937 22.3274 30.204C22.5207 30.4695 22.6249 30.7894 22.6249 31.1178C22.629 31.3282 22.5898 31.5372 22.5095 31.7317C22.4292 31.9262 22.3097 32.1021 22.1584 32.2483C21.8691 32.5373 21.4792 32.7031 21.0704 32.711C20.775 32.7202 20.4829 32.6466 20.2272 32.4985C19.9714 32.3503 19.7622 32.1336 19.6233 31.8727C19.4843 31.6119 19.4211 31.3174 19.4408 31.0225C19.4605 30.7276 19.5624 30.4441 19.7349 30.204C19.9243 29.937 20.1914 29.7348 20.4999 29.625V26.2356C20.1908 26.127 19.9233 25.9245 19.7349 25.6565C19.5408 25.3915 19.4366 25.0713 19.4374 24.7428C19.4369 24.5011 19.4933 24.2627 19.602 24.0469L17.5302 21.975L13.5038 25.9976C13.3064 26.1949 13.1497 26.4292 13.0428 26.687C12.936 26.9449 12.8809 27.2213 12.8809 27.5004C12.8808 27.7795 12.9358 28.0559 13.0426 28.3138C13.1494 28.5717 13.3059 28.8061 13.5033 29.0034L18.9975 34.4976C19.396 34.896 19.9364 35.1198 20.4999 35.1198C21.0633 35.1198 21.6037 34.896 22.0022 34.4976L27.4975 29.0024C27.8959 28.6039 28.1197 28.0635 28.1197 27.5C28.1197 26.9365 27.8959 26.3961 27.4975 25.9976L22.0022 20.5024C21.6037 20.104 21.0633 19.8802 20.4999 19.8802C19.9364 19.8802 19.396 20.104 18.9975 20.5024Z" fill="#E64A19"/>
</g>
<defs>
<clipPath id="clip0_25_730">
<rect width="17" height="17" fill="white" transform="translate(12 19)"/>
</clipPath>
</defs>
</svg>
