<svg width="31" height="36" viewBox="0 0 31 36" fill="none" xmlns="http://www.w3.org/2000/svg">
<path d="M11 28H7.5625C5.59499 28 4 26.4554 4 24.55V6.5M5.5 5H12.4335C12.808 5 13.1726 5.08562 13.5 5.24495M23 18.5V16.2245C23 15.922 22.9385 15.6252 22.8216 15.35M13.5 5.24495C13.7656 5.37423 14.0067 5.55202 14.2086 5.77196L22.4001 14.6964C22.579 14.8914 22.7209 15.1127 22.8216 15.35M13.5 5.24495V11.9C13.5 13.8054 15.095 15.35 17.0625 15.35H22.8216" stroke="#EAD066" stroke-width="3"/>
<path d="M13 20H27V34H13V20Z" fill="#F5DE19"/>
<path d="M22.404 30.9375C22.5235 31.1796 22.7089 31.3832 22.9389 31.5247C23.1688 31.6662 23.434 31.74 23.704 31.7375C24.249 31.7375 24.5975 31.465 24.5975 31.0875C24.5975 30.6375 24.2395 30.4765 23.6395 30.214L23.3105 30.073C22.3605 29.6685 21.7305 29.162 21.7305 28.091C21.7305 27.1045 22.4805 26.353 23.657 26.353C24.0379 26.3256 24.4184 26.4108 24.7511 26.5982C25.0838 26.7855 25.354 27.0666 25.528 27.4065L24.4995 28.064C24.4325 27.8955 24.3158 27.7513 24.165 27.6506C24.0142 27.5499 23.8364 27.4974 23.655 27.5C23.5759 27.4921 23.496 27.5007 23.4204 27.5254C23.3448 27.55 23.2752 27.5902 23.216 27.6432C23.1568 27.6963 23.1093 27.7611 23.0765 27.8336C23.0437 27.906 23.0263 27.9845 23.0255 28.064C23.0255 28.4585 23.27 28.6185 23.8345 28.864L24.1635 29.005C25.2815 29.4845 25.9135 29.973 25.9135 31.0715C25.9135 32.256 24.983 32.905 23.7335 32.905C23.2467 32.9357 22.7615 32.825 22.3361 32.5863C21.9107 32.3476 21.5634 31.991 21.336 31.5595L22.404 30.9375ZM17.7565 31.0515C17.963 31.418 18.151 31.728 18.603 31.728C19.035 31.728 19.308 31.559 19.308 30.9015V26.428H20.6235V30.919C20.6235 32.281 19.8235 32.901 18.659 32.901C18.2474 32.9235 17.8386 32.8209 17.4864 32.6067C17.1342 32.3926 16.855 32.0768 16.6855 31.701L17.7565 31.0515Z" fill="black"/>
</svg>
