<svg width="39" height="38" viewBox="0 0 39 38" fill="none" xmlns="http://www.w3.org/2000/svg">
<path d="M31.3208 10.0399H22.5834L19.7257 7.18225C18.9667 6.42323 17.9419 6 16.868 6H9.04004V10.0399H16.8715L19.7292 12.8976C20.4882 13.6566 21.5131 14.0799 22.5869 14.0799H30.4184V20.5H34.4583V13.1774C34.4583 11.446 33.0557 10.0399 31.3208 10.0399Z" fill="#FEBC2F"/>
<path d="M9 19C7.4379 19 6.5 19.5 6 20C5.5 20.5 5 21 5 22C5 23 5 28.4171 5 28.4171C5 30.1485 6.4026 31.5546 8.13749 31.5546H24.5V27.5L9.03992 27.5147L9 19Z" fill="#FEBC2F"/>
<path d="M25.0004 24H21.0004V22H9.00037V19H21C22.6706 19 23.5351 19.5841 24 20C24.7003 20.6266 25.0557 21.2567 25.0557 22L25.0004 24Z" fill="#FEBC2F"/>
<path d="M37 26.0187V26.014L35.7271 24.9972C35.7101 24.9725 35.6952 24.9464 35.6826 24.9192C35.6013 24.7674 35.4863 24.6362 35.3463 24.5358C35.1918 24.4243 35.0195 24.34 34.8367 24.2864L34.25 23.8181C33.831 23.4845 33.4119 23.1482 32.9929 22.8156C32.963 22.7941 32.952 22.7517 32.9337 22.7181C32.8524 22.5663 32.7373 22.4351 32.5974 22.3347C32.2936 22.1218 31.9328 22.0052 31.5618 22H31.4476C31.076 22.0032 30.714 22.118 30.4084 22.3295C30.2709 22.4276 30.1566 22.5547 30.0737 22.7019C30.0564 22.7328 30.0443 22.7679 30.025 22.7972C30.0033 22.8188 29.9798 22.8384 29.9548 22.8559L28.75 23.8161L28.1623 24.2875C27.9823 24.3405 27.8125 24.4234 27.66 24.5326C27.5224 24.6307 27.4082 24.7579 27.3252 24.9051C27.3095 24.9328 27.2975 24.9642 27.2812 24.9915L26 26.0134V26.0171L28.7505 28.2134V28.2182L31.5 30.4145L34.2495 28.2197V28.2134L37 26.0187ZM35.5899 26.5456C35.4614 26.707 35.2978 26.837 35.1117 26.9259C34.8431 27.055 34.5485 27.1204 34.2505 27.1171C33.9639 27.1208 33.6799 27.0609 33.4192 26.9416C33.1761 26.8357 32.9716 26.6574 32.8336 26.4309C32.7567 26.298 32.7177 26.1465 32.721 25.993C32.721 25.8023 32.7158 25.6111 32.7247 25.421C32.744 25.4676 32.7477 25.5216 32.7671 25.5687C32.8514 25.7892 33.0044 25.9767 33.2034 26.1035C33.5161 26.3032 33.8801 26.4078 34.251 26.4047C34.6134 26.4067 34.9691 26.3071 35.2777 26.1171C35.4251 26.023 35.5502 25.8979 35.6444 25.7505C35.7072 25.6476 35.7497 25.5336 35.7696 25.4147C35.7761 25.4621 35.7781 25.51 35.7753 25.5577V26.0349C35.7693 26.2205 35.7044 26.3994 35.5899 26.5456ZM29.9752 23.22C29.9946 23.2666 29.9982 23.3205 30.0176 23.3677C30.1019 23.5881 30.2549 23.7756 30.454 23.9025C30.7667 24.1021 31.1306 24.2068 31.5016 24.2037C31.8639 24.2057 32.2196 24.1061 32.5282 23.9161C32.6756 23.8219 32.8007 23.6968 32.8949 23.5494C32.9577 23.4465 33.0002 23.3326 33.0201 23.2137C33.0267 23.261 33.0286 23.3089 33.0259 23.3567V23.8339C33.0198 24.0204 32.9543 24.2001 32.8389 24.3467C32.7103 24.508 32.5468 24.6381 32.3606 24.727C32.0921 24.856 31.7974 24.9215 31.4995 24.9181C31.2128 24.9219 30.9289 24.8619 30.6682 24.7427C30.4251 24.6367 30.2206 24.4584 30.0826 24.232C30.0056 24.0991 29.9667 23.9476 29.97 23.7941C29.9736 23.6013 29.9658 23.4101 29.9752 23.22ZM28.7505 27.1171C28.4639 27.1208 28.1799 27.0609 27.9192 26.9416C27.6761 26.8357 27.4716 26.6574 27.3336 26.4309C27.2567 26.298 27.2177 26.1465 27.221 25.993C27.221 25.8023 27.2158 25.6111 27.2247 25.421C27.244 25.4676 27.2477 25.5216 27.2671 25.5687C27.3514 25.7892 27.5044 25.9767 27.7034 26.1035C28.0161 26.3032 28.3801 26.4078 28.751 26.4047C29.1134 26.4067 29.4691 26.3071 29.7777 26.1171C29.9251 26.023 30.0502 25.8979 30.1444 25.7505C30.2072 25.6476 30.2497 25.5336 30.2696 25.4147C30.2761 25.4621 30.2781 25.51 30.2753 25.5577V26.0349C30.2693 26.2214 30.2038 26.4011 30.0883 26.5477C29.9598 26.7091 29.7963 26.8391 29.6101 26.928C29.3419 27.0561 29.0478 27.1208 28.7505 27.1171ZM32.8399 28.7467C32.7114 28.908 32.5478 29.0381 32.3617 29.127C32.0931 29.256 31.7985 29.3215 31.5005 29.3182C31.2139 29.3219 30.9299 29.2619 30.6692 29.1427C30.4261 29.0368 30.2216 28.8584 30.0836 28.632C30.0067 28.4991 29.9677 28.3476 29.971 28.1941C29.971 28.0034 29.9658 27.8122 29.9747 27.6221C29.994 27.6687 29.9977 27.7226 30.0171 27.7698C30.1014 27.9902 30.2544 28.1777 30.4534 28.3046C30.7661 28.5042 31.1301 28.6089 31.501 28.6058C31.8634 28.6078 32.2191 28.5082 32.5277 28.3182C32.6751 28.224 32.8002 28.0989 32.8944 27.9515C32.9572 27.8486 32.9997 27.7347 33.0196 27.6158C33.0261 27.6631 33.0281 27.711 33.0253 27.7588V28.236C33.0193 28.4216 32.9544 28.6004 32.8399 28.7467Z" fill="#F1C40F"/>
<path d="M32.361 24.7238C32.5472 24.6349 32.7107 24.5049 32.8392 24.3435C32.9547 24.1969 33.0202 24.0172 33.0262 23.8307V23.3535C33.029 23.3058 33.0271 23.2579 33.0205 23.2105C33.0006 23.3294 32.9581 23.4434 32.8953 23.5463C32.8011 23.6937 32.676 23.8188 32.5286 23.9129C32.22 24.1029 31.8643 24.2025 31.502 24.2005V24.9129C31.799 24.9165 32.0929 24.8518 32.361 24.7238ZM29.611 26.9238C29.7972 26.8349 29.9607 26.7049 30.0892 26.5435C30.2047 26.3969 30.2702 26.2172 30.2762 26.0307V25.5535C30.279 25.5058 30.2771 25.4579 30.2705 25.4105C30.2506 25.5294 30.2081 25.6434 30.1453 25.7463C30.0511 25.8937 29.926 26.0188 29.7786 26.1129C29.47 26.3029 29.1143 26.4025 28.752 26.4005V27.1129C29.049 27.1165 29.3429 27.0518 29.611 26.9238ZM35.7705 25.4126C35.7506 25.5315 35.7081 25.6455 35.6453 25.7484C35.5511 25.8958 35.426 26.0209 35.2786 26.115C34.97 26.305 34.6143 26.4046 34.252 26.4026V27.115C34.5499 27.1183 34.8446 27.0529 35.1131 26.9238C35.2993 26.8349 35.4628 26.7049 35.5913 26.5435C35.7068 26.3969 35.7723 26.2172 35.7783 26.0307V25.5535C35.7803 25.5064 35.7776 25.4592 35.7705 25.4126ZM33.0184 27.6137C32.9985 27.7326 32.956 27.8465 32.8932 27.9494C32.799 28.0968 32.6739 28.2219 32.5265 28.3161C32.2179 28.506 31.8622 28.6057 31.4999 28.6037V29.316C31.7978 29.3194 32.0925 29.2539 32.361 29.1249C32.5472 29.0359 32.7107 28.9059 32.8392 28.7446C32.9547 28.5979 33.0202 28.4183 33.0262 28.2318V27.7546C33.0282 27.7075 33.0255 27.6603 33.0184 27.6137ZM31.4999 30.4145L31.4993 33L36.9993 28.6026V26.0192L31.4999 30.4145Z" fill="#F39C12"/>
<path d="M30.6692 24.74C30.9299 24.8593 31.2139 24.9192 31.5005 24.9155V24.2031C31.1295 24.2062 30.7656 24.1016 30.4529 23.9019C30.2538 23.7751 30.1009 23.5876 30.0166 23.3671C29.9972 23.32 29.9935 23.266 29.9741 23.2194C29.9652 23.4096 29.9741 23.6008 29.9705 23.7914C29.9672 23.945 30.0061 24.0964 30.0831 24.2293C30.2212 24.4559 30.4259 24.6342 30.6692 24.74ZM27.7034 26.1035C27.5044 25.9767 27.3514 25.7892 27.2671 25.5687C27.2477 25.5216 27.244 25.4676 27.2247 25.421C27.2158 25.6111 27.2247 25.8023 27.221 25.993C27.2177 26.1465 27.2567 26.298 27.3336 26.4309C27.4716 26.6573 27.6761 26.8357 27.9192 26.9416C28.1799 27.0609 28.4639 27.1208 28.7505 27.1171V26.4047C28.3797 26.4077 28.016 26.3031 27.7034 26.1035ZM33.2034 26.1035C33.0044 25.9767 32.8514 25.7892 32.7671 25.5687C32.7477 25.5216 32.744 25.4676 32.7247 25.421C32.7158 25.6111 32.7247 25.8023 32.721 25.993C32.7177 26.1465 32.7567 26.298 32.8336 26.4309C32.9716 26.6573 33.1761 26.8357 33.4192 26.9416C33.6799 27.0609 33.9639 27.1208 34.2505 27.1171V26.4047C33.8797 26.4077 33.516 26.3031 33.2034 26.1035ZM30.4524 28.3046C30.2533 28.1777 30.1003 27.9902 30.016 27.7698C29.9967 27.7226 29.993 27.6687 29.9736 27.622C29.9647 27.8122 29.9736 28.0034 29.97 28.194C29.9667 28.3476 30.0056 28.4991 30.0826 28.632C30.2206 28.8584 30.4251 29.0367 30.6682 29.1427C30.9289 29.2619 31.2128 29.3219 31.4995 29.3181V28.6058C31.1287 28.6087 30.7649 28.5041 30.4524 28.3046ZM28.75 28.2181V28.2134L26 26.0171V28.6031C26.9167 29.3365 28.75 30.799 28.75 30.799V30.8042C29.6667 31.5386 31.5 33 31.5 33V30.4145L28.75 28.2181Z" fill="#E67E22"/>
</svg>
