<svg width="39" height="38" viewBox="0 0 39 38" fill="none" xmlns="http://www.w3.org/2000/svg">
<path d="M31.3208 10.0399H22.5834L19.7257 7.18225C18.9667 6.42323 17.9419 6 16.868 6H9.04004V10.0399H16.8715L19.7292 12.8976C20.4882 13.6566 21.5131 14.0799 22.5869 14.0799H30.4184L30.5 21.5H34.4583V13.1774C34.4583 11.446 33.0557 10.0399 31.3208 10.0399Z" fill="#FEBC2F"/>
<path d="M9.03991 10.0398H5V28.4171C5 30.1485 6.4026 31.5546 8.13749 31.5546H25V27.5147H9.03991V10.0398Z" fill="#FEBC2F"/>
<path d="M37 27.0187V27.014L35.7271 25.9972C35.7101 25.9725 35.6952 25.9464 35.6826 25.9192C35.6013 25.7674 35.4863 25.6362 35.3463 25.5358C35.1918 25.4243 35.0195 25.34 34.8367 25.2864L34.25 24.8181C33.831 24.4845 33.4119 24.1482 32.9929 23.8156C32.963 23.7941 32.952 23.7517 32.9337 23.7181C32.8524 23.5663 32.7373 23.4351 32.5974 23.3347C32.2936 23.1218 31.9328 23.0052 31.5618 23H31.4476C31.076 23.0032 30.714 23.118 30.4084 23.3295C30.2709 23.4276 30.1566 23.5547 30.0737 23.7019C30.0564 23.7328 30.0443 23.7679 30.025 23.7972C30.0033 23.8188 29.9798 23.8384 29.9548 23.8559L28.75 24.8161L28.1623 25.2875C27.9823 25.3405 27.8125 25.4234 27.66 25.5326C27.5224 25.6307 27.4082 25.7579 27.3252 25.9051C27.3095 25.9328 27.2975 25.9642 27.2812 25.9915L26 27.0134V27.0171L28.7505 29.2134V29.2182L31.5 31.4145L34.2495 29.2197V29.2134L37 27.0187ZM35.5899 27.5456C35.4614 27.707 35.2978 27.837 35.1117 27.9259C34.8431 28.055 34.5485 28.1204 34.2505 28.1171C33.9639 28.1208 33.6799 28.0609 33.4192 27.9416C33.1761 27.8357 32.9716 27.6574 32.8336 27.4309C32.7567 27.298 32.7177 27.1465 32.721 26.993C32.721 26.8023 32.7158 26.6111 32.7247 26.421C32.744 26.4676 32.7477 26.5216 32.7671 26.5687C32.8514 26.7892 33.0044 26.9767 33.2034 27.1035C33.5161 27.3032 33.8801 27.4078 34.251 27.4047C34.6134 27.4067 34.9691 27.3071 35.2777 27.1171C35.4251 27.023 35.5502 26.8979 35.6444 26.7505C35.7072 26.6476 35.7497 26.5336 35.7696 26.4147C35.7761 26.4621 35.7781 26.51 35.7753 26.5577V27.0349C35.7693 27.2205 35.7044 27.3994 35.5899 27.5456ZM29.9752 24.22C29.9946 24.2666 29.9982 24.3205 30.0176 24.3677C30.1019 24.5881 30.2549 24.7756 30.454 24.9025C30.7667 25.1021 31.1306 25.2068 31.5016 25.2037C31.8639 25.2057 32.2196 25.1061 32.5282 24.9161C32.6756 24.8219 32.8007 24.6968 32.8949 24.5494C32.9577 24.4465 33.0002 24.3326 33.0201 24.2137C33.0267 24.261 33.0286 24.3089 33.0259 24.3567V24.8339C33.0198 25.0204 32.9543 25.2001 32.8389 25.3467C32.7103 25.508 32.5468 25.6381 32.3606 25.727C32.0921 25.856 31.7974 25.9215 31.4995 25.9181C31.2128 25.9219 30.9289 25.8619 30.6682 25.7427C30.4251 25.6367 30.2206 25.4584 30.0826 25.232C30.0056 25.0991 29.9667 24.9476 29.97 24.7941C29.9736 24.6013 29.9658 24.4101 29.9752 24.22ZM28.7505 28.1171C28.4639 28.1208 28.1799 28.0609 27.9192 27.9416C27.6761 27.8357 27.4716 27.6574 27.3336 27.4309C27.2567 27.298 27.2177 27.1465 27.221 26.993C27.221 26.8023 27.2158 26.6111 27.2247 26.421C27.244 26.4676 27.2477 26.5216 27.2671 26.5687C27.3514 26.7892 27.5044 26.9767 27.7034 27.1035C28.0161 27.3032 28.3801 27.4078 28.751 27.4047C29.1134 27.4067 29.4691 27.3071 29.7777 27.1171C29.9251 27.023 30.0502 26.8979 30.1444 26.7505C30.2072 26.6476 30.2497 26.5336 30.2696 26.4147C30.2761 26.4621 30.2781 26.51 30.2753 26.5577V27.0349C30.2693 27.2214 30.2038 27.4011 30.0883 27.5477C29.9598 27.7091 29.7963 27.8391 29.6101 27.928C29.3419 28.0561 29.0478 28.1208 28.7505 28.1171ZM32.8399 29.7467C32.7114 29.908 32.5478 30.0381 32.3617 30.127C32.0931 30.256 31.7985 30.3215 31.5005 30.3182C31.2139 30.3219 30.9299 30.2619 30.6692 30.1427C30.4261 30.0368 30.2216 29.8584 30.0836 29.632C30.0067 29.4991 29.9677 29.3476 29.971 29.1941C29.971 29.0034 29.9658 28.8122 29.9747 28.6221C29.994 28.6687 29.9977 28.7226 30.0171 28.7698C30.1014 28.9902 30.2544 29.1777 30.4534 29.3046C30.7661 29.5042 31.1301 29.6089 31.501 29.6058C31.8634 29.6078 32.2191 29.5082 32.5277 29.3182C32.6751 29.224 32.8002 29.0989 32.8944 28.9515C32.9572 28.8486 32.9997 28.7347 33.0196 28.6158C33.0261 28.6631 33.0281 28.711 33.0253 28.7588V29.236C33.0193 29.4216 32.9544 29.6004 32.8399 29.7467Z" fill="#F1C40F"/>
<path d="M32.361 25.7238C32.5472 25.6349 32.7107 25.5049 32.8392 25.3435C32.9547 25.1969 33.0202 25.0172 33.0262 24.8307V24.3535C33.029 24.3058 33.0271 24.2579 33.0205 24.2105C33.0006 24.3294 32.9581 24.4434 32.8953 24.5463C32.8011 24.6937 32.676 24.8188 32.5286 24.9129C32.22 25.1029 31.8643 25.2025 31.502 25.2005V25.9129C31.799 25.9165 32.0929 25.8518 32.361 25.7238ZM29.611 27.9238C29.7972 27.8349 29.9607 27.7049 30.0892 27.5435C30.2047 27.3969 30.2702 27.2172 30.2762 27.0307V26.5535C30.279 26.5058 30.2771 26.4579 30.2705 26.4105C30.2506 26.5294 30.2081 26.6434 30.1453 26.7463C30.0511 26.8937 29.926 27.0188 29.7786 27.1129C29.47 27.3029 29.1143 27.4025 28.752 27.4005V28.1129C29.049 28.1165 29.3429 28.0518 29.611 27.9238ZM35.7705 26.4126C35.7506 26.5315 35.7081 26.6455 35.6453 26.7484C35.5511 26.8958 35.426 27.0209 35.2786 27.115C34.97 27.305 34.6143 27.4046 34.252 27.4026V28.115C34.5499 28.1183 34.8446 28.0529 35.1131 27.9238C35.2993 27.8349 35.4628 27.7049 35.5913 27.5435C35.7068 27.3969 35.7723 27.2172 35.7783 27.0307V26.5535C35.7803 26.5064 35.7776 26.4592 35.7705 26.4126ZM33.0184 28.6137C32.9985 28.7326 32.956 28.8465 32.8932 28.9494C32.799 29.0968 32.6739 29.2219 32.5265 29.3161C32.2179 29.506 31.8622 29.6057 31.4999 29.6037V30.316C31.7978 30.3194 32.0925 30.2539 32.361 30.1249C32.5472 30.0359 32.7107 29.9059 32.8392 29.7446C32.9547 29.5979 33.0202 29.4183 33.0262 29.2318V28.7546C33.0282 28.7075 33.0255 28.6603 33.0184 28.6137ZM31.4999 31.4145L31.4993 34L36.9993 29.6026V27.0192L31.4999 31.4145Z" fill="#F39C12"/>
<path d="M30.6692 25.74C30.9299 25.8593 31.2139 25.9192 31.5005 25.9155V25.2031C31.1295 25.2062 30.7656 25.1016 30.4529 24.9019C30.2538 24.7751 30.1009 24.5876 30.0166 24.3671C29.9972 24.32 29.9935 24.266 29.9741 24.2194C29.9652 24.4096 29.9741 24.6008 29.9705 24.7914C29.9672 24.945 30.0061 25.0964 30.0831 25.2293C30.2212 25.4559 30.4259 25.6342 30.6692 25.74ZM27.7034 27.1035C27.5044 26.9767 27.3514 26.7892 27.2671 26.5687C27.2477 26.5216 27.244 26.4676 27.2247 26.421C27.2158 26.6111 27.2247 26.8023 27.221 26.993C27.2177 27.1465 27.2567 27.298 27.3336 27.4309C27.4716 27.6573 27.6761 27.8357 27.9192 27.9416C28.1799 28.0609 28.4639 28.1208 28.7505 28.1171V27.4047C28.3797 27.4077 28.016 27.3031 27.7034 27.1035ZM33.2034 27.1035C33.0044 26.9767 32.8514 26.7892 32.7671 26.5687C32.7477 26.5216 32.744 26.4676 32.7247 26.421C32.7158 26.6111 32.7247 26.8023 32.721 26.993C32.7177 27.1465 32.7567 27.298 32.8336 27.4309C32.9716 27.6573 33.1761 27.8357 33.4192 27.9416C33.6799 28.0609 33.9639 28.1208 34.2505 28.1171V27.4047C33.8797 27.4077 33.516 27.3031 33.2034 27.1035ZM30.4524 29.3046C30.2533 29.1777 30.1003 28.9902 30.016 28.7698C29.9967 28.7226 29.993 28.6687 29.9736 28.622C29.9647 28.8122 29.9736 29.0034 29.97 29.194C29.9667 29.3476 30.0056 29.4991 30.0826 29.632C30.2206 29.8584 30.4251 30.0367 30.6682 30.1427C30.9289 30.2619 31.2128 30.3219 31.4995 30.3181V29.6058C31.1287 29.6087 30.7649 29.5041 30.4524 29.3046ZM28.75 29.2181V29.2134L26 27.0171V29.6031C26.9167 30.3365 28.75 31.799 28.75 31.799V31.8042C29.6667 32.5386 31.5 34 31.5 34V31.4145L28.75 29.2181Z" fill="#E67E22"/>
</svg>
