<svg width="31" height="36" viewBox="0 0 31 36" fill="none" xmlns="http://www.w3.org/2000/svg">
<path d="M11 28H7.5625C5.59499 28 4 26.4554 4 24.55V6.5M5.5 5H12.4335C12.808 5 13.1726 5.08562 13.5 5.24495M23 18.5V16.2245C23 15.922 22.9385 15.6252 22.8216 15.35M13.5 5.24495C13.7656 5.37423 14.0067 5.55202 14.2086 5.77196L22.4001 14.6964C22.579 14.8914 22.7209 15.1127 22.8216 15.35M13.5 5.24495V11.9C13.5 13.8054 15.095 15.35 17.0625 15.35H22.8216" stroke="#ECD53F" stroke-width="3"/>
<path fill-rule="evenodd" clip-rule="evenodd" d="M12.6826 19.6825H26.3182V33.3181H12.6826V19.6825Z" fill="black"/>
<path d="M26.9375 19.0625V33.9375H12.0625V19.0625H26.9375ZM18.8397 28.9113H16.3019V32.3326H18.9039V31.7562H16.993V30.8244H18.71V30.248H16.9925V29.4893H18.8386V28.9103L18.8397 28.9113ZM20.1694 28.9113H19.4979V32.3326H20.1391V30.1013L21.5188 32.3326H22.212V28.9113H21.5692V31.1957L20.1694 28.9113ZM23.3409 28.9113H22.5919L23.8153 32.3326H24.5527L25.7778 28.9113H25.0447L24.2069 31.4433L23.3409 28.9113ZM15.4094 31.26H14.3681V32.3013H15.4094V31.26Z" fill="#ECD53F"/>
</svg>
