<svg width="31" height="36" viewBox="0 0 31 36" fill="none" xmlns="http://www.w3.org/2000/svg">
<path d="M11 28H7.5625C5.59499 28 4 26.4554 4 24.55V6.5M5.5 5H12.4335C12.808 5 13.1726 5.08562 13.5 5.24495M23 18.5V16.2245C23 15.922 22.9385 15.6252 22.8216 15.35M13.5 5.24495C13.7656 5.37423 14.0067 5.55202 14.2086 5.77196L22.4001 14.6964C22.579 14.8914 22.7209 15.1127 22.8216 15.35M13.5 5.24495V11.9C13.5 13.8054 15.095 15.35 17.0625 15.35H22.8216" stroke="#66AAEA" stroke-width="3"/>
<path d="M19.4577 20.1136L13.0742 32.887L20.069 26.8874L19.4577 20.1136Z" fill="#1E88E5"/>
<path d="M19.4707 20.1122L19.4721 20.3177L20.4015 30.5878L20.4 30.592L20.4163 30.7762L25.6318 32.8856H25.9257L25.8138 32.666L25.7331 32.5045L19.4707 20.1122Z" fill="#E53935"/>
<path d="M17.062 29.4254L13.0762 32.8849H25.6441V32.8736L17.062 29.4254Z" fill="#7CB342"/>
</svg>
