<svg width="31" height="36" viewBox="0 0 31 36" fill="none" xmlns="http://www.w3.org/2000/svg">
<path d="M16 28H7.5625C5.59499 28 4 26.4554 4 24.55V6.5M5.5 5H12.4335C12.808 5 13.1726 5.08562 13.5 5.24495M23 21V16.2245C23 15.922 22.9385 15.6252 22.8216 15.35M13.5 5.24495C13.7656 5.37423 14.0067 5.55202 14.2086 5.77196L22.4001 14.6964C22.579 14.8914 22.7209 15.1127 22.8216 15.35M13.5 5.24495V11.9C13.5 13.8054 15.095 15.35 17.0625 15.35H22.8216" stroke="#007ACC" stroke-width="3"/>
<g clip-path="url(#clip0_25_1260)">
<path d="M19.7939 26.7196H27.6819V32.5499H19.7939V26.7196Z" fill="white"/>
<path d="M18.1191 28.0579V33.0042H28.0117V23.1116H18.1191V28.0579ZM26.091 27.6622C26.3279 27.7171 26.5433 27.8411 26.7099 28.0183C26.8016 28.1138 26.8813 28.2201 26.9473 28.3349C26.9473 28.3475 26.5199 28.6364 26.2595 28.7978C26.25 28.8042 26.2121 28.763 26.1701 28.7005C26.1226 28.6185 26.055 28.5498 25.9738 28.501C25.8926 28.4521 25.8003 28.4247 25.7056 28.4211C25.4056 28.4005 25.2125 28.558 25.2141 28.8168C25.2117 28.8812 25.2264 28.9452 25.2568 29.002C25.3225 29.1389 25.4452 29.2204 25.8298 29.3866C26.5381 29.6913 26.8412 29.8923 27.0296 30.178C27.2401 30.4946 27.2868 31.0058 27.1443 31.3841C26.9861 31.7957 26.5983 32.075 26.0498 32.1676C25.7993 32.1963 25.5462 32.1937 25.2964 32.1597C24.9135 32.0966 24.5608 31.9128 24.2897 31.635C24.1987 31.5345 24.0214 31.2726 24.0325 31.2536C24.0614 31.232 24.0918 31.2127 24.1235 31.1958L24.49 30.9932L24.7741 30.8286L24.8334 30.9164C24.9336 31.0597 25.0611 31.1818 25.2086 31.2757C25.5251 31.4419 25.9572 31.419 26.1709 31.2267C26.2427 31.1562 26.2874 31.0628 26.2974 30.9627C26.3074 30.8626 26.2819 30.7622 26.2255 30.679C26.1464 30.569 25.9881 30.4764 25.5457 30.2833C25.0352 30.0633 24.8152 29.9272 24.6142 29.7103C24.4888 29.5672 24.3961 29.3984 24.3428 29.2157C24.303 29.007 24.2971 28.7932 24.3253 28.5826C24.4306 28.0895 24.8002 27.7453 25.3399 27.6432C25.5899 27.6123 25.8431 27.6192 26.091 27.6637V27.6622ZM23.769 28.0769V28.4821H22.4845V32.1407H21.5736V28.4813H20.286V28.0856C20.282 27.9491 20.2851 27.8125 20.2955 27.6764C20.3018 27.6693 21.0869 27.6693 22.0366 27.6693H23.7642L23.769 28.0769Z" fill="#007ACC"/>
</g>
<defs>
<clipPath id="clip0_25_1260">
<rect width="10.13" height="10.13" fill="white" transform="translate(18 23)"/>
</clipPath>
</defs>
</svg>
