<svg width="39" height="38" viewBox="0 0 39 38" fill="none" xmlns="http://www.w3.org/2000/svg">
<path d="M31.3208 10.0399H22.5834L19.7257 7.18225C18.9667 6.42323 17.9419 6 16.868 6H9.04004V10.0399H16.8715L19.7292 12.8976C20.4882 13.6566 21.5131 14.0799 22.5869 14.0799H30.4184L30.5 21.5H34.4583V13.1774C34.4583 11.446 33.0557 10.0399 31.3208 10.0399Z" fill="#B3261E"/>
<path d="M9.03991 10.0398H5V28.4171C5 30.1485 6.4026 31.5546 8.13749 31.5546H25V27.5147H9.03991V10.0398Z" fill="#B3261E"/>
<g clip-path="url(#clip0_31_447)">
<path d="M36.4668 31.0008C35.891 31.3016 32.909 32.5219 32.273 32.8571C31.6371 33.1922 31.2848 33.1836 30.7863 32.943C30.2879 32.7024 27.1168 31.4305 26.541 31.1555C26.2574 31.018 26.1113 30.9063 26.1113 30.7946V29.7031C26.1113 29.7031 30.2363 28.8008 30.9066 28.5688C31.577 28.3281 31.8004 28.3196 32.3676 28.5258C32.9348 28.7321 36.3293 29.3422 36.8879 29.5485V30.6227C36.8879 30.7344 36.759 30.8547 36.4668 31.0008Z" fill="#A41E11"/>
<path d="M36.4674 29.918C35.8917 30.2187 32.9096 31.4391 32.2737 31.7742C31.6378 32.1094 31.2854 32.1008 30.787 31.8602C30.2885 31.6195 27.1174 30.3391 26.5417 30.0641C25.9745 29.7891 25.9573 29.6 26.5159 29.3852C27.0745 29.1617 30.2284 27.9242 30.8987 27.6922C31.569 27.4516 31.7924 27.443 32.3596 27.6492C32.9268 27.8555 35.8917 29.0328 36.4503 29.2391C37.026 29.4453 37.0432 29.6172 36.4674 29.918Z" fill="#D82C20"/>
<path d="M36.4668 29.2305C35.891 29.5312 32.909 30.7516 32.273 31.0867C31.6371 31.4133 31.2848 31.4133 30.7863 31.1727C30.2879 30.932 27.1168 29.6516 26.541 29.3766C26.2574 29.2391 26.1113 29.1273 26.1113 29.0156V27.9242C26.1113 27.9242 30.2363 27.0219 30.9066 26.7898C31.577 26.5492 31.8004 26.5406 32.3676 26.7469C32.9348 26.9531 36.3293 27.5633 36.8879 27.7695V28.8437C36.8879 28.9555 36.759 29.0758 36.4668 29.2305Z" fill="#A41E11"/>
<path d="M36.4667 28.139C35.8909 28.4398 32.9089 29.6601 32.273 29.9953C31.637 30.3218 31.2847 30.3218 30.7862 30.0812C30.2878 29.8406 27.1167 28.5601 26.5409 28.2851C25.9651 28.0101 25.9565 27.8211 26.5151 27.6062C27.0737 27.3828 30.2276 26.1453 30.8979 25.9133C31.5683 25.6726 31.7917 25.664 32.3589 25.8703C32.9261 26.0765 35.8909 27.2539 36.4495 27.4601C37.0253 27.6664 37.0425 27.8383 36.4667 28.139Z" fill="#D82C20"/>
<path d="M36.4676 27.3828C35.8918 27.6836 32.9098 28.9039 32.2738 29.2391C31.6379 29.5656 31.2855 29.5656 30.7871 29.325C30.2887 29.093 27.1176 27.8125 26.5418 27.5375C26.2582 27.4 26.1035 27.2883 26.1035 27.1766V26.0852C26.1035 26.0852 30.2285 25.1828 30.8988 24.9508C31.5691 24.7102 31.7926 24.7016 32.3598 24.9078C32.927 25.1141 36.3215 25.7242 36.8801 25.9305V27.0047C36.8887 27.1164 36.7598 27.2281 36.4676 27.3828Z" fill="#A41E11"/>
<path d="M36.4667 26.2914C35.8909 26.5922 32.9089 27.8125 32.273 28.1476C31.637 28.4742 31.2847 28.4742 30.7862 28.2336C30.2878 27.993 27.1167 26.7211 26.5409 26.4461C25.9651 26.1711 25.9565 25.982 26.5151 25.7672C27.0737 25.5437 30.2276 24.3062 30.8979 24.0742C31.5683 23.8336 31.7917 23.825 32.3589 24.0312C32.9261 24.2375 35.8909 25.4148 36.4495 25.6211C37.0253 25.8273 37.0425 25.9992 36.4667 26.2914Z" fill="#D82C20"/>
<path d="M32.9098 25.243L31.9816 25.3461L31.7668 25.8445L31.4316 25.2859L30.3574 25.1914L31.1566 24.8992L30.916 24.4523L31.6723 24.7445L32.377 24.5125L32.1879 24.9766L32.9098 25.243ZM31.7152 27.6836L29.9707 26.9617L32.4715 26.5836L31.7152 27.6836Z" fill="white"/>
<path d="M29.2998 26.5578C30.0355 26.5578 30.6318 26.3269 30.6318 26.0422C30.6318 25.7574 30.0355 25.5266 29.2998 25.5266C28.5641 25.5266 27.9678 25.7574 27.9678 26.0422C27.9678 26.3269 28.5641 26.5578 29.2998 26.5578Z" fill="white"/>
<path d="M34.0176 25.3805L35.4957 25.9649L34.0176 26.5492V25.3805Z" fill="#7A0C00"/>
<path d="M32.3848 26.0336L34.0176 25.3805V26.5492L33.8543 26.618L32.3848 26.0336Z" fill="#AD2115"/>
</g>
<defs>
<clipPath id="clip0_31_447">
<rect width="11" height="11" fill="white" transform="translate(26 23)"/>
</clipPath>
</defs>
</svg>
