<svg width="39" height="38" viewBox="0 0 39 38" fill="none" xmlns="http://www.w3.org/2000/svg">
<path d="M31.3208 10.0399H22.5834L19.7257 7.18225C18.9667 6.42323 17.9419 6 16.868 6H9.04004V10.0399H16.8715L19.7292 12.8976C20.4882 13.6566 21.5131 14.0799 22.5869 14.0799H30.4184V20.5H34.4583V13.1774C34.4583 11.446 33.0557 10.0399 31.3208 10.0399Z" fill="#B3261E"/>
<path d="M9 19C7.4379 19 6.5 19.5 6 20C5.5 20.5 5 21 5 22C5 23 5 28.4171 5 28.4171C5 30.1485 6.4026 31.5546 8.13749 31.5546H24.5V27.5L9.03992 27.5147L9 19Z" fill="#B3261E"/>
<path d="M25.0004 24H21.0004V22H9.00037V19H21C22.6706 19 23.5351 19.5841 24 20C24.7003 20.6266 25.0557 21.2567 25.0557 22L25.0004 24Z" fill="#B3261E"/>
<g clip-path="url(#clip0_31_442)">
<path d="M36.4668 30.0008C35.891 30.3016 32.909 31.5219 32.273 31.8571C31.6371 32.1922 31.2848 32.1836 30.7863 31.943C30.2879 31.7024 27.1168 30.4305 26.541 30.1555C26.2574 30.018 26.1113 29.9063 26.1113 29.7946V28.7031C26.1113 28.7031 30.2363 27.8008 30.9066 27.5688C31.577 27.3281 31.8004 27.3196 32.3676 27.5258C32.9348 27.7321 36.3293 28.3422 36.8879 28.5485V29.6227C36.8879 29.7344 36.759 29.8547 36.4668 30.0008Z" fill="#A41E11"/>
<path d="M36.4674 28.918C35.8917 29.2187 32.9096 30.4391 32.2737 30.7742C31.6378 31.1094 31.2854 31.1008 30.787 30.8602C30.2885 30.6195 27.1174 29.3391 26.5417 29.0641C25.9745 28.7891 25.9573 28.6 26.5159 28.3852C27.0745 28.1617 30.2284 26.9242 30.8987 26.6922C31.569 26.4516 31.7924 26.443 32.3596 26.6492C32.9268 26.8555 35.8917 28.0328 36.4503 28.2391C37.026 28.4453 37.0432 28.6172 36.4674 28.918Z" fill="#D82C20"/>
<path d="M36.4668 28.2305C35.891 28.5312 32.909 29.7516 32.273 30.0867C31.6371 30.4133 31.2848 30.4133 30.7863 30.1727C30.2879 29.932 27.1168 28.6516 26.541 28.3766C26.2574 28.2391 26.1113 28.1273 26.1113 28.0156V26.9242C26.1113 26.9242 30.2363 26.0219 30.9066 25.7898C31.577 25.5492 31.8004 25.5406 32.3676 25.7469C32.9348 25.9531 36.3293 26.5633 36.8879 26.7695V27.8437C36.8879 27.9555 36.759 28.0758 36.4668 28.2305Z" fill="#A41E11"/>
<path d="M36.4667 27.139C35.8909 27.4398 32.9089 28.6601 32.273 28.9953C31.637 29.3218 31.2847 29.3218 30.7862 29.0812C30.2878 28.8406 27.1167 27.5601 26.5409 27.2851C25.9651 27.0101 25.9565 26.8211 26.5151 26.6062C27.0737 26.3828 30.2276 25.1453 30.8979 24.9133C31.5683 24.6726 31.7917 24.664 32.3589 24.8703C32.9261 25.0765 35.8909 26.2539 36.4495 26.4601C37.0253 26.6664 37.0425 26.8383 36.4667 27.139Z" fill="#D82C20"/>
<path d="M36.4676 26.3828C35.8918 26.6836 32.9098 27.9039 32.2738 28.2391C31.6379 28.5656 31.2855 28.5656 30.7871 28.325C30.2887 28.093 27.1176 26.8125 26.5418 26.5375C26.2582 26.4 26.1035 26.2883 26.1035 26.1766V25.0852C26.1035 25.0852 30.2285 24.1828 30.8988 23.9508C31.5691 23.7102 31.7926 23.7016 32.3598 23.9078C32.927 24.1141 36.3215 24.7242 36.8801 24.9305V26.0047C36.8887 26.1164 36.7598 26.2281 36.4676 26.3828Z" fill="#A41E11"/>
<path d="M36.4667 25.2914C35.8909 25.5922 32.9089 26.8125 32.273 27.1476C31.637 27.4742 31.2847 27.4742 30.7862 27.2336C30.2878 26.993 27.1167 25.7211 26.5409 25.4461C25.9651 25.1711 25.9565 24.982 26.5151 24.7672C27.0737 24.5437 30.2276 23.3062 30.8979 23.0742C31.5683 22.8336 31.7917 22.825 32.3589 23.0312C32.9261 23.2375 35.8909 24.4148 36.4495 24.6211C37.0253 24.8273 37.0425 24.9992 36.4667 25.2914Z" fill="#D82C20"/>
<path d="M32.9098 24.243L31.9816 24.3461L31.7668 24.8445L31.4316 24.2859L30.3574 24.1914L31.1566 23.8992L30.916 23.4523L31.6723 23.7445L32.377 23.5125L32.1879 23.9766L32.9098 24.243ZM31.7152 26.6836L29.9707 25.9617L32.4715 25.5836L31.7152 26.6836Z" fill="white"/>
<path d="M29.2998 25.5578C30.0355 25.5578 30.6318 25.3269 30.6318 25.0422C30.6318 24.7574 30.0355 24.5266 29.2998 24.5266C28.5641 24.5266 27.9678 24.7574 27.9678 25.0422C27.9678 25.3269 28.5641 25.5578 29.2998 25.5578Z" fill="white"/>
<path d="M34.0176 24.3805L35.4957 24.9649L34.0176 25.5492V24.3805Z" fill="#7A0C00"/>
<path d="M32.3848 25.0336L34.0176 24.3805V25.5492L33.8543 25.618L32.3848 25.0336Z" fill="#AD2115"/>
</g>
<defs>
<clipPath id="clip0_31_442">
<rect width="11" height="11" fill="white" transform="translate(26 22)"/>
</clipPath>
</defs>
</svg>
