<svg width="31" height="36" viewBox="0 0 31 36" fill="none" xmlns="http://www.w3.org/2000/svg">
<path d="M11 28H7.5625C5.59499 28 4 26.4554 4 24.55V6.5M5.5 5H12.4335C12.808 5 13.1726 5.08562 13.5 5.24495M23 18.5V16.2245C23 15.922 22.9385 15.6252 22.8216 15.35M13.5 5.24495C13.7656 5.37423 14.0067 5.55202 14.2086 5.77196L22.4001 14.6964C22.579 14.8914 22.7209 15.1127 22.8216 15.35M13.5 5.24495V11.9C13.5 13.8054 15.095 15.35 17.0625 15.35H22.8216" stroke="#007ACC" stroke-width="3"/>
<g clip-path="url(#clip0_25_1260)">
<path d="M14.834 24.875H27.2927V34.0837H14.834V24.875Z" fill="white"/>
<path d="M12.1875 26.9888V34.8013H27.8125V19.1763H12.1875V26.9888ZM24.7788 26.3638C25.153 26.4506 25.4931 26.6463 25.7563 26.9263C25.9011 27.0771 26.027 27.245 26.1313 27.4263C26.1313 27.4463 25.4563 27.9025 25.045 28.1575C25.03 28.1675 24.97 28.1025 24.9038 28.0038C24.8287 27.8742 24.722 27.7658 24.5937 27.6887C24.4654 27.6115 24.3196 27.5681 24.17 27.5625C23.6962 27.53 23.3913 27.7788 23.3938 28.1875C23.39 28.2893 23.4132 28.3902 23.4613 28.48C23.565 28.6963 23.7587 28.825 24.3663 29.0875C25.485 29.5688 25.9637 29.8863 26.2612 30.3375C26.5938 30.8375 26.6675 31.645 26.4425 32.2425C26.1925 32.8925 25.58 33.3338 24.7137 33.48C24.3181 33.5254 23.9184 33.5212 23.5238 33.4675C22.919 33.3678 22.3619 33.0775 21.9338 32.6388C21.79 32.48 21.51 32.0663 21.5275 32.0363C21.573 32.0023 21.6211 31.9718 21.6713 31.945L22.25 31.625L22.6987 31.365L22.7925 31.5038C22.9508 31.7301 23.1521 31.9229 23.385 32.0713C23.885 32.3338 24.5675 32.2975 24.905 31.9938C25.0183 31.8825 25.089 31.7349 25.1048 31.5769C25.1205 31.4188 25.0804 31.2603 24.9913 31.1288C24.8663 30.955 24.6162 30.8088 23.9175 30.5038C23.1112 30.1563 22.7638 29.9413 22.4462 29.5988C22.2481 29.3727 22.1018 29.1061 22.0175 28.8175C21.9547 28.4878 21.9454 28.1502 21.99 27.8175C22.1562 27.0388 22.74 26.495 23.5925 26.3338C23.9873 26.285 24.3872 26.296 24.7788 26.3663V26.3638ZM21.1112 27.0188V27.6588H19.0825V33.4375H17.6438V27.6575H15.61V27.0325C15.6036 26.817 15.6086 26.6013 15.625 26.3863C15.635 26.375 16.875 26.375 18.375 26.375H21.1038L21.1112 27.0188Z" fill="#007ACC"/>
</g>
<defs>
<clipPath id="clip0_25_1260">
<rect width="16" height="16" fill="white" transform="translate(12 19)"/>
</clipPath>
</defs>
</svg>
