<svg width="39" height="38" viewBox="0 0 39 38" fill="none" xmlns="http://www.w3.org/2000/svg">
<path d="M31.3208 10.0399H22.5834L19.7257 7.18225C18.9667 6.42323 17.9419 6 16.868 6H9.04004V10.0399H16.8715L19.7292 12.8976C20.4882 13.6566 21.5131 14.0799 22.5869 14.0799H30.4184L30.5 21.5H34.4583V13.1774C34.4583 11.446 33.0557 10.0399 31.3208 10.0399Z" fill="#CAC5CD" fill-opacity="0.45"/>
<path d="M9.03991 10.0398H5V28.4171C5 30.1485 6.4026 31.5546 8.13749 31.5546H25V27.5147H9.03991V10.0398Z" fill="#CAC5CD" fill-opacity="0.45"/>
<path d="M27.333 26.5C26.867 26.5 26.634 26.5 26.4505 26.424C26.3291 26.3737 26.2188 26.3001 26.1259 26.2071C26.033 26.1142 25.9593 26.0039 25.909 25.8825C25.833 25.699 25.833 25.466 25.833 25C25.833 24.534 25.833 24.301 25.909 24.1175C25.9593 23.9961 26.033 23.8858 26.1259 23.7929C26.2188 23.6999 26.3291 23.6263 26.4505 23.576C26.634 23.5 26.867 23.5 27.333 23.5H30.967C30.9451 23.5379 30.9258 23.5771 30.909 23.6175C30.833 23.801 30.833 24.034 30.833 24.5V26.5H27.333ZM35.833 25C35.833 25.466 35.833 25.699 35.757 25.8825C35.7068 26.0039 35.6331 26.1142 35.5401 26.2071C35.4472 26.3001 35.3369 26.3737 35.2155 26.424C35.032 26.5 34.799 26.5 34.333 26.5H33.833V24.5C33.833 24.034 33.833 23.801 33.757 23.6175C33.7403 23.5771 33.7209 23.5379 33.699 23.5H34.333C34.799 23.5 35.032 23.5 35.2155 23.576C35.3369 23.6263 35.4472 23.6999 35.5401 23.7929C35.6331 23.8858 35.7068 23.9961 35.757 24.1175C35.833 24.301 35.833 24.534 35.833 25Z" fill="#E73A38"/>
<path d="M33.757 32.3825C33.833 32.199 33.833 31.966 33.833 31.5V29.5H34.333C34.799 29.5 35.032 29.5 35.2155 29.576C35.3369 29.6263 35.4472 29.6999 35.5401 29.7929C35.6331 29.8858 35.7068 29.9961 35.757 30.1175C35.833 30.301 35.833 30.534 35.833 31C35.833 31.466 35.833 31.699 35.757 31.8825C35.7068 32.0039 35.6331 32.1142 35.5401 32.2071C35.4472 32.3001 35.3369 32.3737 35.2155 32.424C35.032 32.5 34.799 32.5 34.333 32.5H33.699C33.721 32.4623 33.7403 32.4232 33.757 32.3825ZM30.967 32.5H27.333C26.867 32.5 26.634 32.5 26.4505 32.424C26.3291 32.3737 26.2188 32.3001 26.1259 32.2071C26.033 32.1142 25.9593 32.0039 25.909 31.8825C25.833 31.699 25.833 31.466 25.833 31C25.833 30.534 25.833 30.301 25.909 30.1175C25.9593 29.9961 26.033 29.8858 26.1259 29.7929C26.2188 29.6999 26.3291 29.6263 26.4505 29.576C26.634 29.5 26.867 29.5 27.333 29.5H30.833V31.5C30.833 31.966 30.833 32.199 30.909 32.3825C30.9257 32.4232 30.945 32.4623 30.967 32.5Z" fill="#199A5A"/>
<path d="M33.833 26.5H34.333C34.799 26.5 35.032 26.5 35.2155 26.576C35.3369 26.6263 35.4472 26.6999 35.5401 26.7929C35.6331 26.8858 35.7068 26.9961 35.757 27.1175C35.833 27.301 35.833 27.534 35.833 28C35.833 28.466 35.833 28.699 35.757 28.8825C35.7068 29.0039 35.6331 29.1142 35.5401 29.2071C35.4472 29.3001 35.3369 29.3737 35.2155 29.424C35.032 29.5 34.799 29.5 34.333 29.5H33.833V26.5ZM30.833 26.5V29.5H27.333C26.867 29.5 26.634 29.5 26.4505 29.424C26.3291 29.3737 26.2188 29.3001 26.1259 29.2071C26.033 29.1142 25.9593 29.0039 25.909 28.8825C25.833 28.699 25.833 28.466 25.833 28C25.833 27.534 25.833 27.301 25.909 27.1175C25.9593 26.9961 26.033 26.8858 26.1259 26.7929C26.2188 26.6999 26.3291 26.6263 26.4505 26.576C26.634 26.5 26.867 26.5 27.333 26.5H30.833Z" fill="#3F7DE8"/>
<path fill-rule="evenodd" clip-rule="evenodd" d="M33.757 23.6175C33.833 23.801 33.833 24.034 33.833 24.5V31.5C33.833 31.966 33.833 32.199 33.757 32.3825C33.7068 32.5039 33.6331 32.6142 33.5401 32.7071C33.4472 32.8001 33.3369 32.8737 33.2155 32.924C33.032 33 32.799 33 32.333 33C31.867 33 31.634 33 31.4505 32.924C31.3291 32.8737 31.2188 32.8001 31.1259 32.7071C31.033 32.6142 30.9593 32.5039 30.909 32.3825C30.833 32.199 30.833 31.966 30.833 31.5V24.5C30.833 24.034 30.833 23.801 30.909 23.6175C30.9257 23.5768 30.945 23.5377 30.967 23.5C31.0771 23.3093 31.2471 23.1602 31.4505 23.076C31.634 23 31.867 23 32.333 23C32.799 23 33.032 23 33.2155 23.076C33.3369 23.1263 33.4472 23.1999 33.5401 23.2929C33.6331 23.3858 33.7068 23.4961 33.757 23.6175ZM32.708 27.5C32.708 27.4005 32.6685 27.3052 32.5982 27.2348C32.5278 27.1645 32.4325 27.125 32.333 27.125C32.2336 27.125 32.1382 27.1645 32.0678 27.2348C31.9975 27.3052 31.958 27.4005 31.958 27.5V28.5C31.958 28.5995 31.9975 28.6948 32.0678 28.7652C32.1382 28.8355 32.2336 28.875 32.333 28.875C32.4325 28.875 32.5278 28.8355 32.5982 28.7652C32.6685 28.6948 32.708 28.5995 32.708 28.5V27.5Z" fill="#FBA953"/>
</svg>
