<svg width="39" height="38" viewBox="0 0 39 38" fill="none" xmlns="http://www.w3.org/2000/svg">
<path d="M31.3208 10.0399H22.5834L19.7257 7.18225C18.9667 6.42323 17.9419 6 16.868 6H9.04004V10.0399H16.8715L19.7292 12.8976C20.4882 13.6566 21.5131 14.0799 22.5869 14.0799H30.4184V20.5H34.4583V13.1774C34.4583 11.446 33.0557 10.0399 31.3208 10.0399Z" fill="#CAC5CD" fill-opacity="0.45"/>
<path d="M9 19C7.4379 19 6.5 19.5 6 20C5.5 20.5 5 21 5 22C5 23 5 28.4171 5 28.4171C5 30.1485 6.4026 31.5546 8.13749 31.5546H24.5V27.5L9.03992 27.5147L9 19Z" fill="#CAC5CD" fill-opacity="0.45"/>
<path d="M25.0004 24H21.0004V22H9.00037V19H21C22.6706 19 23.5351 19.5841 24 20C24.7003 20.6266 25.0557 21.2567 25.0557 22L25.0004 24Z" fill="#CAC5CD" fill-opacity="0.45"/>
<path d="M27.333 25.5C26.867 25.5 26.634 25.5 26.4505 25.424C26.3291 25.3737 26.2188 25.3001 26.1259 25.2071C26.033 25.1142 25.9593 25.0039 25.909 24.8825C25.833 24.699 25.833 24.466 25.833 24C25.833 23.534 25.833 23.301 25.909 23.1175C25.9593 22.9961 26.033 22.8858 26.1259 22.7929C26.2188 22.6999 26.3291 22.6263 26.4505 22.576C26.634 22.5 26.867 22.5 27.333 22.5H30.967C30.9451 22.5379 30.9258 22.5771 30.909 22.6175C30.833 22.801 30.833 23.034 30.833 23.5V25.5H27.333ZM35.833 24C35.833 24.466 35.833 24.699 35.757 24.8825C35.7068 25.0039 35.6331 25.1142 35.5401 25.2071C35.4472 25.3001 35.3369 25.3737 35.2155 25.424C35.032 25.5 34.799 25.5 34.333 25.5H33.833V23.5C33.833 23.034 33.833 22.801 33.757 22.6175C33.7403 22.5771 33.7209 22.5379 33.699 22.5H34.333C34.799 22.5 35.032 22.5 35.2155 22.576C35.3369 22.6263 35.4472 22.6999 35.5401 22.7929C35.6331 22.8858 35.7068 22.9961 35.757 23.1175C35.833 23.301 35.833 23.534 35.833 24Z" fill="#E73A38"/>
<path d="M33.757 31.3825C33.833 31.199 33.833 30.966 33.833 30.5V28.5H34.333C34.799 28.5 35.032 28.5 35.2155 28.576C35.3369 28.6263 35.4472 28.6999 35.5401 28.7929C35.6331 28.8858 35.7068 28.9961 35.757 29.1175C35.833 29.301 35.833 29.534 35.833 30C35.833 30.466 35.833 30.699 35.757 30.8825C35.7068 31.0039 35.6331 31.1142 35.5401 31.2071C35.4472 31.3001 35.3369 31.3737 35.2155 31.424C35.032 31.5 34.799 31.5 34.333 31.5H33.699C33.721 31.4623 33.7403 31.4232 33.757 31.3825ZM30.967 31.5H27.333C26.867 31.5 26.634 31.5 26.4505 31.424C26.3291 31.3737 26.2188 31.3001 26.1259 31.2071C26.033 31.1142 25.9593 31.0039 25.909 30.8825C25.833 30.699 25.833 30.466 25.833 30C25.833 29.534 25.833 29.301 25.909 29.1175C25.9593 28.9961 26.033 28.8858 26.1259 28.7929C26.2188 28.6999 26.3291 28.6263 26.4505 28.576C26.634 28.5 26.867 28.5 27.333 28.5H30.833V30.5C30.833 30.966 30.833 31.199 30.909 31.3825C30.9257 31.4232 30.945 31.4623 30.967 31.5Z" fill="#199A5A"/>
<path d="M33.833 25.5H34.333C34.799 25.5 35.032 25.5 35.2155 25.576C35.3369 25.6263 35.4472 25.6999 35.5401 25.7929C35.6331 25.8858 35.7068 25.9961 35.757 26.1175C35.833 26.301 35.833 26.534 35.833 27C35.833 27.466 35.833 27.699 35.757 27.8825C35.7068 28.0039 35.6331 28.1142 35.5401 28.2071C35.4472 28.3001 35.3369 28.3737 35.2155 28.424C35.032 28.5 34.799 28.5 34.333 28.5H33.833V25.5ZM30.833 25.5V28.5H27.333C26.867 28.5 26.634 28.5 26.4505 28.424C26.3291 28.3737 26.2188 28.3001 26.1259 28.2071C26.033 28.1142 25.9593 28.0039 25.909 27.8825C25.833 27.699 25.833 27.466 25.833 27C25.833 26.534 25.833 26.301 25.909 26.1175C25.9593 25.9961 26.033 25.8858 26.1259 25.7929C26.2188 25.6999 26.3291 25.6263 26.4505 25.576C26.634 25.5 26.867 25.5 27.333 25.5H30.833Z" fill="#3F7DE8"/>
<path fill-rule="evenodd" clip-rule="evenodd" d="M33.757 22.6175C33.833 22.801 33.833 23.034 33.833 23.5V30.5C33.833 30.966 33.833 31.199 33.757 31.3825C33.7068 31.5039 33.6331 31.6142 33.5401 31.7071C33.4472 31.8001 33.3369 31.8737 33.2155 31.924C33.032 32 32.799 32 32.333 32C31.867 32 31.634 32 31.4505 31.924C31.3291 31.8737 31.2188 31.8001 31.1259 31.7071C31.033 31.6142 30.9593 31.5039 30.909 31.3825C30.833 31.199 30.833 30.966 30.833 30.5V23.5C30.833 23.034 30.833 22.801 30.909 22.6175C30.9257 22.5768 30.945 22.5377 30.967 22.5C31.0771 22.3093 31.2471 22.1602 31.4505 22.076C31.634 22 31.867 22 32.333 22C32.799 22 33.032 22 33.2155 22.076C33.3369 22.1263 33.4472 22.1999 33.5401 22.2929C33.6331 22.3858 33.7068 22.4961 33.757 22.6175ZM32.708 26.5C32.708 26.4005 32.6685 26.3052 32.5982 26.2348C32.5278 26.1645 32.4325 26.125 32.333 26.125C32.2336 26.125 32.1382 26.1645 32.0678 26.2348C31.9975 26.3052 31.958 26.4005 31.958 26.5V27.5C31.958 27.5995 31.9975 27.6948 32.0678 27.7652C32.1382 27.8355 32.2336 27.875 32.333 27.875C32.4325 27.875 32.5278 27.8355 32.5982 27.7652C32.6685 27.6948 32.708 27.5995 32.708 27.5V26.5Z" fill="#FBA953"/>
</svg>
