<svg width="31" height="36" viewBox="0 0 31 36" fill="none" xmlns="http://www.w3.org/2000/svg">
<path d="M11 28H7.5625C5.59499 28 4 26.4554 4 24.55V6.5M5.5 5H12.4335C12.808 5 13.1726 5.08562 13.5 5.24495M23 18.5V16.2245C23 15.922 22.9385 15.6252 22.8216 15.35M13.5 5.24495C13.7656 5.37423 14.0067 5.55202 14.2086 5.77196L22.4001 14.6964C22.579 14.8914 22.7209 15.1127 22.8216 15.35M13.5 5.24495V11.9C13.5 13.8054 15.095 15.35 17.0625 15.35H22.8216" stroke="#329BFF" stroke-width="3"/>
<path d="M12.5938 21.9844C12.5938 21.3503 12.8456 20.7423 13.2939 20.2939C13.7423 19.8456 14.3503 19.5938 14.9844 19.5938H24.0156C24.6497 19.5938 25.2577 19.8456 25.7061 20.2939C26.1544 20.7423 26.4062 21.3503 26.4062 21.9844V31.0156C26.4062 31.6497 26.1544 32.2577 25.7061 32.7061C25.2577 33.1544 24.6497 33.4062 24.0156 33.4062H14.9844C14.3503 33.4062 13.7423 33.1544 13.2939 32.7061C12.8456 32.2577 12.5938 31.6497 12.5938 31.0156V21.9844Z" fill="url(#paint0_radial_25_1290)"/>
<path d="M26.0638 32.2481C25.8512 32.6014 25.5509 32.8938 25.1919 33.0967C24.833 33.2996 24.4276 33.4063 24.0153 33.4063H14.984C14.5717 33.4063 14.1664 33.2996 13.8074 33.0967C13.4485 32.8938 13.1481 32.6014 12.9355 32.2481L18.5604 26.6233C18.6838 26.4999 18.8302 26.402 18.9913 26.3353C19.1525 26.2685 19.3252 26.2341 19.4997 26.2341C19.6741 26.2341 19.8468 26.2685 20.008 26.3353C20.1692 26.402 20.3156 26.4999 20.4389 26.6233L26.0638 32.2481Z" fill="url(#paint1_linear_25_1290)"/>
<path d="M21.0938 23.8438C21.0937 23.6345 21.135 23.4272 21.2151 23.2338C21.2952 23.0405 21.4126 22.8648 21.5605 22.7168C21.7085 22.5688 21.8842 22.4514 22.0776 22.3713C22.271 22.2912 22.4782 22.25 22.6875 22.25C22.8968 22.25 23.104 22.2912 23.2974 22.3713C23.4908 22.4514 23.6665 22.5688 23.8145 22.7168C23.9624 22.8648 24.0798 23.0405 24.1599 23.2338C24.24 23.4272 24.2812 23.6345 24.2812 23.8438C24.2812 24.2664 24.1133 24.6718 23.8145 24.9707C23.5156 25.2696 23.1102 25.4375 22.6875 25.4375C22.2648 25.4375 21.8594 25.2696 21.5605 24.9707C21.2617 24.6718 21.0938 24.2664 21.0938 23.8438Z" fill="url(#paint2_linear_25_1290)"/>
<defs>
<radialGradient id="paint0_radial_25_1290" cx="0" cy="0" r="1" gradientUnits="userSpaceOnUse" gradientTransform="translate(7.16726 11.8243) rotate(51.687) scale(38.1938 34.7399)">
<stop offset="0.338" stop-color="#0FAFFF"/>
<stop offset="0.529" stop-color="#367AF2"/>
</radialGradient>
<linearGradient id="paint1_linear_25_1290" x1="17.6238" y1="26.2344" x2="19.2898" y2="33.7638" gradientUnits="userSpaceOnUse">
<stop stop-color="#B3E0FF"/>
<stop offset="1" stop-color="#8CD0FF"/>
</linearGradient>
<linearGradient id="paint2_linear_25_1290" x1="22.05" y1="21.8957" x2="23.2145" y2="26.0883" gradientUnits="userSpaceOnUse">
<stop stop-color="#FDFDFD"/>
<stop offset="1" stop-color="#B3E0FF"/>
</linearGradient>
</defs>
</svg>
