<svg width="39" height="38" viewBox="0 0 39 38" fill="none" xmlns="http://www.w3.org/2000/svg">
<path d="M31.3208 10.0399H22.5834L19.7257 7.18225C18.9667 6.42323 17.9419 6 16.868 6H9.04004V10.0399H16.8715L19.7292 12.8976C20.4882 13.6566 21.5131 14.0799 22.5869 14.0799H30.4184L30.5 21.5H34.4583V13.1774C34.4583 11.446 33.0557 10.0399 31.3208 10.0399Z" fill="#CAC5CD"/>
<path d="M9.03991 10.0398H5V28.4171C5 30.1485 6.4026 31.5546 8.13749 31.5546H25V27.5147H9.03991V10.0398Z" fill="#CAC5CD"/>
<path d="M31 23C30.3434 23 29.6932 23.1293 29.0866 23.3806C28.48 23.6319 27.9288 24.0002 27.4645 24.4645C26.5268 25.4021 26 26.6739 26 28C26 30.21 27.435 32.085 29.42 32.75C29.67 32.79 29.75 32.635 29.75 32.5V31.655C28.365 31.955 28.07 30.985 28.07 30.985C27.84 30.405 27.515 30.25 27.515 30.25C27.06 29.94 27.55 29.95 27.55 29.95C28.05 29.985 28.315 30.465 28.315 30.465C28.75 31.225 29.485 31 29.77 30.88C29.815 30.555 29.945 30.335 30.085 30.21C28.975 30.085 27.81 29.655 27.81 27.75C27.81 27.195 28 26.75 28.325 26.395C28.275 26.27 28.1 25.75 28.375 25.075C28.375 25.075 28.795 24.94 29.75 25.585C30.145 25.475 30.575 25.42 31 25.42C31.425 25.42 31.855 25.475 32.25 25.585C33.205 24.94 33.625 25.075 33.625 25.075C33.9 25.75 33.725 26.27 33.675 26.395C34 26.75 34.19 27.195 34.19 27.75C34.19 29.66 33.02 30.08 31.905 30.205C32.085 30.36 32.25 30.665 32.25 31.13V32.5C32.25 32.635 32.33 32.795 32.585 32.75C34.57 32.08 36 30.21 36 28C36 27.3434 35.8707 26.6932 35.6194 26.0866C35.3681 25.48 34.9998 24.9288 34.5355 24.4645C34.0712 24.0002 33.52 23.6319 32.9134 23.3806C32.3068 23.1293 31.6566 23 31 23Z" fill="black"/>
</svg>
