<svg width="39" height="38" viewBox="0 0 39 38" fill="none" xmlns="http://www.w3.org/2000/svg">
<path d="M31.3208 10.0399H22.5834L19.7257 7.18225C18.9667 6.42323 17.9419 6 16.868 6H9.04004V10.0399H16.8715L19.7292 12.8976C20.4882 13.6566 21.5131 14.0799 22.5869 14.0799H30.4184V20.5H34.4583V13.1774C34.4583 11.446 33.0557 10.0399 31.3208 10.0399Z" fill="#CAC5CD"/>
<path d="M9 19C7.4379 19 6.5 19.5 6 20C5.5 20.5 5 21 5 22C5 23 5 28.4171 5 28.4171C5 30.1485 6.4026 31.5546 8.13749 31.5546H24.5V27.5L9.03992 27.5147L9 19Z" fill="#CAC5CD"/>
<path d="M25.0004 24H21.0004V22H9.00037V19H21C22.6706 19 23.5351 19.5841 24 20C24.7003 20.6266 25.0557 21.2567 25.0557 22L25.0004 24Z" fill="#CAC5CD"/>
<path d="M31.4997 22.0833C30.7883 22.0833 30.084 22.2234 29.4268 22.4956C28.7696 22.7678 28.1725 23.1668 27.6695 23.6698C26.6537 24.6856 26.083 26.0634 26.083 27.5C26.083 29.8941 27.6376 31.9254 29.788 32.6458C30.0588 32.6891 30.1455 32.5212 30.1455 32.375V31.4596C28.6451 31.7846 28.3255 30.7337 28.3255 30.7337C28.0763 30.1054 27.7243 29.9375 27.7243 29.9375C27.2313 29.6016 27.7622 29.6125 27.7622 29.6125C28.3038 29.6504 28.5909 30.1704 28.5909 30.1704C29.0622 30.9937 29.8584 30.75 30.1672 30.62C30.2159 30.2679 30.3568 30.0296 30.5084 29.8941C29.3059 29.7587 28.0438 29.2929 28.0438 27.2291C28.0438 26.6279 28.2497 26.1458 28.6018 25.7612C28.5476 25.6258 28.358 25.0625 28.6559 24.3312C28.6559 24.3312 29.1109 24.185 30.1455 24.8837C30.5734 24.7646 31.0393 24.705 31.4997 24.705C31.9601 24.705 32.4259 24.7646 32.8538 24.8837C33.8884 24.185 34.3434 24.3312 34.3434 24.3312C34.6413 25.0625 34.4518 25.6258 34.3976 25.7612C34.7497 26.1458 34.9555 26.6279 34.9555 27.2291C34.9555 29.2983 33.688 29.7533 32.4801 29.8887C32.6751 30.0566 32.8538 30.3871 32.8538 30.8908V32.375C32.8538 32.5212 32.9405 32.6946 33.2168 32.6458C35.3672 31.92 36.9163 29.8941 36.9163 27.5C36.9163 26.7887 36.7762 26.0843 36.504 25.4271C36.2318 24.7699 35.8328 24.1728 35.3298 23.6698C34.8269 23.1668 34.2297 22.7678 33.5725 22.4956C32.9154 22.2234 32.211 22.0833 31.4997 22.0833Z" fill="black"/>
</svg>
