<svg width="31" height="36" viewBox="0 0 31 36" fill="none" xmlns="http://www.w3.org/2000/svg">
<path d="M11 28H7.5625C5.59499 28 4 26.4554 4 24.55V6.5M5.5 5H12.4335C12.808 5 13.1726 5.08562 13.5 5.24495M23 18.5V16.2245C23 15.922 22.9385 15.6252 22.8216 15.35M13.5 5.24495C13.7656 5.37423 14.0067 5.55202 14.2086 5.77196L22.4001 14.6964C22.579 14.8914 22.7209 15.1127 22.8216 15.35M13.5 5.24495V11.9C13.5 13.8054 15.095 15.35 17.0625 15.35H22.8216" stroke="#6675EA" stroke-width="3"/>
<path d="M17.7466 30.5162C17.7466 30.5162 17.1781 30.8467 18.1509 30.9588C19.1773 31.1034 20.2216 31.0592 21.2321 30.8281C21.4927 30.9846 21.7662 31.1184 22.0497 31.2281C19.1379 32.476 15.4595 31.1559 17.7466 30.5168M17.3885 28.8874C17.3885 28.8874 16.751 29.3592 17.7248 29.4601C19.0509 29.618 20.3941 29.5536 21.6991 29.2694C21.8753 29.4341 22.0837 29.5607 22.3111 29.6413C18.7905 30.6708 14.8688 29.7225 17.3885 28.8864" fill="#5382A1"/>
<path d="M20.3887 26.1249C20.4832 26.2388 20.5534 26.3707 20.5952 26.5125C20.637 26.6544 20.6494 26.8033 20.6318 26.9501C20.6141 27.097 20.5667 27.2387 20.4925 27.3666C20.4183 27.4945 20.3188 27.606 20.2001 27.6942C20.2001 27.6942 22.0218 26.7539 21.1851 25.5762C20.4036 24.4781 19.8038 23.9319 23.0487 22.0508C23.0487 22.0508 17.9561 23.3226 20.3887 26.1249Z" fill="#E76F00"/>
<path d="M24.2401 31.7206C24.2401 31.7206 24.6608 32.0669 23.7768 32.3352C22.096 32.8442 16.7813 32.9982 15.3045 32.3554C14.7732 32.1243 15.7688 31.804 16.0822 31.737C16.2501 31.696 16.4226 31.6767 16.5954 31.6797C16.0052 31.2637 12.7805 32.4962 14.9576 32.8484C20.8948 33.811 25.7802 32.4154 24.2401 31.7206ZM18.0186 27.2002C18.0186 27.2002 15.3151 27.8424 17.0624 28.0757C18.2531 28.1687 19.4497 28.1559 20.6382 28.0374C21.3893 27.9692 22.1374 27.8708 22.8806 27.7426C22.6445 27.8454 22.4171 27.9671 22.2006 28.1065C19.4541 28.8279 14.1506 28.4922 15.6753 27.7532C16.4004 27.3846 17.2031 27.1948 18.0165 27.1996M22.8684 29.9111C25.6591 28.4608 24.3686 27.0674 23.4682 27.2549C23.3599 27.2751 23.2533 27.3037 23.1494 27.3404C23.2086 27.2565 23.2918 27.1925 23.388 27.1566C25.1698 26.5303 26.5399 29.0043 22.8126 29.9839C22.8355 29.963 22.8546 29.9381 22.8689 29.9106" fill="#5382A1"/>
<path d="M21.1851 19.0125C21.1851 19.0125 22.7305 20.5585 19.7194 22.9363C17.3043 24.8435 19.1685 25.931 19.7194 27.1731C18.31 25.9013 17.2756 24.7824 17.9694 23.7396C18.9878 22.2101 21.8098 21.4685 21.1867 19.0115" fill="#E76F00"/>
<path d="M18.2921 33.8408C20.9707 34.0124 25.0847 33.7457 25.1819 32.4781C25.1819 32.4781 24.9944 32.9563 22.9682 33.3404C20.7276 33.7251 18.441 33.7609 16.1895 33.4466C16.1895 33.4466 16.5321 33.7298 18.2927 33.8429" fill="#5382A1"/>
</svg>
