<svg width="31" height="36" viewBox="0 0 31 36" fill="none" xmlns="http://www.w3.org/2000/svg">
<path d="M11 28H7.5625C5.59499 28 4 26.4554 4 24.55V6.5M5.5 5H12.4335C12.808 5 13.1726 5.08562 13.5 5.24495M23 18.5V16.2245C23 15.922 22.9385 15.6252 22.8216 15.35M13.5 5.24495C13.7656 5.37423 14.0067 5.55202 14.2086 5.77196L22.4001 14.6964C22.579 14.8914 22.7209 15.1127 22.8216 15.35M13.5 5.24495V11.9C13.5 13.8054 15.095 15.35 17.0625 15.35H22.8216" stroke="#777BB3" stroke-width="3"/>
<g clip-path="url(#clip0_25_1215)">
<path fill-rule="evenodd" clip-rule="evenodd" d="M20.5004 28V34C18.6313 33.9989 16.8301 33.2999 15.4495 32.0401C14.0689 30.7803 13.2084 29.0503 13.0366 27.1892C12.8649 25.3281 13.3942 23.4699 14.521 21.9787C15.6477 20.4875 17.2906 19.4707 19.1279 19.1275L20.5004 20.5H24.2504C25.2436 20.5 26.1963 20.8941 26.8994 21.5957C27.6024 22.2973 27.9984 23.2492 28.0004 24.2425V31.0075C27.9984 31.8019 27.6814 32.563 27.119 33.124C26.5566 33.685 25.7947 34 25.0004 34V32.5C25.3982 32.5 25.7797 32.342 26.061 32.0607C26.3423 31.7794 26.5004 31.3978 26.5004 31C26.5004 30.6022 26.3423 30.2206 26.061 29.9393C25.7797 29.658 25.3982 29.5 25.0004 29.5H22.0004L20.5004 28ZM24.6254 25.75C24.9237 25.75 25.2099 25.6315 25.4209 25.4205C25.6318 25.2095 25.7504 24.9234 25.7504 24.625C25.7504 24.3266 25.6318 24.0405 25.4209 23.8295C25.2099 23.6185 24.9237 23.5 24.6254 23.5C24.327 23.5 24.0408 23.6185 23.8299 23.8295C23.6189 24.0405 23.5004 24.3266 23.5004 24.625C23.5004 24.9234 23.6189 25.2095 23.8299 25.4205C24.0408 25.6315 24.327 25.75 24.6254 25.75Z" fill="#777BB3"/>
</g>
<defs>
<clipPath id="clip0_25_1215">
<rect width="15" height="15" fill="white" transform="translate(13 19)"/>
</clipPath>
</defs>
</svg>
