<svg width="39" height="38" viewBox="0 0 39 38" fill="none" xmlns="http://www.w3.org/2000/svg">
<path d="M31.3208 10.0399H22.5834L19.7257 7.18225C18.9667 6.42323 17.9419 6 16.868 6H9.04004V10.0399H16.8715L19.7292 12.8976C20.4882 13.6566 21.5131 14.0799 22.5869 14.0799H30.4184V20.5H34.4583V13.1774C34.4583 11.446 33.0557 10.0399 31.3208 10.0399Z" fill="#CAC5CD"/>
<path d="M9 19C7.4379 19 6.5 19.5 6 20C5.5 20.5 5 21 5 22C5 23 5 28.4171 5 28.4171C5 30.1485 6.4026 31.5546 8.13749 31.5546H24.5V27.5L9.03992 27.5147L9 19Z" fill="#CAC5CD"/>
<path d="M25.0004 24H21.0004V22H9.00037V19H21C22.6706 19 23.5351 19.5841 24 20C24.7003 20.6266 25.0557 21.2567 25.0557 22L25.0004 24Z" fill="#CAC5CD"/>
<path d="M31.5 28.3333C31.8409 28.3333 32.1679 28.1929 32.409 27.9428C32.6501 27.6928 32.7855 27.3536 32.7855 27C32.7855 26.6464 32.6501 26.3072 32.409 26.0572C32.1679 25.8071 31.8409 25.6667 31.5 25.6667C31.1591 25.6667 30.8321 25.8071 30.591 26.0572C30.3499 26.3072 30.2145 26.6464 30.2145 27C30.2145 27.3536 30.3499 27.6928 30.591 27.9428C30.8321 28.1929 31.1591 28.3333 31.5 28.3333ZM33.75 23L36 27L33.75 31H29.25L27 27L29.25 23H33.75Z" stroke="#8087A2" stroke-width="1.08328" stroke-linecap="round" stroke-linejoin="round"/>
</svg>
