<svg width="39" height="38" viewBox="0 0 39 38" fill="none" xmlns="http://www.w3.org/2000/svg">
<path d="M31.3208 10.0399H22.5834L19.7257 7.18225C18.9667 6.42323 17.9419 6 16.868 6H9.04004V10.0399H16.8715L19.7292 12.8976C20.4882 13.6566 21.5131 14.0799 22.5869 14.0799H30.4184L30.5 21.5H34.4583V13.1774C34.4583 11.446 33.0557 10.0399 31.3208 10.0399Z" fill="#CAC5CD"/>
<path d="M9.03991 10.0398H5V28.4171C5 30.1485 6.4026 31.5546 8.13749 31.5546H25V27.5147H9.03991V10.0398Z" fill="#CAC5CD"/>
<path d="M32 29.3333C32.3788 29.3333 32.7421 29.1929 33.01 28.9428C33.2779 28.6928 33.4283 28.3536 33.4283 28C33.4283 27.6464 33.2779 27.3072 33.01 27.0572C32.7421 26.8071 32.3788 26.6667 32 26.6667C31.6212 26.6667 31.2579 26.8071 30.99 27.0572C30.7221 27.3072 30.5717 27.6464 30.5717 28C30.5717 28.3536 30.7221 28.6928 30.99 28.9428C31.2579 29.1929 31.6212 29.3333 32 29.3333ZM34.5 24L37 28L34.5 32H29.5L27 28L29.5 24H34.5Z" stroke="#8087A2" stroke-width="1.08328" stroke-linecap="round" stroke-linejoin="round"/>
</svg>
