<svg width="39" height="38" viewBox="0 0 39 38" fill="none" xmlns="http://www.w3.org/2000/svg">
<path d="M31.3208 10.0399H22.5834L19.7257 7.18225C18.9667 6.42323 17.9419 6 16.868 6H9.04004V10.0399H16.8715L19.7292 12.8976C20.4882 13.6566 21.5131 14.0799 22.5869 14.0799H30.4184V27.5195H34.5L34.4583 13.1774C34.4583 11.446 33.0557 10.0399 31.3208 10.0399Z" fill="#3755FA"/>
<path d="M9 19C7.4379 19 6.5 19.5 6 20C5.5 20.5 5 21 5 22C5 23 5 28.4171 5 28.4171C5 30.1485 6.4026 31.5546 8.13749 31.5546H30.4219V27.5147H9.03992L9 19Z" fill="#3755FA"/>
<path d="M25.9999 24H22.6395V22H9V19H22.2223C23.8929 19 24.5907 19.5841 25.0556 20C25.7559 20.6266 26 21.2567 26 22L25.9999 24Z" fill="#3755FA"/>
</svg>
