<svg width="31" height="36" viewBox="0 0 31 36" fill="none" xmlns="http://www.w3.org/2000/svg">
<path d="M11 28H7.5625C5.59499 28 4 26.4554 4 24.55V6.5M5.5 5H12.4335C12.808 5 13.1726 5.08562 13.5 5.24495M23 18.5V16.2245C23 15.922 22.9385 15.6252 22.8216 15.35M13.5 5.24495C13.7656 5.37423 14.0067 5.55202 14.2086 5.77196L22.4001 14.6964C22.579 14.8914 22.7209 15.1127 22.8216 15.35M13.5 5.24495V11.9C13.5 13.8054 15.095 15.35 17.0625 15.35H22.8216" stroke="#EC407A" stroke-width="3"/>
<path d="M25.9187 21.8365C25.8336 21.5433 25.6875 21.2714 25.4899 21.0386C25.2923 20.8059 25.0477 20.6175 24.7722 20.486C23.5912 19.8555 21.7172 19.837 19.9982 20.44C18.3919 20.9778 16.9046 21.8209 15.6182 22.923C14.2422 24.194 13.8992 25.3855 14.0237 26.02C14.2852 27.354 15.6607 28.2895 16.7662 29.041C16.9752 29.183 17.1772 29.3205 17.3537 29.449C16.6392 29.829 15.2232 30.671 14.8097 31.573C14.6766 31.8289 14.6023 32.1111 14.5921 32.3993C14.5819 32.6875 14.6361 32.9744 14.7507 33.239C14.8128 33.3905 14.9057 33.5274 15.0234 33.6411C15.1412 33.7549 15.2812 33.843 15.4347 33.9C15.6774 33.9667 15.928 34.0003 16.1797 34C16.6957 33.9908 17.2017 33.856 17.6539 33.6071C18.1061 33.3583 18.4908 33.003 18.7747 32.572C19.0301 32.1783 19.2005 31.7355 19.2748 31.2721C19.3492 30.8087 19.326 30.3349 19.2067 29.881C19.5449 29.8281 19.889 29.823 20.2287 29.866C20.4956 29.8736 20.7582 29.9356 21.0004 30.0483C21.2425 30.1611 21.459 30.3221 21.6367 30.5215C21.7843 30.6976 21.8599 30.923 21.8482 31.1525C21.8258 31.2628 21.7797 31.3669 21.713 31.4575C21.6464 31.5482 21.5608 31.6233 21.4622 31.6775C21.3452 31.7475 21.1692 31.855 21.2102 32.079C21.2282 32.176 21.3092 32.3955 21.6572 32.335C21.9519 32.2536 22.2138 32.0821 22.4061 31.8444C22.5984 31.6067 22.7116 31.3147 22.7297 31.0095C22.733 30.7396 22.6818 30.4718 22.5789 30.2223C22.476 29.9728 22.3237 29.7466 22.1312 29.5575C21.8391 29.28 21.4936 29.0648 21.1158 28.925C20.7379 28.7853 20.3355 28.7238 19.9332 28.7445C19.4832 28.7382 19.0342 28.7893 18.5972 28.8965C18.2526 28.5628 17.8845 28.2544 17.4957 27.9735C16.6397 27.3235 15.8307 26.709 15.8782 25.8435C15.9407 24.712 17.1122 23.5775 19.3602 22.4715C21.3682 21.4835 22.9872 21.453 23.8322 21.7525C24.0823 21.8164 24.298 21.9746 24.4342 22.194C24.5029 22.3996 24.5224 22.6184 24.4912 22.8329C24.4599 23.0474 24.3787 23.2516 24.2542 23.429C23.8416 24.0482 23.2923 24.5643 22.6486 24.9374C22.0049 25.3106 21.284 25.5308 20.5417 25.581C20.2607 25.6426 19.9694 25.6405 19.6893 25.575C19.4092 25.5095 19.1473 25.3823 18.9227 25.2025C18.7837 25.0515 18.6262 24.88 18.3857 25.011C18.1973 25.1143 18.1598 25.3125 18.2732 25.6055C18.3981 25.8388 18.5693 26.0443 18.7762 26.2093C18.9831 26.3743 19.2214 26.4955 19.4767 26.5655C20.6705 26.8288 21.9169 26.7115 23.0407 26.23C24.8042 25.555 26.3812 23.629 25.9187 21.8365ZM17.9477 31.2375C17.9206 31.3174 17.8886 31.3956 17.8517 31.4715C17.7534 31.6692 17.6265 31.8513 17.4752 32.012C17.329 32.2049 17.1358 32.357 16.9141 32.4539C16.6924 32.5508 16.4495 32.5892 16.2087 32.5655C16.1807 32.5495 16.1697 32.4925 16.1662 32.469C16.176 32.2525 16.2285 32.0402 16.3209 31.8442C16.4132 31.6481 16.5435 31.4724 16.7042 31.327C17.0956 30.9423 17.5409 30.6168 18.0262 30.3605C18.0681 30.655 18.0412 30.9552 17.9477 31.2375Z" fill="#EC407A"/>
</svg>
