<svg width="31" height="36" viewBox="0 0 31 36" fill="none" xmlns="http://www.w3.org/2000/svg">
<path d="M11 28H7.5625C5.59499 28 4 26.4554 4 24.55V6.5M5.5 5H12.4335C12.808 5 13.1726 5.08562 13.5 5.24495M23 18.5V16.2245C23 15.922 22.9385 15.6252 22.8216 15.35M13.5 5.24495C13.7656 5.37423 14.0067 5.55202 14.2086 5.77196L22.4001 14.6964C22.579 14.8914 22.7209 15.1127 22.8216 15.35M13.5 5.24495V11.9C13.5 13.8054 15.095 15.35 17.0625 15.35H22.8216" stroke="#52BB85" stroke-width="3"/>
<path d="M18.5095 20.125H20.6159V29.7773C19.7169 29.9626 18.8016 30.0578 17.8837 30.0615C15.3114 30.0588 13.9727 28.9097 13.9727 26.7029C13.9727 24.5779 15.3927 23.1967 17.5937 23.1967C17.9023 23.191 18.2104 23.2267 18.5095 23.3029V20.125ZM18.5095 24.9817C18.2805 24.9062 18.0403 24.8703 17.7993 24.8754C16.7368 24.8754 16.1189 25.5252 16.1189 26.6636C16.1189 27.7723 16.707 28.3843 17.786 28.3843C18.0282 28.385 18.27 28.3672 18.5095 28.3312V24.9843V24.9817Z" fill="#44B78B"/>
<path d="M23.9624 23.3438V28.1782C23.9624 29.8426 23.8376 30.6427 23.4721 31.3328C23.0989 32.0343 22.489 32.5808 21.7508 32.875L19.7969 31.9543C20.5069 31.7116 21.1016 31.2139 21.4655 30.5577C21.7662 29.9622 21.8613 29.2721 21.8613 27.4568V23.3438H23.9624ZM21.8592 20.1356H23.9651V22.2755H21.8592V20.1356Z" fill="#44B78B"/>
</svg>
