<svg width="31" height="36" viewBox="0 0 31 36" fill="none" xmlns="http://www.w3.org/2000/svg">
<path d="M11 28H7.5625C5.59499 28 4 26.4554 4 24.55V6.5M5.5 5H12.4335C12.808 5 13.1726 5.08562 13.5 5.24495M23 18.5V16.2245C23 15.922 22.9385 15.6252 22.8216 15.35M13.5 5.24495C13.7656 5.37423 14.0067 5.55202 14.2086 5.77196L22.4001 14.6964C22.579 14.8914 22.7209 15.1127 22.8216 15.35M13.5 5.24495V11.9C13.5 13.8054 15.095 15.35 17.0625 15.35H22.8216" stroke="#77BC1F" stroke-width="3"/>
<g clip-path="url(#clip0_25_1047)">
<path d="M26.5565 19.8304C26.3325 20.368 26.0457 20.8772 25.7019 21.3474C24.1961 19.8425 22.1545 18.997 20.0256 18.9968C15.623 18.9968 12 22.6228 12 27.0303C12 28.1186 12.2209 29.1957 12.6495 30.1961C13.078 31.1966 13.7053 32.0996 14.4931 32.8505L14.7891 33.113C16.2357 34.3327 18.0667 35.0022 19.9589 35.0033C24.1448 35.0033 27.6635 31.7233 27.9615 27.5429C28.1804 25.4965 27.5801 22.9083 26.5565 19.8304ZM15.6334 32.8963C15.5689 32.9757 15.4876 33.0397 15.3953 33.0837C15.303 33.1277 15.202 33.1505 15.0998 33.1505C14.7225 33.1505 14.4139 32.84 14.4139 32.4628C14.4139 32.0855 14.7245 31.7751 15.0998 31.7751C15.256 31.7751 15.4104 31.8293 15.5312 31.9294C15.8251 32.1669 15.871 32.6024 15.6334 32.8963ZM26.5232 30.4915C24.5429 33.1318 20.3132 32.2419 17.6013 32.369C17.6013 32.369 17.1198 32.3983 16.6361 32.4774C16.6361 32.4774 16.8174 32.4003 17.053 32.3106C18.9563 31.648 19.8568 31.5188 21.0136 30.9249C23.192 29.8163 25.3454 27.3906 25.7936 24.867C24.964 27.2948 22.4499 29.3808 20.159 30.2289C18.5894 30.8083 15.7543 31.3709 15.7543 31.3709L15.6396 31.3104C13.7094 30.3706 13.6509 26.1883 17.1592 24.8379C18.6956 24.246 20.1652 24.5711 21.8246 24.1751C23.5965 23.7543 25.6456 22.4246 26.4794 20.6909C27.4132 23.4646 28.537 27.8074 26.5232 30.4915Z" fill="#77BC1F"/>
</g>
<defs>
<clipPath id="clip0_25_1047">
<rect width="16" height="16" fill="white" transform="translate(12 19)"/>
</clipPath>
</defs>
</svg>
