<svg width="31" height="36" viewBox="0 0 31 36" fill="none" xmlns="http://www.w3.org/2000/svg">
<path d="M11 28H7.5625C5.59499 28 4 26.4554 4 24.55V6.5M5.5 5H12.4335C12.808 5 13.1726 5.08562 13.5 5.24495M23 18.5V16.2245C23 15.922 22.9385 15.6252 22.8216 15.35M13.5 5.24495C13.7656 5.37423 14.0067 5.55202 14.2086 5.77196L22.4001 14.6964C22.579 14.8914 22.7209 15.1127 22.8216 15.35M13.5 5.24495V11.9C13.5 13.8054 15.095 15.35 17.0625 15.35H22.8216" stroke="#66AAEA" stroke-width="3"/>
<path d="M26.3036 19.5938H16.1562C16.073 19.5935 15.9906 19.6098 15.9137 19.6415C15.8368 19.6732 15.7669 19.7198 15.708 19.7785C15.6491 19.8373 15.6024 19.9071 15.5706 19.984C15.5387 20.0609 15.5224 20.1433 15.5225 20.2265V23.0469L21.4029 24.7734L26.938 23.0469V20.2265C26.938 20.1432 26.9217 20.0608 26.8898 19.9839C26.8579 19.907 26.8112 19.8371 26.7522 19.7784C26.6933 19.7196 26.6233 19.673 26.5464 19.6413C26.4694 19.6096 26.3869 19.5935 26.3036 19.5938Z" fill="#41A5EE"/>
<path d="M26.938 23.0469H15.5225V26.5L21.4029 27.5359L26.938 26.5V23.0469Z" fill="#2B7CD3"/>
<path d="M15.5225 26.5V29.9531L21.057 30.6437L26.938 29.9531V26.5H15.5225Z" fill="#185ABD"/>
<path d="M16.1562 33.4062H26.3031C26.3864 33.4066 26.4689 33.3905 26.546 33.3588C26.623 33.3272 26.6931 33.2806 26.752 33.2218C26.811 33.163 26.8578 33.0932 26.8897 33.0162C26.9216 32.9393 26.938 32.8568 26.938 32.7735V29.9531H15.5225V32.7735C15.5224 32.8567 15.5387 32.9391 15.5706 33.016C15.6024 33.0929 15.6491 33.1627 15.708 33.2215C15.7669 33.2802 15.8368 33.3268 15.9137 33.3585C15.9906 33.3902 16.073 33.4065 16.1562 33.4062Z" fill="#103F91"/>
<path opacity="0.1" d="M19.731 22.3563H15.5225V30.9891H19.731C19.8987 30.9882 20.0593 30.9214 20.1781 30.8029C20.2968 30.6845 20.3641 30.5241 20.3653 30.3564V22.989C20.3641 22.8213 20.2968 22.6608 20.1781 22.5424C20.0593 22.424 19.8987 22.3571 19.731 22.3563Z" fill="black"/>
<path opacity="0.2" d="M19.3852 22.7015H15.5225V31.3344H19.3852C19.5529 31.3335 19.7135 31.2666 19.8322 31.1482C19.951 31.0298 20.0182 30.8693 20.0195 30.7016V23.3343C20.0182 23.1666 19.951 23.0061 19.8322 22.8877C19.7135 22.7693 19.5529 22.7024 19.3852 22.7015Z" fill="black"/>
<path opacity="0.2" d="M19.3852 22.7015H15.5225V30.6437H19.3852C19.5529 30.6429 19.7135 30.576 19.8322 30.4576C19.951 30.3391 20.0182 30.1787 20.0195 30.011V23.3343C20.0182 23.1666 19.951 23.0061 19.8322 22.8877C19.7135 22.7693 19.5529 22.7024 19.3852 22.7015Z" fill="black"/>
<path opacity="0.2" d="M19.0393 22.7015H15.5225V30.6437H19.0393C19.207 30.6429 19.3676 30.576 19.4864 30.4576C19.6051 30.3391 19.6724 30.1787 19.6736 30.011V23.3343C19.6724 23.1666 19.6051 23.0061 19.4864 22.8877C19.3676 22.7693 19.207 22.7024 19.0393 22.7015Z" fill="black"/>
<path d="M12.6968 22.7015H19.0389C19.2069 22.7014 19.3681 22.768 19.487 22.8866C19.6059 23.0053 19.6729 23.1663 19.6732 23.3343V29.6657C19.6729 29.8337 19.6059 29.9947 19.487 30.1133C19.3681 30.232 19.2069 30.2986 19.0389 30.2984H12.6968C12.6136 30.2987 12.5311 30.2825 12.4541 30.2509C12.3771 30.2192 12.3072 30.1726 12.2482 30.1138C12.1893 30.055 12.1425 29.9852 12.1107 29.9083C12.0788 29.8314 12.0624 29.7489 12.0625 29.6657V23.3343C12.0624 23.251 12.0788 23.1686 12.1107 23.0917C12.1425 23.0148 12.1893 22.9449 12.2482 22.8861C12.3072 22.8274 12.3771 22.7808 12.4541 22.7491C12.5311 22.7174 12.6136 22.7013 12.6968 22.7015Z" fill="url(#paint0_linear_25_810)"/>
<path d="M14.6653 27.5561C14.6777 27.6538 14.6858 27.739 14.6897 27.8116H14.7046C14.7099 27.7426 14.7214 27.6593 14.7391 27.5619C14.7657 27.4158 14.7721 27.3824 14.7864 27.3149L15.4531 24.4424H16.3159L17.0065 27.2719C17.0464 27.447 17.0751 27.6244 17.0926 27.8031H17.1042C17.1175 27.6292 17.1414 27.4562 17.176 27.2852L17.7279 24.4387H18.5126L17.5436 28.5548H16.6261L15.969 25.8317C15.9498 25.753 15.9282 25.6507 15.9041 25.5246C15.8801 25.3985 15.8652 25.3064 15.8595 25.2483H15.8484C15.8409 25.3153 15.8261 25.4146 15.8037 25.5464C15.7814 25.6781 15.7637 25.7759 15.7506 25.8396L15.1328 28.5564H14.1999L13.2256 24.4424H14.0225L14.6233 27.3208C14.6408 27.3985 14.6548 27.4771 14.6653 27.5561Z" fill="white"/>
<defs>
<linearGradient id="paint0_linear_25_810" x1="13.3874" y1="22.2043" x2="18.3482" y2="30.7957" gradientUnits="userSpaceOnUse">
<stop stop-color="#2368C4"/>
<stop offset="0.5" stop-color="#1A5DBE"/>
<stop offset="1" stop-color="#1146AC"/>
</linearGradient>
</defs>
</svg>
