<svg width="39" height="38" viewBox="0 0 39 38" fill="none" xmlns="http://www.w3.org/2000/svg">
<path d="M31.3208 10.0399H22.5834L19.7257 7.18225C18.9667 6.42323 17.9419 6 16.868 6H9.04004V10.0399H16.8715L19.7292 12.8976C20.4882 13.6566 21.5131 14.0799 22.5869 14.0799H30.4184L30.5 21.5H34.4583V13.1774C34.4583 11.446 33.0557 10.0399 31.3208 10.0399Z" fill="#EA9F66"/>
<path d="M9.03991 10.0398H5V28.4171C5 30.1485 6.4026 31.5546 8.13749 31.5546H25V27.5147H9.03991V10.0398Z" fill="#EA9F66"/>
<path d="M27 25H29.25V27.4009H27V25ZM30.375 25H32.625V27.4009H30.375V25ZM33.75 25H36V27.4009H33.75V25ZM27 28.6H29.25V31H27V28.6ZM30.375 28.6H32.625V31H30.375V28.6ZM33.75 28.6H36V31H33.75V28.6Z" fill="#FF931E"/>
</svg>
