<svg width="31" height="36" viewBox="0 0 31 36" fill="none" xmlns="http://www.w3.org/2000/svg">
<path d="M11 28H7.5625C5.59499 28 4 26.4554 4 24.55V6.5M5.5 5H12.4335C12.808 5 13.1726 5.08562 13.5 5.24495M23 18.5V16.2245C23 15.922 22.9385 15.6252 22.8216 15.35M13.5 5.24495C13.7656 5.37423 14.0067 5.55202 14.2086 5.77196L22.4001 14.6964C22.579 14.8914 22.7209 15.1127 22.8216 15.35M13.5 5.24495V11.9C13.5 13.8054 15.095 15.35 17.0625 15.35H22.8216" stroke="#66AAEA" stroke-width="3"/>
<path d="M17.875 22.625L15.625 24.5938L13.375 22.625H12.25V29.375H14.5V26L15.625 27.125L16.75 26V29.375H19V22.625H17.875ZM24.625 26V22.625H22.375V26H20.125L23.5 30.5L26.875 26H24.625Z" fill="#42A5F5"/>
</svg>
