<svg width="31" height="36" viewBox="0 0 31 36" fill="none" xmlns="http://www.w3.org/2000/svg">
<path d="M11 28H7.5625C5.59499 28 4 26.4554 4 24.55V6.5M5.5 5H12.4335C12.808 5 13.1726 5.08562 13.5 5.24495M23 18.5V16.2245C23 15.922 22.9385 15.6252 22.8216 15.35M13.5 5.24495C13.7656 5.37423 14.0067 5.55202 14.2086 5.77196L22.4001 14.6964C22.579 14.8914 22.7209 15.1127 22.8216 15.35M13.5 5.24495V11.9C13.5 13.8054 15.095 15.35 17.0625 15.35H22.8216" stroke="#6464E2" stroke-width="3"/>
<g clip-path="url(#clip0_25_519)">
<path d="M18.2536 34.9456L12.0449 29.4986L13.784 21.5365L21.7247 19.0215L27.9334 24.4685L26.1944 32.4306L18.2536 34.9456ZM15.2512 28.486L18.9532 31.729L23.6879 30.2267L24.7272 25.4812L21.0251 22.2315L16.2905 23.7405L15.2512 28.486Z" fill="#3A33D1"/>
<path d="M23.328 32.6225H16.6506L13.3086 26.9836L16.6506 21.3447H23.328L26.6701 26.9836L23.328 32.6225ZM17.8258 30.637H22.1528L24.3198 26.9836L22.1528 23.3302H17.8258L15.6657 26.9836L17.8258 30.637Z" fill="#6464E2"/>
</g>
<defs>
<clipPath id="clip0_25_519">
<rect width="16" height="16" fill="white" transform="translate(12 19)"/>
</clipPath>
</defs>
</svg>
