<svg width="31" height="36" viewBox="0 0 31 36" fill="none" xmlns="http://www.w3.org/2000/svg">
<path d="M11 28H7.5625C5.59499 28 4 26.4554 4 24.55V6.5M5.5 5H12.4335C12.808 5 13.1726 5.08562 13.5 5.24495M23 18.5V16.2245C23 15.922 22.9385 15.6252 22.8216 15.35M13.5 5.24495C13.7656 5.37423 14.0067 5.55202 14.2086 5.77196L22.4001 14.6964C22.579 14.8914 22.7209 15.1127 22.8216 15.35M13.5 5.24495V11.9C13.5 13.8054 15.095 15.35 17.0625 15.35H22.8216" stroke="#CECECE" stroke-width="3"/>
<path d="M21.8481 29.2397L23.0227 30.4143L26.9375 26.5L23.0227 22.5852L21.8481 23.7604L24.5894 26.5L21.8481 29.2397ZM17.1519 23.7604L15.9773 22.5852L12.0625 26.5L15.9773 30.4148L17.1519 29.2402L14.4106 26.5L17.1519 23.7604ZM20.2496 22.0784L21.0996 22.3106L18.7515 30.9216L17.9015 30.6895L20.2496 22.0784Z" fill="#F1662A"/>
</svg>
