<svg width="31" height="36" viewBox="0 0 31 36" fill="none" xmlns="http://www.w3.org/2000/svg">
<path d="M11 28H7.5625C5.59499 28 4 26.4554 4 24.55V6.5M5.5 5H12.4335C12.808 5 13.1726 5.08562 13.5 5.24495M23 18.5V16.2245C23 15.922 22.9385 15.6252 22.8216 15.35M13.5 5.24495C13.7656 5.37423 14.0067 5.55202 14.2086 5.77196L22.4001 14.6964C22.579 14.8914 22.7209 15.1127 22.8216 15.35M13.5 5.24495V11.9C13.5 13.8054 15.095 15.35 17.0625 15.35H22.8216" stroke="#EAB866" stroke-width="3"/>
<path d="M20.917 32.1666V30.75H23.042C23.2427 30.75 23.4109 30.6821 23.5467 30.5463C23.6824 30.4106 23.7503 30.2423 23.7503 30.0416V28.625C23.7503 28.1764 23.8802 27.7691 24.1399 27.4031C24.3996 27.0371 24.742 26.7774 25.167 26.6239V26.376C24.742 26.2225 24.3996 25.9628 24.1399 25.5969C23.8802 25.2309 23.7503 24.8236 23.7503 24.375V22.9583C23.7503 22.7576 23.6824 22.5894 23.5467 22.4536C23.4109 22.3179 23.2427 22.25 23.042 22.25H20.917V20.8333H23.042C23.6323 20.8333 24.134 21.0399 24.5472 21.4531C24.9604 21.8663 25.167 22.368 25.167 22.9583V24.375C25.167 24.5757 25.2349 24.7439 25.3706 24.8797C25.5064 25.0154 25.6746 25.0833 25.8753 25.0833H26.5837V27.9166H25.8753C25.6746 27.9166 25.5064 27.9845 25.3706 28.1203C25.2349 28.2561 25.167 28.4243 25.167 28.625V30.0416C25.167 30.6319 24.9604 31.1337 24.5472 31.5469C24.134 31.96 23.6323 32.1666 23.042 32.1666H20.917ZM15.9587 32.1666C15.3684 32.1666 14.8666 31.96 14.4535 31.5469C14.0403 31.1337 13.8337 30.6319 13.8337 30.0416V28.625C13.8337 28.4243 13.7658 28.2561 13.63 28.1203C13.4942 27.9845 13.326 27.9166 13.1253 27.9166H12.417V25.0833H13.1253C13.326 25.0833 13.4942 25.0154 13.63 24.8797C13.7658 24.7439 13.8337 24.5757 13.8337 24.375V22.9583C13.8337 22.368 14.0403 21.8663 14.4535 21.4531C14.8666 21.0399 15.3684 20.8333 15.9587 20.8333H18.0837V22.25H15.9587C15.758 22.25 15.5897 22.3179 15.454 22.4536C15.3182 22.5894 15.2503 22.7576 15.2503 22.9583V24.375C15.2503 24.8236 15.1205 25.2309 14.8607 25.5969C14.601 25.9628 14.2587 26.2225 13.8337 26.376V26.6239C14.2587 26.7774 14.601 27.0371 14.8607 27.4031C15.1205 27.7691 15.2503 28.1764 15.2503 28.625V30.0416C15.2503 30.2423 15.3182 30.4106 15.454 30.5463C15.5897 30.6821 15.758 30.75 15.9587 30.75H18.0837V32.1666H15.9587Z" fill="#F9A825"/>
</svg>
