<svg width="31" height="36" viewBox="0 0 31 36" fill="none" xmlns="http://www.w3.org/2000/svg">
<path d="M11 28H7.5625C5.59499 28 4 26.4554 4 24.55V6.5M5.5 5H12.4335C12.808 5 13.1726 5.08562 13.5 5.24495M23 18.5V16.2245C23 15.922 22.9385 15.6252 22.8216 15.35M13.5 5.24495C13.7656 5.37423 14.0067 5.55202 14.2086 5.77196L22.4001 14.6964C22.579 14.8914 22.7209 15.1127 22.8216 15.35M13.5 5.24495V11.9C13.5 13.8054 15.095 15.35 17.0625 15.35H22.8216" stroke="#52BB85" stroke-width="3"/>
<g clip-path="url(#clip0_25_1086)">
<path d="M26.3979 20H29.9961L21.0005 34.9864L12.0049 20H18.8865L21.0005 23.4751L23.0695 20H26.3979Z" fill="#41B883"/>
<path d="M12.0049 20L21.0005 34.9864L29.9961 20H26.3979L21.0005 28.9919L15.5582 20H12.0049Z" fill="#41B883"/>
<path d="M15.5576 20L21 29.0353L26.3974 20H23.069L21 23.4751L18.886 20H15.5576Z" fill="#35495E"/>
</g>
<defs>
<clipPath id="clip0_25_1086">
<rect width="18" height="15" fill="white" transform="translate(12 20)"/>
</clipPath>
</defs>
</svg>
