<svg width="39" height="38" viewBox="0 0 39 38" fill="none" xmlns="http://www.w3.org/2000/svg">
<path d="M31.3208 10.0399H22.5834L19.7257 7.18225C18.9667 6.42323 17.9419 6 16.868 6H9.04004V10.0399H16.8715L19.7292 12.8976C20.4882 13.6566 21.5131 14.0799 22.5869 14.0799H30.4184V20.5H34.4583V13.1774C34.4583 11.446 33.0557 10.0399 31.3208 10.0399Z" fill="#E46962"/>
<path d="M9 19C7.4379 19 6.5 19.5 6 20C5.5 20.5 5 21 5 22C5 23 5 28.4171 5 28.4171C5 30.1485 6.4026 31.5546 8.13749 31.5546H24.5V27.5L9.03992 27.5147L9 19Z" fill="#E46962"/>
<path d="M25.0004 24H21.0004V22H9.00037V19H21C22.6706 19 23.5351 19.5841 24 20C24.7003 20.6266 25.0557 21.2567 25.0557 22L25.0004 24Z" fill="#E46962"/>
<g clip-path="url(#clip0_31_212)">
<path d="M33.6562 22H28.3438C27.0493 22 26 23.0493 26 24.3438V29.6562C26 30.9507 27.0493 32 28.3438 32H33.6562C34.9507 32 36 30.9507 36 29.6562V24.3438C36 23.0493 34.9507 22 33.6562 22Z" fill="#F03C2E"/>
<mask id="mask0_31_212" style="mask-type:luminance" maskUnits="userSpaceOnUse" x="27" y="23" width="8" height="8">
<path d="M27.0938 23.0938H34.9062V30.9062H27.0938V23.0938Z" fill="white"/>
</mask>
<g mask="url(#mask0_31_212)">
<path d="M34.759 26.6521L31.3481 23.2412C31.2778 23.1708 31.1882 23.1228 31.0906 23.1034C30.993 23.084 30.8918 23.094 30.7999 23.1321C30.7389 23.1574 30.6835 23.1945 30.6367 23.2412L29.9287 23.9492L30.8272 24.8476C31.0362 24.7744 31.2754 24.8244 31.4419 24.991C31.5212 25.0704 31.5765 25.1704 31.6016 25.2798C31.6267 25.3891 31.6205 25.5034 31.5837 25.6094L32.4497 26.4753C32.6592 26.4031 32.9009 26.4497 33.0681 26.6174C33.1519 26.7011 33.2089 26.8078 33.232 26.924C33.2551 27.0402 33.2432 27.1606 33.1978 27.27C33.137 27.4167 33.0204 27.5332 32.8737 27.5939C32.727 27.6547 32.5622 27.6547 32.4155 27.5939C32.3428 27.5638 32.2768 27.5197 32.2212 27.4641C32.0454 27.2883 32.002 27.0295 32.0908 26.8129L31.2832 26.0053V28.1306C31.3419 28.1596 31.3954 28.1979 31.4419 28.2439C31.5542 28.3562 31.6173 28.5084 31.6173 28.6672C31.6173 28.826 31.5542 28.9783 31.4419 29.0906C31.3296 29.2028 31.1773 29.2659 31.0186 29.2659C30.8598 29.2659 30.7075 29.2028 30.5952 29.0906C30.5114 29.0069 30.4544 28.9002 30.4312 28.784C30.4081 28.6679 30.42 28.5475 30.4653 28.4381C30.4954 28.3654 30.5396 28.2994 30.5952 28.2439C30.6531 28.1863 30.7173 28.1426 30.7913 28.1133V25.9682C30.7179 25.9382 30.6512 25.8938 30.5952 25.8376C30.5112 25.7537 30.454 25.6466 30.4311 25.53C30.4081 25.4134 30.4204 25.2926 30.4663 25.1831L29.5801 24.2974L27.2412 26.6338C27.1708 26.7042 27.1229 26.7938 27.1034 26.8915C27.084 26.9891 27.094 27.0903 27.1321 27.1822C27.1574 27.2433 27.1945 27.2988 27.2412 27.3455L30.6524 30.7561C30.6991 30.8028 30.7545 30.8399 30.8155 30.8652C30.9388 30.9162 31.0773 30.9162 31.2006 30.8652C31.2616 30.8399 31.3171 30.8028 31.3638 30.7561L34.759 27.3662C34.8058 27.3195 34.8429 27.264 34.8682 27.203C34.8935 27.1419 34.9065 27.0765 34.9065 27.0104C34.9065 26.9443 34.8935 26.8789 34.8682 26.8178C34.8429 26.7567 34.8058 26.7013 34.759 26.6546" fill="white"/>
</g>
</g>
<defs>
<clipPath id="clip0_31_212">
<rect width="10" height="10" fill="white" transform="translate(26 22)"/>
</clipPath>
</defs>
</svg>
