<svg width="39" height="38" viewBox="0 0 39 38" fill="none" xmlns="http://www.w3.org/2000/svg">
<path d="M31.3208 10.0399H22.5834L19.7257 7.18225C18.9667 6.42323 17.9419 6 16.868 6H9.04004V10.0399H16.8715L19.7292 12.8976C20.4882 13.6566 21.5131 14.0799 22.5869 14.0799H30.4184L30.5 21.5H34.4583V13.1774C34.4583 11.446 33.0557 10.0399 31.3208 10.0399Z" fill="#E46962"/>
<path d="M9.03991 10.0398H5V28.4171C5 30.1485 6.4026 31.5546 8.13749 31.5546H25V27.5147H9.03991V10.0398Z" fill="#E46962"/>
<g clip-path="url(#clip0_31_217)">
<path d="M33.6562 23H28.3438C27.0493 23 26 24.0493 26 25.3438V30.6562C26 31.9507 27.0493 33 28.3438 33H33.6562C34.9507 33 36 31.9507 36 30.6562V25.3438C36 24.0493 34.9507 23 33.6562 23Z" fill="#F03C2E"/>
<mask id="mask0_31_217" style="mask-type:luminance" maskUnits="userSpaceOnUse" x="27" y="24" width="8" height="8">
<path d="M27.0938 24.0938H34.9062V31.9062H27.0938V24.0938Z" fill="white"/>
</mask>
<g mask="url(#mask0_31_217)">
<path d="M34.759 27.6521L31.3481 24.2412C31.2778 24.1708 31.1882 24.1228 31.0906 24.1034C30.993 24.084 30.8918 24.094 30.7999 24.1321C30.7389 24.1574 30.6835 24.1945 30.6367 24.2412L29.9287 24.9492L30.8272 25.8476C31.0362 25.7744 31.2754 25.8244 31.4419 25.991C31.5212 26.0704 31.5765 26.1704 31.6016 26.2798C31.6267 26.3891 31.6205 26.5034 31.5837 26.6094L32.4497 27.4753C32.6592 27.4031 32.9009 27.4497 33.0681 27.6174C33.1519 27.7011 33.2089 27.8078 33.232 27.924C33.2551 28.0402 33.2432 28.1606 33.1978 28.27C33.137 28.4167 33.0204 28.5332 32.8737 28.5939C32.727 28.6547 32.5622 28.6547 32.4155 28.5939C32.3428 28.5638 32.2768 28.5197 32.2212 28.4641C32.0454 28.2883 32.002 28.0295 32.0908 27.8129L31.2832 27.0053V29.1306C31.3419 29.1596 31.3954 29.1979 31.4419 29.2439C31.5542 29.3562 31.6173 29.5084 31.6173 29.6672C31.6173 29.826 31.5542 29.9783 31.4419 30.0906C31.3296 30.2028 31.1773 30.2659 31.0186 30.2659C30.8598 30.2659 30.7075 30.2028 30.5952 30.0906C30.5114 30.0069 30.4544 29.9002 30.4312 29.784C30.4081 29.6679 30.42 29.5475 30.4653 29.4381C30.4954 29.3654 30.5396 29.2994 30.5952 29.2439C30.6531 29.1863 30.7173 29.1426 30.7913 29.1133V26.9682C30.7179 26.9382 30.6512 26.8938 30.5952 26.8376C30.5112 26.7537 30.454 26.6466 30.4311 26.53C30.4081 26.4134 30.4204 26.2926 30.4663 26.1831L29.5801 25.2974L27.2412 27.6338C27.1708 27.7042 27.1229 27.7938 27.1034 27.8915C27.084 27.9891 27.094 28.0903 27.1321 28.1822C27.1574 28.2433 27.1945 28.2988 27.2412 28.3455L30.6524 31.7561C30.6991 31.8028 30.7545 31.8399 30.8155 31.8652C30.9388 31.9162 31.0773 31.9162 31.2006 31.8652C31.2616 31.8399 31.3171 31.8028 31.3638 31.7561L34.759 28.3662C34.8058 28.3195 34.8429 28.264 34.8682 28.203C34.8935 28.1419 34.9065 28.0765 34.9065 28.0104C34.9065 27.9443 34.8935 27.8789 34.8682 27.8178C34.8429 27.7567 34.8058 27.7013 34.759 27.6546" fill="white"/>
</g>
</g>
<defs>
<clipPath id="clip0_31_217">
<rect width="10" height="10" fill="white" transform="translate(26 23)"/>
</clipPath>
</defs>
</svg>
