<svg width="39" height="38" viewBox="0 0 39 38" fill="none" xmlns="http://www.w3.org/2000/svg">
<path d="M31.3208 10.0399H22.5834L19.7257 7.18225C18.9667 6.42323 17.9419 6 16.868 6H9.04004V10.0399H16.8715L19.7292 12.8976C20.4882 13.6566 21.5131 14.0799 22.5869 14.0799H30.4184V20.5H34.4583V13.1774C34.4583 11.446 33.0557 10.0399 31.3208 10.0399Z" fill="#EC928E"/>
<path d="M9 19C7.4379 19 6.5 19.5 6 20C5.5 20.5 5 21 5 22C5 23 5 28.4171 5 28.4171C5 30.1485 6.4026 31.5546 8.13749 31.5546H24.5V27.5L9.03992 27.5147L9 19Z" fill="#EC928E"/>
<path d="M25.0004 24H21.0004V22H9.00037V19H21C22.6706 19 23.5351 19.5841 24 20C24.7003 20.6266 25.0557 21.2567 25.0557 22L25.0004 24Z" fill="#EC928E"/>
<g clip-path="url(#clip0_31_462)">
<path d="M33.25 21.6875H27.75C27.203 21.6875 26.6784 21.9048 26.2916 22.2916C25.9048 22.6784 25.6875 23.203 25.6875 23.75V29.25C25.6875 29.797 25.9048 30.3216 26.2916 30.7084C26.6784 31.0952 27.203 31.3125 27.75 31.3125H33.25C33.797 31.3125 34.3216 31.0952 34.7084 30.7084C35.0952 30.3216 35.3125 29.797 35.3125 29.25V23.75C35.3125 23.203 35.0952 22.6784 34.7084 22.2916C34.3216 21.9048 33.797 21.6875 33.25 21.6875ZM30.5 28.5151C30.4998 28.7099 30.4223 28.8968 30.2845 29.0345C30.1468 29.1723 29.9599 29.2498 29.7651 29.25H29.1724C28.9776 29.2498 28.7907 29.1723 28.653 29.0345C28.5152 28.8968 28.4377 28.7099 28.4375 28.5151V24.4849C28.4377 24.2901 28.5152 24.1032 28.653 23.9655C28.7907 23.8277 28.9776 23.7502 29.1724 23.75H30.5V28.5151ZM32.2188 25.8125C32.0148 25.8125 31.8154 25.752 31.6458 25.6387C31.4762 25.5254 31.3441 25.3643 31.266 25.1759C31.1879 24.9875 31.1675 24.7801 31.2073 24.5801C31.2471 24.38 31.3453 24.1963 31.4895 24.052C31.6338 23.9078 31.8175 23.8096 32.0176 23.7698C32.2176 23.73 32.425 23.7504 32.6134 23.8285C32.8018 23.9066 32.9629 24.0387 33.0762 24.2083C33.1895 24.3779 33.25 24.5773 33.25 24.7813C33.25 25.0548 33.1414 25.3171 32.948 25.5105C32.7546 25.7039 32.4923 25.8125 32.2188 25.8125Z" fill="#EF5350"/>
</g>
<defs>
<clipPath id="clip0_31_462">
<rect width="11" height="11" fill="white" transform="translate(25 21)"/>
</clipPath>
</defs>
</svg>
