<svg width="39" height="38" viewBox="0 0 39 38" fill="none" xmlns="http://www.w3.org/2000/svg">
<path d="M31.3208 10.0399H22.5834L19.7257 7.18225C18.9667 6.42323 17.9419 6 16.868 6H9.04004V10.0399H16.8715L19.7292 12.8976C20.4882 13.6566 21.5131 14.0799 22.5869 14.0799H30.4184L30.5 21.5H34.4583V13.1774C34.4583 11.446 33.0557 10.0399 31.3208 10.0399Z" fill="#EC928E"/>
<path d="M9.03991 10.0398H5V28.4171C5 30.1485 6.4026 31.5546 8.13749 31.5546H25V27.5147H9.03991V10.0398Z" fill="#EC928E"/>
<g clip-path="url(#clip0_31_467)">
<path d="M33.5 23.625H28.5C28.0027 23.625 27.5258 23.8225 27.1742 24.1742C26.8225 24.5258 26.625 25.0027 26.625 25.5V30.5C26.625 30.9973 26.8225 31.4742 27.1742 31.8258C27.5258 32.1775 28.0027 32.375 28.5 32.375H33.5C33.9973 32.375 34.4742 32.1775 34.8258 31.8258C35.1775 31.4742 35.375 30.9973 35.375 30.5V25.5C35.375 25.0027 35.1775 24.5258 34.8258 24.1742C34.4742 23.8225 33.9973 23.625 33.5 23.625ZM31 29.8319C30.9998 30.009 30.9294 30.1789 30.8041 30.3041C30.6789 30.4294 30.509 30.4998 30.3319 30.5H29.7931C29.616 30.4998 29.4461 30.4294 29.3209 30.3041C29.1956 30.1789 29.1252 30.009 29.125 29.8319V26.1681C29.1252 25.991 29.1956 25.8211 29.3209 25.6959C29.4461 25.5706 29.616 25.5002 29.7931 25.5H31V29.8319ZM32.5625 27.375C32.3771 27.375 32.1958 27.32 32.0417 27.217C31.8875 27.114 31.7673 26.9676 31.6964 26.7963C31.6254 26.625 31.6068 26.4365 31.643 26.2546C31.6792 26.0727 31.7685 25.9057 31.8996 25.7746C32.0307 25.6435 32.1977 25.5542 32.3796 25.518C32.5615 25.4818 32.75 25.5004 32.9213 25.5714C33.0926 25.6423 33.239 25.7625 33.342 25.9167C33.445 26.0708 33.5 26.2521 33.5 26.4375C33.5 26.6861 33.4012 26.9246 33.2254 27.1004C33.0496 27.2762 32.8111 27.375 32.5625 27.375Z" fill="#EF5350"/>
</g>
<defs>
<clipPath id="clip0_31_467">
<rect width="10" height="10" fill="white" transform="translate(26 23)"/>
</clipPath>
</defs>
</svg>
