<svg width="31" height="36" viewBox="0 0 31 36" fill="none" xmlns="http://www.w3.org/2000/svg">
<path d="M11 28H7.5625C5.59499 28 4 26.4554 4 24.55V6.5M5.5 5H12.4335C12.808 5 13.1726 5.08562 13.5 5.24495M23 18.5V16.2245C23 15.922 22.9385 15.6252 22.8216 15.35M13.5 5.24495C13.7656 5.37423 14.0067 5.55202 14.2086 5.77196L22.4001 14.6964C22.579 14.8914 22.7209 15.1127 22.8216 15.35M13.5 5.24495V11.9C13.5 13.8054 15.095 15.35 17.0625 15.35H22.8216" stroke="#EA6B66" stroke-width="3"/>
<path d="M18.4026 19.875L13.2666 22.2495L13.7504 29.883L18.4026 19.875ZM21.5976 19.875L26.2491 29.883L26.7329 22.2495L21.5976 19.875ZM20.0001 23.6723L18.1619 28.1453H21.8414L20.0001 23.6723ZM17.2026 30.3915L16.4871 32.1225L20.0001 34.125L23.5124 32.1225L22.7976 30.3915H17.2026Z" fill="#E53935"/>
</svg>
