<svg width="39" height="38" viewBox="0 0 39 38" fill="none" xmlns="http://www.w3.org/2000/svg">
<path d="M31.3208 10.0399H22.5834L19.7257 7.18225C18.9667 6.42323 17.9419 6 16.868 6H9.04004V10.0399H16.8715L19.7292 12.8976C20.4882 13.6566 21.5131 14.0799 22.5869 14.0799H30.4184L30.5 21.5H34.4583V13.1774C34.4583 11.446 33.0557 10.0399 31.3208 10.0399Z" fill="#EA9266"/>
<path d="M9.03991 10.0398H5V28.4171C5 30.1485 6.4026 31.5546 8.13749 31.5546H25V27.5147H9.03991V10.0398Z" fill="#EA9266"/>
<g clip-path="url(#clip0_31_356)">
<path d="M36.241 24.8964H34.3446C34.3446 24.3934 34.1448 23.9111 33.7892 23.5554C33.4335 23.1998 32.9512 23 32.4482 23C31.9452 23 31.4629 23.1998 31.1072 23.5554C30.7516 23.9111 30.5518 24.3934 30.5518 24.8964H28.6554C28.4541 24.8964 28.261 24.9764 28.1187 25.1187C27.9764 25.261 27.8964 25.4541 27.8964 25.6554V27.5518C27.3934 27.5518 26.9111 27.7516 26.5554 28.1072C26.1998 28.4629 26 28.9452 26 29.4482C26 29.9512 26.1998 30.4335 26.5554 30.7892C26.9111 31.1448 27.3934 31.3446 27.8964 31.3446V33.2416C27.8965 33.4428 27.9766 33.6357 28.1189 33.7779C28.2612 33.9201 28.4542 34 28.6554 34H31.3102V33.241C31.3102 32.9392 31.4301 32.6498 31.6435 32.4363C31.857 32.2229 32.1464 32.1031 32.4482 32.1031C32.75 32.1031 33.0394 32.2229 33.2529 32.4363C33.4663 32.6498 33.5862 32.9392 33.5862 33.241V34H36.2416C36.4428 33.9999 36.6357 33.9198 36.7779 33.7775C36.9201 33.6352 37 33.4422 37 33.241V30.5862H36.241C35.9392 30.5862 35.6498 30.4663 35.4363 30.2529C35.2229 30.0394 35.1031 29.75 35.1031 29.4482C35.1031 29.1464 35.2229 28.857 35.4363 28.6435C35.6498 28.4301 35.9392 28.3102 36.241 28.3102H37V25.6554C37 25.4541 36.92 25.261 36.7777 25.1187C36.6354 24.9764 36.4423 24.8964 36.241 24.8964ZM34.3446 29.4482C34.3449 29.9512 34.5449 30.4334 34.9006 30.789C35.2563 31.1446 35.7386 31.3445 36.2416 31.3446V33.2416H34.3446C34.3446 32.9925 34.2955 32.7459 34.2002 32.5158C34.1049 32.2857 33.9653 32.0767 33.7892 31.9006C33.6131 31.7245 33.404 31.5848 33.1739 31.4895C32.9438 31.3942 32.6972 31.3451 32.4482 31.3451C32.1992 31.3451 31.9526 31.3942 31.7225 31.4895C31.4924 31.5848 31.2833 31.7245 31.1072 31.9006C30.9311 32.0767 30.7915 32.2857 30.6962 32.5158C30.6009 32.7459 30.5518 32.9925 30.5518 33.2416H28.6554V30.5862H27.8964C27.5946 30.5862 27.3052 30.4663 27.0917 30.2529C26.8783 30.0394 26.7584 29.75 26.7584 29.4482C26.7584 29.1464 26.8783 28.857 27.0917 28.6435C27.3052 28.4301 27.5946 28.3102 27.8964 28.3102H28.6554V25.6554H31.3102V24.8964C31.3102 24.5946 31.4301 24.3052 31.6435 24.0917C31.857 23.8783 32.1464 23.7584 32.4482 23.7584C32.75 23.7584 33.0394 23.8783 33.2529 24.0917C33.4663 24.3052 33.5862 24.5946 33.5862 24.8964V25.6554H36.2416V27.5518C35.7386 27.5519 35.2563 27.7518 34.9006 28.1074C34.5449 28.463 34.3449 28.9452 34.3446 29.4482Z" fill="#FF7043"/>
</g>
<defs>
<clipPath id="clip0_31_356">
<rect width="11" height="11" fill="white" transform="translate(26 23)"/>
</clipPath>
</defs>
</svg>
