<svg width="39" height="38" viewBox="0 0 39 38" fill="none" xmlns="http://www.w3.org/2000/svg">
<path d="M31.3208 10.0399H22.5834L19.7257 7.18225C18.9667 6.42323 17.9419 6 16.868 6H9.04004V10.0399H16.8715L19.7292 12.8976C20.4882 13.6566 21.5131 14.0799 22.5869 14.0799H30.4184V20.5H34.4583V13.1774C34.4583 11.446 33.0557 10.0399 31.3208 10.0399Z" fill="#EA9266"/>
<path d="M9 19C7.4379 19 6.5 19.5 6 20C5.5 20.5 5 21 5 22C5 23 5 28.4171 5 28.4171C5 30.1485 6.4026 31.5546 8.13749 31.5546H24.5V27.5L9.03992 27.5147L9 19Z" fill="#EA9266"/>
<path d="M25.0004 24H21.0004V22H9.00037V19H21C22.6706 19 23.5351 19.5841 24 20C24.7003 20.6266 25.0557 21.2567 25.0557 22L25.0004 24Z" fill="#EA9266"/>
<g clip-path="url(#clip0_31_351)">
<path d="M36.172 24.0688H34.1032C34.1032 23.5201 33.8852 22.9939 33.4973 22.6059C33.1093 22.218 32.5831 22 32.0344 22C31.4857 22 30.9595 22.218 30.5715 22.6059C30.1836 22.9939 29.9656 23.5201 29.9656 24.0688H27.8968C27.6772 24.0688 27.4666 24.156 27.3113 24.3113C27.156 24.4666 27.0688 24.6772 27.0688 24.8968V26.9656C26.5201 26.9656 25.9939 27.1836 25.6059 27.5715C25.218 27.9595 25 28.4857 25 29.0344C25 29.5831 25.218 30.1093 25.6059 30.4973C25.9939 30.8852 26.5201 31.1032 27.0688 31.1032V33.1726C27.069 33.3921 27.1563 33.6025 27.3115 33.7577C27.4668 33.9128 27.6773 34 27.8968 34H30.793V33.172C30.793 32.8428 30.9238 32.527 31.1566 32.2942C31.3894 32.0614 31.7052 31.9306 32.0344 31.9306C32.3636 31.9306 32.6794 32.0614 32.9122 32.2942C33.145 32.527 33.2758 32.8428 33.2758 33.172V34H36.1726C36.3921 33.9998 36.6025 33.9125 36.7577 33.7573C36.9128 33.602 37 33.3915 37 33.172V30.2758H36.172C35.8428 30.2758 35.527 30.145 35.2942 29.9122C35.0614 29.6794 34.9306 29.3636 34.9306 29.0344C34.9306 28.7052 35.0614 28.3894 35.2942 28.1566C35.527 27.9238 35.8428 27.793 36.172 27.793H37V24.8968C37 24.6772 36.9128 24.4666 36.7575 24.3113C36.6022 24.156 36.3916 24.0688 36.172 24.0688ZM34.1032 29.0344C34.1035 29.5831 34.3217 30.1092 34.7097 30.4971C35.0977 30.885 35.6239 31.103 36.1726 31.1032V33.1726H34.1032C34.1032 32.9009 34.0497 32.6319 33.9457 32.3809C33.8418 32.1299 33.6894 31.9018 33.4973 31.7097C33.3052 31.5176 33.0771 31.3652 32.8261 31.2613C32.5751 31.1573 32.3061 31.1038 32.0344 31.1038C31.7627 31.1038 31.4937 31.1573 31.2427 31.2613C30.9917 31.3652 30.7636 31.5176 30.5715 31.7097C30.3794 31.9018 30.227 32.1299 30.1231 32.3809C30.0191 32.6319 29.9656 32.9009 29.9656 33.1726H27.8968V30.2758H27.0688C26.7396 30.2758 26.4238 30.145 26.191 29.9122C25.9582 29.6794 25.8274 29.3636 25.8274 29.0344C25.8274 28.7052 25.9582 28.3894 26.191 28.1566C26.4238 27.9238 26.7396 27.793 27.0688 27.793H27.8968V24.8968H30.793V24.0688C30.793 23.7396 30.9238 23.4238 31.1566 23.191C31.3894 22.9582 31.7052 22.8274 32.0344 22.8274C32.3636 22.8274 32.6794 22.9582 32.9122 23.191C33.145 23.4238 33.2758 23.7396 33.2758 24.0688V24.8968H36.1726V26.9656C35.6239 26.9658 35.0977 27.1838 34.7097 27.5717C34.3217 27.9596 34.1035 28.4857 34.1032 29.0344Z" fill="#FF931E"/>
</g>
<defs>
<clipPath id="clip0_31_351">
<rect width="12" height="12" fill="white" transform="translate(25 22)"/>
</clipPath>
</defs>
</svg>
