<svg width="31" height="36" viewBox="0 0 31 36" fill="none" xmlns="http://www.w3.org/2000/svg">
<path d="M11 28H7.5625C5.59499 28 4 26.4554 4 24.55V6.5M5.5 5H12.4335C12.808 5 13.1726 5.08562 13.5 5.24495M23 18.5V16.2245C23 15.922 22.9385 15.6252 22.8216 15.35M13.5 5.24495C13.7656 5.37423 14.0067 5.55202 14.2086 5.77196L22.4001 14.6964C22.579 14.8914 22.7209 15.1127 22.8216 15.35M13.5 5.24495V11.9C13.5 13.8054 15.095 15.35 17.0625 15.35H22.8216" stroke="#7837FA" stroke-width="3"/>
<g clip-path="url(#clip0_25_444)">
<g clip-path="url(#clip1_25_444)">
<path d="M27.7575 21.6445L20.1284 35.2868C19.9708 35.5685 19.5661 35.5701 19.4063 35.29L11.6259 21.6461C11.4515 21.3404 11.7125 20.9705 12.059 21.0323L19.6963 22.3972C19.745 22.4061 19.7949 22.4061 19.8437 22.3972L27.321 21.0344C27.6661 20.9716 27.9286 21.3384 27.7575 21.6445Z" fill="url(#paint0_linear_25_444)"/>
<path d="M23.3332 19.242L17.6878 20.348C17.6428 20.3568 17.6019 20.3804 17.5717 20.4149C17.5414 20.4494 17.5235 20.4931 17.5208 20.5389L17.1732 26.4049C17.1713 26.4371 17.177 26.4693 17.1897 26.4989C17.2024 26.5285 17.2218 26.5547 17.2465 26.5755C17.2711 26.5963 17.3002 26.6111 17.3315 26.6187C17.3628 26.6263 17.3955 26.6265 17.4269 26.6193L18.9988 26.2561C19.0327 26.2483 19.068 26.2491 19.1014 26.2585C19.1348 26.2679 19.1654 26.2856 19.1902 26.3098C19.2151 26.3341 19.2335 26.3642 19.2436 26.3974C19.2538 26.4306 19.2555 26.4659 19.2485 26.4999L18.7814 28.7868C18.7743 28.822 18.7764 28.8585 18.7876 28.8926C18.7988 28.9267 18.8186 28.9574 18.8452 28.9815C18.8717 29.0057 18.9041 29.0225 18.9392 29.0304C18.9742 29.0383 19.0107 29.037 19.0451 29.0265L20.0157 28.7313C20.1661 28.6856 20.3109 28.8179 20.2793 28.9719L19.5369 32.5641C19.4906 32.7888 19.7895 32.9113 19.9141 32.7187L19.9971 32.5902L24.5977 23.4088C24.675 23.2548 24.5418 23.0795 24.3732 23.1121L22.7549 23.4245C22.7201 23.4313 22.6841 23.429 22.6504 23.4178C22.6168 23.4067 22.5865 23.3871 22.5626 23.3609C22.5387 23.3346 22.5219 23.3027 22.5139 23.2682C22.5059 23.2336 22.5069 23.1976 22.5168 23.1635L23.5726 19.5029C23.5826 19.4688 23.5835 19.4326 23.5754 19.398C23.5673 19.3633 23.5504 19.3313 23.5263 19.3051C23.5023 19.2789 23.4719 19.2593 23.438 19.2482C23.4042 19.2372 23.3681 19.235 23.3332 19.242Z" fill="url(#paint1_linear_25_444)"/>
</g>
</g>
<defs>
<linearGradient id="paint0_linear_25_444" x1="11.4358" y1="20.5448" x2="20.931" y2="33.4401" gradientUnits="userSpaceOnUse">
<stop stop-color="#41D1FF"/>
<stop offset="1" stop-color="#BD34FE"/>
</linearGradient>
<linearGradient id="paint1_linear_25_444" x1="19.2572" y1="19.5421" x2="20.9748" y2="31.325" gradientUnits="userSpaceOnUse">
<stop stop-color="#FFEA83"/>
<stop offset="0.083" stop-color="#FFDD35"/>
<stop offset="1" stop-color="#FFA800"/>
</linearGradient>
<clipPath id="clip0_25_444">
<rect width="17" height="17" fill="white" transform="translate(11 19)"/>
</clipPath>
<clipPath id="clip1_25_444">
<rect width="17" height="17" fill="white" transform="translate(11.1865 19.0521)"/>
</clipPath>
</defs>
</svg>
