<svg width="31" height="36" viewBox="0 0 31 36" fill="none" xmlns="http://www.w3.org/2000/svg">
<path d="M11 28H7.5625C5.59499 28 4 26.4554 4 24.55V6.5M5.5 5H12.4335C12.808 5 13.1726 5.08562 13.5 5.24495M23 18.5V16.2245C23 15.922 22.9385 15.6252 22.8216 15.35M13.5 5.24495C13.7656 5.37423 14.0067 5.55202 14.2086 5.77196L22.4001 14.6964C22.579 14.8914 22.7209 15.1127 22.8216 15.35M13.5 5.24495V11.9C13.5 13.8054 15.095 15.35 17.0625 15.35H22.8216" stroke="#66B7EA" stroke-width="3"/>
<path d="M20.0002 28.425C20.7872 28.425 21.4252 27.787 21.4252 27C21.4252 26.213 20.7872 25.575 20.0002 25.575C19.2132 25.575 18.5752 26.213 18.5752 27C18.5752 27.787 19.2132 28.425 20.0002 28.425Z" fill="#61DAFB"/>
<path d="M25.4123 24.65C25.1373 24.55 24.8498 24.45 24.5498 24.3625C24.6248 24.0625 24.6873 23.7625 24.7373 23.475C24.9998 21.825 24.7123 20.6625 23.9123 20.2125C23.6748 20.075 23.4123 20.0125 23.1123 20.0125C22.2373 20.0125 21.1248 20.6625 19.9998 21.75C18.8748 20.6625 17.7623 20.0125 16.8873 20.0125C16.5873 20.0125 16.3248 20.075 16.0873 20.2125C15.2873 20.675 14.9998 21.8375 15.2623 23.475C15.3123 23.7625 15.3748 24.0625 15.4498 24.3625C15.1498 24.45 14.8623 24.5375 14.5873 24.65C13.0248 25.25 12.1748 26.075 12.1748 27C12.1748 27.925 13.0373 28.75 14.5873 29.35C14.8623 29.45 15.1498 29.55 15.4498 29.6375C15.3748 29.9375 15.3123 30.2375 15.2623 30.525C14.9998 32.175 15.2873 33.3375 16.0873 33.7875C16.3248 33.925 16.5873 33.9875 16.8873 33.9875C17.7748 33.9875 18.8873 33.3375 19.9998 32.25C21.1248 33.3375 22.2373 33.9875 23.1123 33.9875C23.4123 33.9875 23.6748 33.925 23.9123 33.7875C24.7123 33.325 24.9998 32.1625 24.7373 30.525C24.6873 30.2375 24.6248 29.9375 24.5498 29.6375C24.8498 29.55 25.1373 29.4625 25.4123 29.35C26.9748 28.75 27.8248 27.925 27.8248 27C27.8248 26.075 26.9748 25.25 25.4123 24.65ZM23.5623 20.8375C24.0748 21.1375 24.2498 22.0625 24.0373 23.375C23.9998 23.6375 23.9373 23.9125 23.8623 24.2C23.2123 24.05 22.5248 23.95 21.7998 23.8875C21.3748 23.2875 20.9373 22.75 20.4998 22.2625C21.4248 21.35 22.3623 20.725 23.1248 20.725C23.2873 20.725 23.4373 20.7625 23.5623 20.8375ZM22.1623 28.25C21.9373 28.65 21.6748 29.05 21.3998 29.45C20.9373 29.4875 20.4748 29.5 19.9998 29.5C19.5123 29.5 19.0498 29.4875 18.5998 29.45C18.3248 29.05 18.0748 28.65 17.8498 28.25C17.6123 27.8375 17.3873 27.4125 17.1873 27C17.3873 26.5875 17.6123 26.1625 17.8498 25.75C18.0748 25.35 18.3373 24.95 18.6123 24.55C19.0748 24.5125 19.5373 24.5 20.0123 24.5C20.4998 24.5 20.9623 24.5125 21.4123 24.55C21.6873 24.95 21.9373 25.35 22.1623 25.75C22.3998 26.1625 22.6248 26.5875 22.8248 27C22.6123 27.4125 22.3998 27.825 22.1623 28.25ZM23.1998 27.8375C23.3873 28.275 23.5373 28.7 23.6748 29.125C23.2498 29.225 22.7998 29.3 22.3248 29.3625C22.4748 29.125 22.6373 28.875 22.7748 28.6125C22.9248 28.35 23.0623 28.0875 23.1998 27.8375ZM19.9998 31.225C19.6998 30.9 19.4123 30.55 19.1373 30.1875C19.4248 30.2 19.7123 30.2125 19.9998 30.2125C20.2873 30.2125 20.5748 30.2 20.8623 30.1875C20.5873 30.55 20.2998 30.9 19.9998 31.225ZM17.6748 29.35C17.1998 29.2875 16.7498 29.2125 16.3248 29.1125C16.4623 28.7 16.6123 28.2625 16.7998 27.825C16.9373 28.075 17.0748 28.3375 17.2248 28.5875C17.3748 28.8625 17.5248 29.1 17.6748 29.35ZM16.7998 26.1625C16.6123 25.725 16.4623 25.3 16.3248 24.875C16.7498 24.775 17.1998 24.7 17.6748 24.6375C17.5248 24.875 17.3623 25.125 17.2248 25.3875C17.0748 25.65 16.9373 25.9125 16.7998 26.1625ZM19.9998 22.775C20.2998 23.1 20.5873 23.45 20.8623 23.8125C20.5748 23.8 20.2873 23.7875 19.9998 23.7875C19.7123 23.7875 19.4248 23.8 19.1373 23.8125C19.4123 23.45 19.6998 23.1 19.9998 22.775ZM22.7748 25.4L22.3248 24.65C22.7998 24.7125 23.2498 24.7875 23.6748 24.8875C23.5373 25.3 23.3873 25.7375 23.1998 26.175C23.0623 25.9125 22.9248 25.65 22.7748 25.4ZM15.9623 23.375C15.7498 22.0625 15.9248 21.1375 16.4373 20.8375C16.5623 20.7625 16.7123 20.725 16.8748 20.725C17.6248 20.725 18.5623 21.3375 19.4998 22.2625C19.0623 22.7375 18.6248 23.2875 18.1998 23.8875C17.4748 23.95 16.7873 24.0625 16.1373 24.2C16.0623 23.9125 16.0123 23.6375 15.9623 23.375ZM12.8748 27C12.8748 26.4125 13.5873 25.7875 14.8373 25.325C15.0873 25.225 15.3623 25.1375 15.6373 25.0625C15.8373 25.6875 16.0873 26.35 16.3873 27.0125C16.0873 27.675 15.8248 28.325 15.6373 28.95C13.9123 28.45 12.8748 27.7 12.8748 27ZM16.4373 33.1625C15.9248 32.8625 15.7498 31.9375 15.9623 30.625C15.9998 30.3625 16.0623 30.0875 16.1373 29.8C16.7873 29.95 17.4748 30.05 18.1998 30.1125C18.6248 30.7125 19.0623 31.25 19.4998 31.7375C18.5748 32.65 17.6373 33.275 16.8748 33.275C16.7123 33.275 16.5623 33.2375 16.4373 33.1625ZM24.0373 30.625C24.2498 31.9375 24.0748 32.8625 23.5623 33.1625C23.4373 33.2375 23.2873 33.275 23.1248 33.275C22.3748 33.275 21.4373 32.6625 20.4998 31.7375C20.9373 31.2625 21.3748 30.7125 21.7998 30.1125C22.5248 30.05 23.2123 29.9375 23.8623 29.8C23.9373 30.0875 23.9873 30.3625 24.0373 30.625ZM25.1623 28.675C24.9123 28.775 24.6373 28.8625 24.3623 28.9375C24.1623 28.3125 23.9123 27.65 23.6123 26.9875C23.9123 26.325 24.1748 25.675 24.3623 25.05C26.0873 25.55 27.1248 26.3 27.1248 27C27.1248 27.5875 26.3998 28.2125 25.1623 28.675Z" fill="#61DAFB"/>
</svg>
