<svg width="31" height="36" viewBox="0 0 31 36" fill="none" xmlns="http://www.w3.org/2000/svg">
<path d="M11 28H7.5625C5.59499 28 4 26.4554 4 24.55V6.5M5.5 5H12.4335C12.808 5 13.1726 5.08562 13.5 5.24495M23 18.5V16.2245C23 15.922 22.9385 15.6252 22.8216 15.35M13.5 5.24495C13.7656 5.37423 14.0067 5.55202 14.2086 5.77196L22.4001 14.6964C22.579 14.8914 22.7209 15.1127 22.8216 15.35M13.5 5.24495V11.9C13.5 13.8054 15.095 15.35 17.0625 15.35H22.8216" stroke="#E44F26" stroke-width="3"/>
<path d="M13.9506 32.6005L12.8271 20H25.1721L24.0471 32.5985L18.9921 34L13.9506 32.6005Z" fill="#E44F26"/>
<path d="M19 32.929L23.085 31.7965L24.046 21.0305H19V32.929Z" fill="#F1662A"/>
<path d="M19 25.7035H16.955L16.814 24.121H19V22.5755H15.125L15.162 22.9905L15.5415 27.249H19V25.7035ZM19 29.717L18.993 29.719L17.272 29.2545L17.162 28.022H15.6105L15.827 30.448L18.993 31.327L19 31.325V29.717Z" fill="#EBEBEB"/>
<path d="M18.9941 25.7035V27.249H20.8971L20.7181 29.2535L18.9941 29.7185V31.3265L22.1626 30.448L22.1856 30.187L22.5486 26.1185L22.5866 25.7035H18.9941ZM18.9941 22.5755V24.121H22.7271L22.7581 23.774L22.8286 22.9905L22.8656 22.5755H18.9941Z" fill="white"/>
</svg>
