<svg width="31" height="36" viewBox="0 0 31 36" fill="none" xmlns="http://www.w3.org/2000/svg">
<path d="M11 28H7.5625C5.59499 28 4 26.4554 4 24.55V6.5M5.5 5H12.4335C12.808 5 13.1726 5.08562 13.5 5.24495M23 18.5V16.2245C23 15.922 22.9385 15.6252 22.8216 15.35M13.5 5.24495C13.7656 5.37423 14.0067 5.55202 14.2086 5.77196L22.4001 14.6964C22.579 14.8914 22.7209 15.1127 22.8216 15.35M13.5 5.24495V11.9C13.5 13.8054 15.095 15.35 17.0625 15.35H22.8216" stroke="#73B5B0" stroke-width="3"/>
<g clip-path="url(#clip0_25_497)">
<path d="M25.3337 31C25.3337 31.1768 25.2634 31.3464 25.1384 31.4714C25.0134 31.5964 24.8438 31.6667 24.667 31.6667H22.0003C21.4699 31.6667 20.9612 31.8774 20.5861 32.2525C20.211 32.6275 20.0003 33.1363 20.0003 33.6667C20.0003 33.1363 19.7896 32.6275 19.4145 32.2525C19.0395 31.8774 18.5308 31.6667 18.0003 31.6667H15.3337C15.1568 31.6667 14.9873 31.5964 14.8623 31.4714C14.7372 31.3464 14.667 31.1768 14.667 31H13.3337C13.3337 31.5305 13.5444 32.0392 13.9194 32.4142C14.2945 32.7893 14.8032 33 15.3337 33H18.0003C18.3539 33 18.6931 33.1405 18.9431 33.3905C19.1932 33.6406 19.3337 33.9797 19.3337 34.3334H20.667C20.667 33.9797 20.8075 33.6406 21.0575 33.3905C21.3076 33.1405 21.6467 33 22.0003 33H24.667C25.1974 33 25.7061 32.7893 26.0812 32.4142C26.4563 32.0392 26.667 31.5305 26.667 31H25.3337ZM25.3337 23C25.3337 22.8232 25.2634 22.6536 25.1384 22.5286C25.0134 22.4036 24.8438 22.3334 24.667 22.3334H22.0003C21.4699 22.3334 20.9612 22.1226 20.5861 21.7476C20.211 21.3725 20.0003 20.8638 20.0003 20.3334C20.0003 20.8638 19.7896 21.3725 19.4145 21.7476C19.0395 22.1226 18.5308 22.3334 18.0003 22.3334H15.3337C15.1568 22.3334 14.9873 22.4036 14.8623 22.5286C14.7372 22.6536 14.667 22.8232 14.667 23H13.3337C13.3337 22.4696 13.5444 21.9609 13.9194 21.5858C14.2945 21.2107 14.8032 21 15.3337 21H18.0003C18.3539 21 18.6931 20.8595 18.9431 20.6095C19.1932 20.3594 19.3337 20.0203 19.3337 19.6667H20.667C20.667 20.0203 20.8075 20.3594 21.0575 20.6095C21.3076 20.8595 21.6467 21 22.0003 21H24.667C25.1974 21 25.7061 21.2107 26.0812 21.5858C26.4563 21.9609 26.667 22.4696 26.667 23H25.3337ZM20.0003 27L18.0003 24.3334H16.667V29.6667H18.0003V27L20.0003 29.6667H21.3337V24.3334H20.0003V27ZM26.0003 24.3334L24.667 27.8467L23.3337 24.3334H22.0003L24.0003 29.6667H25.3337L27.3337 24.3334H26.0003ZM12.667 24.3334V29.6667H16.0003V28.3334H14.0003V27.6667H15.3337V26.3334H14.0003V25.6667H16.0003V24.3334H12.667Z" fill="#3D8C87"/>
</g>
<defs>
<clipPath id="clip0_25_497">
<rect width="16" height="16" fill="white" transform="translate(12 19)"/>
</clipPath>
</defs>
</svg>
