<svg width="31" height="36" viewBox="0 0 31 36" fill="none" xmlns="http://www.w3.org/2000/svg">
<path d="M11 28H7.5625C5.59499 28 4 26.4554 4 24.55V6.5M5.5 5H12.4335C12.808 5 13.1726 5.08562 13.5 5.24495M23 18.5V16.2245C23 15.922 22.9385 15.6252 22.8216 15.35M13.5 5.24495C13.7656 5.37423 14.0067 5.55202 14.2086 5.77196L22.4001 14.6964C22.579 14.8914 22.7209 15.1127 22.8216 15.35M13.5 5.24495V11.9C13.5 13.8054 15.095 15.35 17.0625 15.35H22.8216" stroke="#F44336" stroke-width="3"/>
<path d="M23.7791 20.2504C25.3657 20.5209 25.8184 21.6096 25.7929 22.7486V22.7246L25.0753 32.1213L15.7735 32.7567H15.7792C15.005 32.7255 13.2872 32.6497 13.2051 30.2456L14.0671 28.6717L15.811 32.7376L17.2964 27.9421L17.2645 27.9485L17.2773 27.9358L22.1294 29.4842L20.8777 24.5875L25.5032 24.2978L21.8595 21.3143L23.7791 20.2447V20.2504ZM15.8989 22.8691C17.7618 21.0118 20.1722 19.9167 21.098 20.8546C22.0167 21.7796 21.047 24.0584 19.1841 25.9085C17.2957 27.7594 14.9235 28.9175 13.9977 27.9861C13.0726 27.0482 14.0232 24.7192 15.8925 22.8691H15.8989Z" fill="#F44336"/>
</svg>
