<svg width="31" height="36" viewBox="0 0 31 36" fill="none" xmlns="http://www.w3.org/2000/svg">
<path d="M11 28H7.5625C5.59499 28 4 26.4554 4 24.55V6.5M5.5 5H12.4335C12.808 5 13.1726 5.08562 13.5 5.24495M23 18.5V16.2245C23 15.922 22.9385 15.6252 22.8216 15.35M13.5 5.24495C13.7656 5.37423 14.0067 5.55202 14.2086 5.77196L22.4001 14.6964C22.579 14.8914 22.7209 15.1127 22.8216 15.35M13.5 5.24495V11.9C13.5 13.8054 15.095 15.35 17.0625 15.35H22.8216" stroke="#FF8D28" stroke-width="3"/>
<path d="M21.0561 27.1906L20.0186 19.5938H19.941C18.1297 19.5968 16.3933 20.3169 15.1113 21.5965C13.8293 22.8761 13.1061 24.6111 13.0996 26.4224V26.5L21.0561 27.1906Z" fill="#ED6C47"/>
<path d="M20.0961 19.5938H20.0186V26.5L23.4775 27.8812L26.937 26.5V26.4224C26.9306 24.6112 26.2074 22.8762 24.9255 21.5966C23.6436 20.3171 21.9073 19.597 20.0961 19.5938Z" fill="#FF8F6B"/>
<path d="M26.9371 26.5V26.576C26.9303 28.3875 26.2069 30.1228 24.9248 31.4026C23.6427 32.6824 21.9061 33.4028 20.0946 33.4062H19.9421C18.1306 33.4025 16.3943 32.682 15.1122 31.4023C13.8302 30.1225 13.1066 28.3874 13.0996 26.576V26.5H26.9371Z" fill="#D35230"/>
<path opacity="0.1" d="M20.3645 22.9879V30.3569C20.3635 30.4823 20.3256 30.6046 20.2555 30.7085C20.1854 30.8125 20.0862 30.8934 19.9703 30.9413C19.8944 30.9726 19.8133 30.989 19.7312 30.9896H14.7327C14.6357 30.8784 14.5433 30.7632 14.4559 30.6443C13.5749 29.4712 13.0989 28.0436 13.0996 26.5765V26.4246C13.0978 25.1012 13.4852 23.8065 14.2136 22.7016C14.2893 22.583 14.3701 22.4677 14.4559 22.3563H19.7312C19.8985 22.3574 20.0587 22.4242 20.1772 22.5424C20.2957 22.6606 20.3629 22.8206 20.3645 22.9879Z" fill="black"/>
<path opacity="0.2" d="M20.0186 23.3337V30.7027C20.0179 30.7844 20.0015 30.8652 19.9703 30.9407C19.9223 31.0565 19.8413 31.1556 19.7374 31.2256C19.6335 31.2956 19.5112 31.3334 19.3859 31.3344H15.0477C14.9383 31.2231 14.8333 31.108 14.7327 30.989C14.6357 30.8778 14.5433 30.7626 14.4559 30.6437C13.5749 29.4706 13.0989 28.043 13.0996 26.5759V26.424C13.0979 25.1008 13.4853 23.8063 14.2136 22.7015H19.3854C19.5528 22.7026 19.7131 22.7696 19.8315 22.8879C19.95 23.0062 20.0172 23.1663 20.0186 23.3337Z" fill="black"/>
<path opacity="0.2" d="M20.0186 23.3337V30.0121C20.0171 30.1794 19.9498 30.3394 19.8314 30.4576C19.7129 30.5758 19.5527 30.6426 19.3854 30.6437H14.4559C13.5749 29.4706 13.0989 28.043 13.0996 26.5759V26.424C13.0979 25.1008 13.4853 23.8063 14.2136 22.7015H19.3854C19.5528 22.7026 19.7131 22.7696 19.8315 22.8879C19.95 23.0062 20.0172 23.1663 20.0186 23.3337Z" fill="black"/>
<path opacity="0.2" d="M19.6728 23.3337V30.0121C19.6712 30.1794 19.604 30.3394 19.4855 30.4576C19.367 30.5758 19.2069 30.6426 19.0395 30.6437H14.4559C13.5749 29.4706 13.0989 28.043 13.0996 26.5759V26.424C13.0979 25.1008 13.4853 23.8063 14.2136 22.7015H19.0395C19.2069 22.7026 19.3672 22.7696 19.4857 22.8879C19.6042 23.0062 19.6714 23.1663 19.6728 23.3337Z" fill="black"/>
<path d="M12.6968 22.7015H19.0389C19.2069 22.7014 19.3681 22.768 19.487 22.8866C19.6059 23.0053 19.6729 23.1663 19.6732 23.3343V29.6657C19.6729 29.8337 19.6059 29.9947 19.487 30.1133C19.3681 30.232 19.2069 30.2986 19.0389 30.2984H12.6968C12.6136 30.2987 12.5311 30.2825 12.4541 30.2509C12.3771 30.2192 12.3072 30.1726 12.2482 30.1138C12.1893 30.055 12.1425 29.9852 12.1107 29.9083C12.0788 29.8314 12.0624 29.7489 12.0625 29.6657V23.3343C12.0624 23.251 12.0788 23.1686 12.1107 23.0917C12.1425 23.0148 12.1893 22.9449 12.2482 22.8861C12.3072 22.8274 12.3771 22.7808 12.4541 22.7491C12.5311 22.7174 12.6136 22.7013 12.6968 22.7015Z" fill="url(#paint0_linear_25_844)"/>
<path d="M15.9372 24.3899C16.35 24.3627 16.7591 24.4824 17.0921 24.7278C17.229 24.8496 17.3363 25.001 17.4058 25.1704C17.4754 25.3399 17.5055 25.523 17.4938 25.7058C17.4983 25.9633 17.4295 26.2168 17.2956 26.4368C17.1597 26.653 16.9644 26.8255 16.733 26.9335C16.4685 27.0563 16.1794 27.117 15.8878 27.111H15.084V28.5985H14.2627V24.3899H15.9372ZM15.0835 26.4681H15.7906C16.0147 26.4841 16.237 26.4178 16.4159 26.2817C16.4889 26.212 16.5458 26.1271 16.5826 26.033C16.6193 25.9389 16.6349 25.8379 16.6284 25.7371C16.6284 25.2735 16.3583 25.0416 15.8182 25.0412H15.0835V26.4681Z" fill="white"/>
<defs>
<linearGradient id="paint0_linear_25_844" x1="13.3874" y1="22.2043" x2="18.3482" y2="30.7957" gradientUnits="userSpaceOnUse">
<stop stop-color="#CA4C28"/>
<stop offset="0.5" stop-color="#C5401E"/>
<stop offset="1" stop-color="#B62F14"/>
</linearGradient>
</defs>
</svg>
