<svg width="31" height="36" viewBox="0 0 31 36" fill="none" xmlns="http://www.w3.org/2000/svg">
<path d="M11 28H7.5625C5.59499 28 4 26.4554 4 24.55V6.5M5.5 5H12.4335C12.808 5 13.1726 5.08562 13.5 5.24495M23 18.5V16.2245C23 15.922 22.9385 15.6252 22.8216 15.35M13.5 5.24495C13.7656 5.37423 14.0067 5.55202 14.2086 5.77196L22.4001 14.6964C22.579 14.8914 22.7209 15.1127 22.8216 15.35M13.5 5.24495V11.9C13.5 13.8054 15.095 15.35 17.0625 15.35H22.8216" stroke="#FF3E00" stroke-width="3"/>
<path d="M25.8035 21.117C24.3189 18.9905 21.386 18.3603 19.266 19.712L15.542 22.087C15.0381 22.4032 14.6057 22.8211 14.2725 23.3139C13.9393 23.8067 13.7126 24.3637 13.607 24.9491C13.5599 25.2119 13.5359 25.4799 13.5355 25.7486C13.5378 26.4775 13.7163 27.195 14.0559 27.8399C13.7375 28.324 13.5203 28.8674 13.4172 29.4375C13.3116 30.0335 13.3264 30.6513 13.4604 31.239C13.5945 31.8306 13.8452 32.3895 14.1979 32.883C15.6826 35.0093 18.6221 35.6396 20.7354 34.288L24.4556 31.9129C24.9592 31.5963 25.3911 31.1779 25.7234 30.6845C26.0557 30.1912 26.2812 29.6338 26.3854 29.0481C26.4332 28.7848 26.4572 28.5176 26.4569 28.2499C26.4559 27.5224 26.2796 26.806 25.9429 26.1611C26.2612 25.6775 26.4785 25.1346 26.5819 24.5649C26.628 24.3011 26.6515 24.0343 26.6521 23.7666C26.6524 22.8173 26.3558 21.8917 25.8038 21.1194L25.8035 21.117Z" fill="#FF3E00"/>
<path d="M18.9024 33.0828C18.6578 33.1458 18.4083 33.1777 18.1581 33.1778C17.6804 33.1777 17.2099 33.0618 16.7867 32.84C16.3636 32.6183 16.0006 32.2972 15.7288 31.9044C15.3968 31.4397 15.2185 30.8829 15.2188 30.3119C15.219 30.1509 15.2329 29.9903 15.2604 29.8328C15.2827 29.7142 15.3128 29.5979 15.3504 29.485L15.4205 29.2715L15.6105 29.416C16.0515 29.7398 16.5443 29.9863 17.0678 30.1453L17.2058 30.1869L17.1928 30.3249V30.3965C17.1925 30.5692 17.2462 30.7376 17.3463 30.8783C17.4271 30.998 17.536 31.0962 17.6635 31.1643C17.794 31.2331 17.935 31.2688 18.0775 31.2689C18.1527 31.2692 18.2278 31.2596 18.3013 31.2403C18.381 31.2194 18.4581 31.1857 18.5304 31.14L22.2504 28.7533C22.3619 28.6824 22.4537 28.5845 22.5172 28.4686C22.5807 28.3527 22.6137 28.2227 22.6134 28.0905C22.6123 27.9178 22.5572 27.7498 22.4559 27.61C22.3738 27.4918 22.2643 27.3953 22.1368 27.3285C22.0062 27.2611 21.8655 27.2267 21.7234 27.2273C21.6481 27.227 21.5731 27.2366 21.4996 27.256C21.4202 27.2764 21.3435 27.3101 21.2719 27.3561L19.8536 28.2624C19.6149 28.4128 19.3607 28.5244 19.0976 28.5944C18.5117 28.747 17.8932 28.7159 17.3255 28.5054C16.7579 28.2949 16.2686 27.9151 15.9239 27.4174C15.5922 26.9526 15.414 26.3959 15.4139 25.8249C15.4141 25.6643 15.4281 25.504 15.4555 25.3458C15.5191 24.9939 15.6551 24.6591 15.8549 24.3625C16.0548 24.066 16.314 23.8142 16.6163 23.6231L20.3403 21.2494C20.5739 21.1007 20.8288 20.9883 21.0963 20.916C21.3394 20.8538 21.5895 20.8223 21.8405 20.8223C22.3192 20.8213 22.791 20.9364 23.2154 21.1577C23.6399 21.3791 24.0043 21.7 24.2775 22.0931C24.6071 22.5591 24.7832 23.1162 24.7811 23.6869C24.7809 23.8484 24.7669 24.0094 24.7394 24.1674C24.7171 24.2859 24.6871 24.4022 24.6496 24.515L24.5794 24.7285L24.3894 24.5893C23.9487 24.2649 23.4559 24.0183 22.9321 23.86L22.7941 23.8171L22.8071 23.679V23.6075C22.8071 23.4345 22.7535 23.2657 22.6536 23.1244C22.5717 23.0062 22.4623 22.9097 22.3349 22.8431C22.2046 22.7758 22.0642 22.7412 21.9224 22.7415C21.8478 22.7431 21.7736 22.7545 21.7011 22.7754C21.6212 22.7955 21.5442 22.8292 21.4723 22.8756L17.7481 25.2494C17.6598 25.3045 17.5817 25.3807 17.5186 25.4731C17.4597 25.5595 17.4185 25.6613 17.3983 25.7703C17.3891 25.8155 17.3834 25.8617 17.3813 25.9083C17.3812 26.0805 17.4348 26.2485 17.5348 26.3888C17.6166 26.5069 17.726 26.6035 17.8534 26.67C17.9837 26.7374 18.1241 26.772 18.266 26.7715C18.3412 26.7718 18.4163 26.7621 18.4898 26.7428C18.5697 26.7225 18.6468 26.6888 18.7189 26.6426L20.1398 25.7311C20.3783 25.5805 20.6326 25.4689 20.8958 25.3991C21.1404 25.3362 21.3898 25.3043 21.64 25.3041C22.1178 25.3041 22.5885 25.4198 23.0118 25.6413C23.4351 25.8628 23.7985 26.1837 24.0708 26.5763C24.2831 26.8738 24.4338 27.2108 24.514 27.5675C24.5942 27.9241 24.6023 28.2932 24.5379 28.653C24.4746 29.005 24.3388 29.34 24.1389 29.6366C23.9391 29.9332 23.6796 30.1849 23.3771 30.3756L19.6596 32.7494C19.4207 32.9005 19.1659 33.0126 18.9024 33.0828Z" fill="white"/>
</svg>
