<svg width="31" height="36" viewBox="0 0 31 36" fill="none" xmlns="http://www.w3.org/2000/svg">
<path d="M11 28H7.5625C5.59499 28 4 26.4554 4 24.55V6.5M5.5 5H12.4335C12.808 5 13.1726 5.08562 13.5 5.24495M23 18.5V16.2245C23 15.922 22.9385 15.6252 22.8216 15.35M13.5 5.24495C13.7656 5.37423 14.0067 5.55202 14.2086 5.77196L22.4001 14.6964C22.579 14.8914 22.7209 15.1127 22.8216 15.35M13.5 5.24495V11.9C13.5 13.8054 15.095 15.35 17.0625 15.35H22.8216" stroke="#00DC82" stroke-width="3"/>
<path d="M20.9599 32.3334H26.8798C27.069 32.3334 27.25 32.2668 27.4132 32.173C27.5766 32.0793 27.7458 31.962 27.8401 31.7998C27.9345 31.6375 28 31.4536 28 31.2668C28 31.0799 27.9345 30.8954 27.8401 30.7333L23.8401 23.8535C23.7458 23.6914 23.6301 23.5735 23.4664 23.4796C23.3024 23.3858 23.0689 23.3198 22.8795 23.3198C22.6903 23.3198 22.5099 23.3864 22.3466 23.4796C22.1834 23.5729 22.0676 23.6913 21.9733 23.8535L20.9598 25.6135L18.9331 22.1996C18.8387 22.0375 18.7231 21.8671 18.5599 21.7734C18.3966 21.6796 18.2155 21.6666 18.0262 21.6666C17.837 21.6666 17.6566 21.6796 17.4932 21.7734C17.33 21.8671 17.1607 22.0375 17.0664 22.1996L12.1067 30.733C12.0124 30.8951 12 31.0793 12 31.2668C12 31.4543 12.0124 31.6375 12.1067 31.7996C12.201 31.9618 12.3696 32.0796 12.5336 32.1729C12.6975 32.2663 12.8779 32.3334 13.0666 32.3334H16.8C18.2794 32.3334 19.3561 31.6696 20.1066 30.4129L21.9198 27.2666L22.8795 25.6134L25.813 30.6264H21.9199L20.9599 32.3334ZM16.7463 30.6263H14.1332L18.0266 23.9063L20 27.2668L18.6929 29.5451C18.1946 30.3605 17.6263 30.6264 16.7464 30.6264L16.7463 30.6263Z" fill="#00DC82"/>
</svg>
