<svg width="39" height="38" viewBox="0 0 39 38" fill="none" xmlns="http://www.w3.org/2000/svg">
<path d="M31.3208 10.0399H22.5834L19.7257 7.18225C18.9667 6.42323 17.9419 6 16.868 6H9.04004V10.0399H16.8715L19.7292 12.8976C20.4882 13.6566 21.5131 14.0799 22.5869 14.0799H30.4184V20.5H34.4583V13.1774C34.4583 11.446 33.0557 10.0399 31.3208 10.0399Z" fill="#97C8A2"/>
<path d="M9 19C7.4379 19 6.5 19.5 6 20C5.5 20.5 5 21 5 22C5 23 5 28.4171 5 28.4171C5 30.1485 6.4026 31.5546 8.13749 31.5546H24.5V27.5L9.03992 27.5147L9 19Z" fill="#97C8A2"/>
<path d="M25.0004 24H21.0004V22H9.00037V19H21C22.6706 19 23.5351 19.5841 24 20C24.7003 20.6266 25.0557 21.2567 25.0557 22L25.0004 24Z" fill="#97C8A2"/>
<path fill-rule="evenodd" clip-rule="evenodd" d="M29.079 29.2779L28.8117 28.125H27.2817L27.016 29.2779C26.998 29.3559 26.9648 29.4296 26.9183 29.4948C26.8718 29.5599 26.8129 29.6153 26.745 29.6577C26.6771 29.7001 26.6015 29.7287 26.5225 29.7419C26.4436 29.7551 26.3628 29.7526 26.2848 29.7346C26.2068 29.7165 26.1331 29.6833 26.068 29.6368C26.0028 29.5903 25.9474 29.5314 25.905 29.4635C25.8626 29.3956 25.834 29.32 25.8208 29.2411C25.8076 29.1621 25.8101 29.0813 25.8282 29.0033L26.9559 24.1194C27.0133 23.873 27.1524 23.6534 27.3505 23.4961C27.5487 23.3389 27.7942 23.2533 28.0471 23.2533C28.3 23.2533 28.5455 23.3389 28.7437 23.4961C28.9418 23.6534 29.0809 23.873 29.1383 24.1194L30.266 29.0041C30.2841 29.0821 30.2866 29.1629 30.2734 29.2419C30.2602 29.3208 30.2316 29.3964 30.1892 29.4643C30.1468 29.5322 30.0914 29.5911 30.0263 29.6376C29.9611 29.6841 29.8874 29.7173 29.8094 29.7354C29.7314 29.7534 29.6506 29.7559 29.5717 29.7427C29.4927 29.7295 29.4171 29.7009 29.3492 29.6585C29.2813 29.6161 29.2224 29.5607 29.1759 29.4956C29.1294 29.4304 29.0962 29.3567 29.0782 29.2787M28.0463 24.81L28.5314 26.9062H27.5637L28.0463 24.81ZM36.7815 23.8594C36.7815 23.6978 36.7173 23.5428 36.603 23.4285C36.4887 23.3142 36.3337 23.25 36.1721 23.25C36.0105 23.25 35.8555 23.3142 35.7412 23.4285C35.6269 23.5428 35.5627 23.6978 35.5627 23.8594V29.1406C35.5627 29.3022 35.6269 29.4572 35.7412 29.5715C35.8555 29.6858 36.0105 29.75 36.1721 29.75C36.3337 29.75 36.4887 29.6858 36.603 29.5715C36.7173 29.4572 36.7815 29.3022 36.7815 29.1406V23.8594ZM31.7034 23.25C31.5417 23.25 31.3867 23.3142 31.2725 23.4285C31.1582 23.5428 31.094 23.6978 31.094 23.8594V29.1406C31.094 29.3022 31.1582 29.4572 31.2725 29.5715C31.3867 29.6858 31.5417 29.75 31.7034 29.75C31.865 29.75 32.02 29.6858 32.1342 29.5715C32.2485 29.4572 32.3127 29.3022 32.3127 29.1406V27.7188H32.719C33.3116 27.7188 33.8799 27.4833 34.2989 27.0643C34.7179 26.6453 34.9534 26.077 34.9534 25.4844C34.9534 24.8918 34.7179 24.3235 34.2989 23.9044C33.8799 23.4854 33.3116 23.25 32.719 23.25H31.7034ZM32.719 26.5H32.3127V24.4688H32.719C32.9883 24.4688 33.2467 24.5758 33.4371 24.7662C33.6276 24.9567 33.7346 25.215 33.7346 25.4844C33.7346 25.7537 33.6276 26.0121 33.4371 26.2025C33.2467 26.393 32.9883 26.5 32.719 26.5Z" fill="#3D8C7D"/>
</svg>
