<svg width="39" height="38" viewBox="0 0 39 38" fill="none" xmlns="http://www.w3.org/2000/svg">
<path d="M31.3208 10.0399H22.5834L19.7257 7.18225C18.9667 6.42323 17.9419 6 16.868 6H9.04004V10.0399H16.8715L19.7292 12.8976C20.4882 13.6566 21.5131 14.0799 22.5869 14.0799H30.4184L30.5 21.5H34.4583V13.1774C34.4583 11.446 33.0557 10.0399 31.3208 10.0399Z" fill="#97C8A2"/>
<path d="M9.03991 10.0398H5V28.4171C5 30.1485 6.4026 31.5546 8.13749 31.5546H25V27.5147H9.03991V10.0398Z" fill="#97C8A2"/>
<path fill-rule="evenodd" clip-rule="evenodd" d="M29.079 30.2779L28.8117 29.125H27.2817L27.016 30.2779C26.998 30.3559 26.9648 30.4296 26.9183 30.4948C26.8718 30.5599 26.8129 30.6153 26.745 30.6577C26.6771 30.7001 26.6015 30.7287 26.5225 30.7419C26.4436 30.7551 26.3628 30.7526 26.2848 30.7346C26.2068 30.7165 26.1331 30.6833 26.068 30.6368C26.0028 30.5903 25.9474 30.5314 25.905 30.4635C25.8626 30.3956 25.834 30.32 25.8208 30.2411C25.8076 30.1621 25.8101 30.0813 25.8282 30.0033L26.9559 25.1194C27.0133 24.873 27.1524 24.6534 27.3505 24.4961C27.5487 24.3389 27.7942 24.2533 28.0471 24.2533C28.3 24.2533 28.5455 24.3389 28.7437 24.4961C28.9418 24.6534 29.0809 24.873 29.1383 25.1194L30.266 30.0041C30.2841 30.0821 30.2866 30.1629 30.2734 30.2419C30.2602 30.3208 30.2316 30.3964 30.1892 30.4643C30.1468 30.5322 30.0914 30.5911 30.0263 30.6376C29.9611 30.6841 29.8874 30.7173 29.8094 30.7354C29.7314 30.7534 29.6506 30.7559 29.5717 30.7427C29.4927 30.7295 29.4171 30.7009 29.3492 30.6585C29.2813 30.6161 29.2224 30.5607 29.1759 30.4956C29.1294 30.4304 29.0962 30.3567 29.0782 30.2787M28.0463 25.81L28.5314 27.9062H27.5637L28.0463 25.81ZM36.7815 24.8594C36.7815 24.6978 36.7173 24.5428 36.603 24.4285C36.4887 24.3142 36.3337 24.25 36.1721 24.25C36.0105 24.25 35.8555 24.3142 35.7412 24.4285C35.6269 24.5428 35.5627 24.6978 35.5627 24.8594V30.1406C35.5627 30.3022 35.6269 30.4572 35.7412 30.5715C35.8555 30.6858 36.0105 30.75 36.1721 30.75C36.3337 30.75 36.4887 30.6858 36.603 30.5715C36.7173 30.4572 36.7815 30.3022 36.7815 30.1406V24.8594ZM31.7034 24.25C31.5417 24.25 31.3867 24.3142 31.2725 24.4285C31.1582 24.5428 31.094 24.6978 31.094 24.8594V30.1406C31.094 30.3022 31.1582 30.4572 31.2725 30.5715C31.3867 30.6858 31.5417 30.75 31.7034 30.75C31.865 30.75 32.02 30.6858 32.1342 30.5715C32.2485 30.4572 32.3127 30.3022 32.3127 30.1406V28.7188H32.719C33.3116 28.7188 33.8799 28.4833 34.2989 28.0643C34.7179 27.6453 34.9534 27.077 34.9534 26.4844C34.9534 25.8918 34.7179 25.3235 34.2989 24.9044C33.8799 24.4854 33.3116 24.25 32.719 24.25H31.7034ZM32.719 27.5H32.3127V25.4688H32.719C32.9883 25.4688 33.2467 25.5758 33.4371 25.7662C33.6276 25.9567 33.7346 26.215 33.7346 26.4844C33.7346 26.7537 33.6276 27.0121 33.4371 27.2025C33.2467 27.393 32.9883 27.5 32.719 27.5Z" fill="#3D8C7D"/>
</svg>
