<svg width="39" height="38" viewBox="0 0 39 38" fill="none" xmlns="http://www.w3.org/2000/svg">
<path d="M31.3208 10.0399H22.5834L19.7257 7.18225C18.9667 6.42323 17.9419 6 16.868 6H9.04004V10.0399H16.8715L19.7292 12.8976C20.4882 13.6566 21.5131 14.0799 22.5869 14.0799H30.4184V20.5H34.4583V13.1774C34.4583 11.446 33.0557 10.0399 31.3208 10.0399Z" fill="#798DFF" fill-opacity="0.45"/>
<path d="M9 19C7.4379 19 6.5 19.5 6 20C5.5 20.5 5 21 5 22C5 23 5 28.4171 5 28.4171C5 30.1485 6.4026 31.5546 8.13749 31.5546H24.5V27.5L9.03992 27.5147L9 19Z" fill="#798DFF" fill-opacity="0.45"/>
<path d="M25.0004 24H21.0004V22H9.00037V19H21C22.6706 19 23.5351 19.5841 24 20C24.7003 20.6266 25.0557 21.2567 25.0557 22L25.0004 24Z" fill="#798DFF" fill-opacity="0.45"/>
<path d="M28.3337 28.0416H32.667V26.9583H28.3337V28.0416ZM28.3337 29.6666H32.667V28.5833H28.3337V29.6666ZM28.3337 31.2916H31.042V30.2083H28.3337V31.2916ZM27.2503 32.9166C26.9524 32.9166 26.6975 32.8107 26.4855 32.5987C26.2735 32.3867 26.1674 32.1316 26.167 31.8333V23.1666C26.167 22.8687 26.2732 22.6138 26.4855 22.4018C26.6978 22.1898 26.9528 22.0837 27.2503 22.0833H31.5837L34.8337 25.3333V31.8333C34.8337 32.1312 34.7277 32.3864 34.5157 32.5987C34.3037 32.811 34.0486 32.917 33.7503 32.9166H27.2503ZM31.042 25.875H33.7503L31.042 23.1666V25.875Z" fill="#3755FA"/>
</svg>
