<svg width="39" height="38" viewBox="0 0 39 38" fill="none" xmlns="http://www.w3.org/2000/svg">
<path d="M31.3208 10.0399H22.5834L19.7257 7.18225C18.9667 6.42323 17.9419 6 16.868 6H9.04004V10.0399H16.8715L19.7292 12.8976C20.4882 13.6566 21.5131 14.0799 22.5869 14.0799H30.4184L30.5 21.5H34.4583V13.1774C34.4583 11.446 33.0557 10.0399 31.3208 10.0399Z" fill="#798DFF" fill-opacity="0.45"/>
<path d="M9.03991 10.0398H5V28.4171C5 30.1485 6.4026 31.5546 8.13749 31.5546H25V27.5147H9.03991V10.0398Z" fill="#798DFF" fill-opacity="0.45"/>
<path d="M29 28.5H33V27.5H29V28.5ZM29 30H33V29H29V30ZM29 31.5H31.5V30.5H29V31.5ZM28 33C27.725 33 27.4897 32.9022 27.294 32.7065C27.0983 32.5108 27.0003 32.2753 27 32V24C27 23.725 27.098 23.4897 27.294 23.294C27.49 23.0983 27.7253 23.0003 28 23H32L35 26V32C35 32.275 34.9022 32.5105 34.7065 32.7065C34.5108 32.9025 34.2753 33.0003 34 33H28ZM31.5 26.5H34L31.5 24V26.5Z" fill="#3755FA"/>
</svg>
