<svg width="31" height="36" viewBox="0 0 31 36" fill="none" xmlns="http://www.w3.org/2000/svg">
<path d="M11 28H7.5625C5.59499 28 4 26.4554 4 24.55V6.5M5.5 5H12.4335C12.808 5 13.1726 5.08562 13.5 5.24495M23 18.5V16.2245C23 15.922 22.9385 15.6252 22.8216 15.35M13.5 5.24495C13.7656 5.37423 14.0067 5.55202 14.2086 5.77196L22.4001 14.6964C22.579 14.8914 22.7209 15.1127 22.8216 15.35M13.5 5.24495V11.9C13.5 13.8054 15.095 15.35 17.0625 15.35H22.8216" stroke="#CECECE" stroke-width="3"/>
<path d="M13.125 23.6667H15.9583M14.5417 23.6667V29.3334M23.0417 23.6667H25.875M24.4583 23.6667V29.3334M18.0833 23.6667L20.9167 29.3334M18.0833 29.3334L20.9167 23.6667" stroke="#4E9BCE" stroke-width="0.844167" stroke-linecap="round" stroke-linejoin="round"/>
</svg>
