<svg width="12" height="12" viewBox="0 0 12 12" fill="none" xmlns="http://www.w3.org/2000/svg">
<g clip-path="url(#clip0_33_459)">
<path d="M2.21334 10.2004L1.37109 0.75H10.6291L9.78572 10.1989L5.99447 11.25L2.21334 10.2004Z" fill="#1572B6"/>
<path d="M6 10.4468L9.06375 9.59739L9.7845 1.52289H6V10.4468Z" fill="#33A9DC"/>
<path d="M2.75488 5.51775C3.60013 5.51775 3.71938 5.17537 3.71938 4.8675C3.71188 4.61918 3.67973 4.37221 3.62338 4.13025C3.56793 3.89082 3.53616 3.64652 3.52851 3.40088C3.52813 2.59238 4.24251 2.25 5.25463 2.25H5.50476V2.73338H5.29063C4.58788 2.73338 4.35051 3.01425 4.35051 3.48863C4.35485 3.69896 4.38277 3.90814 4.43376 4.11225C4.48581 4.33091 4.51372 4.55463 4.51701 4.77938C4.52863 5.34188 4.19526 5.62238 3.65901 5.7285V5.74575C3.77864 5.75108 3.89601 5.78024 4.00423 5.83151C4.11246 5.88278 4.20936 5.95513 4.28927 6.04433C4.36917 6.13352 4.43047 6.23777 4.46958 6.35096C4.50869 6.46415 4.52481 6.584 4.51701 6.7035C4.51434 6.92829 4.48642 7.15207 4.43376 7.37063C4.38269 7.5779 4.35477 7.7902 4.35051 8.00362C4.35051 8.49487 4.62388 8.7675 5.29063 8.7675H5.50476V9.25012H5.25463C4.26688 9.25012 3.52963 8.934 3.52963 8.04712C3.53789 7.80462 3.56966 7.56349 3.62451 7.32712C3.6802 7.09342 3.71236 6.85473 3.72051 6.61462C3.72051 6.342 3.60126 5.96438 2.75601 5.96438L2.75488 5.51775Z" fill="#EBEBEB"/>
<path d="M9.25476 5.96475C8.40951 5.96475 8.29026 6.34238 8.29026 6.61463C8.299 6.85462 8.33077 7.09321 8.38513 7.32713C8.44036 7.56345 8.47251 7.80458 8.48113 8.04713C8.48113 8.934 7.73113 9.2505 6.75613 9.2505H6.50601V8.76675H6.70851C7.37526 8.75813 7.66026 8.49413 7.66026 8.00288C7.64969 7.78997 7.62185 7.57827 7.57701 7.36988C7.52043 7.15177 7.4886 6.92798 7.48213 6.70275C7.47102 6.46272 7.55458 6.22792 7.71483 6.04887C7.87508 5.86982 8.09922 5.76084 8.33901 5.74538V5.72813C8.1006 5.71313 7.87751 5.6055 7.7174 5.42822C7.55729 5.25094 7.47285 5.01807 7.48213 4.77938C7.48922 4.5542 7.52104 4.33048 7.57701 4.11225C7.62186 3.90667 7.64933 3.69769 7.65913 3.4875C7.65913 3.0135 7.40901 2.74087 6.71901 2.73225H6.50488V2.25H6.74338C7.75588 2.25 8.48151 2.59237 8.48151 3.4005C8.47349 3.64618 8.44134 3.89048 8.38551 4.12987C8.33048 4.37204 8.29871 4.61892 8.29063 4.86713C8.29063 5.17463 8.40988 5.517 9.25513 5.517L9.25476 5.96475Z" fill="white"/>
</g>
<defs>
<clipPath id="clip0_33_459">
<rect width="12" height="12" fill="white"/>
</clipPath>
</defs>
</svg>
