<svg width="31" height="36" viewBox="0 0 31 36" fill="none" xmlns="http://www.w3.org/2000/svg">
<path d="M11 28H7.5625C5.59499 28 4 26.4554 4 24.55V6.5M5.5 5H12.4335C12.808 5 13.1726 5.08562 13.5 5.24495M23 18.5V16.2245C23 15.922 22.9385 15.6252 22.8216 15.35M13.5 5.24495C13.7656 5.37423 14.0067 5.55202 14.2086 5.77196L22.4001 14.6964C22.579 14.8914 22.7209 15.1127 22.8216 15.35M13.5 5.24495V11.9C13.5 13.8054 15.095 15.35 17.0625 15.35H22.8216" stroke="black" stroke-width="3"/>
<g clip-path="url(#clip0_25_957)">
<path d="M24.25 19H15.75C13.6789 19 12 20.6789 12 22.75V31.25C12 33.3211 13.6789 35 15.75 35H24.25C26.3211 35 28 33.3211 28 31.25V22.75C28 20.6789 26.3211 19 24.25 19Z" fill="#242938"/>
<path d="M26.25 30.4336C26.0681 30.5025 25.8672 30.5024 25.6853 30.4332C25.5034 30.3641 25.3532 30.2307 25.2631 30.0583C24.6966 29.2103 24.0711 28.4007 23.4699 27.5736L23.2093 27.2261C22.4934 28.1852 21.7775 29.1061 21.1242 30.0618C21.0391 30.2265 20.897 30.3548 20.7244 30.4225C20.5518 30.4903 20.3604 30.493 20.1859 30.4302L22.8722 26.8265L20.3736 23.5702C20.5534 23.5053 20.7502 23.5044 20.9306 23.5677C21.1111 23.631 21.2641 23.7546 21.364 23.9177C21.9443 24.7657 22.5873 25.5754 23.2266 26.4338C23.8696 25.5823 24.5055 24.7692 25.0997 23.9282C25.1853 23.766 25.3275 23.641 25.4992 23.577C25.6709 23.5129 25.8602 23.5142 26.0311 23.5807L25.0615 24.8665C24.6271 25.4398 24.1997 26.0167 23.7479 26.5762C23.7115 26.6088 23.6824 26.6487 23.6625 26.6933C23.6425 26.7379 23.6322 26.7863 23.6322 26.8351C23.6322 26.884 23.6425 26.9323 23.6625 26.9769C23.6824 27.0215 23.7115 27.0614 23.7479 27.094C24.5785 28.1957 25.4021 29.3007 26.25 30.4336ZM13.75 26.7813C13.823 26.4338 13.8681 26.055 13.9689 25.7005C14.5701 23.5633 17.0201 22.6737 18.7055 23.9977C19.6924 24.7727 19.9392 25.8708 19.8906 27.108H14.3304C14.24 29.3182 15.8351 30.6526 17.8749 29.9715C18.2058 29.8531 18.5021 29.6542 18.7369 29.3927C18.9717 29.1312 19.1376 28.8153 19.2198 28.4737C19.3276 28.1262 19.5013 28.0671 19.8314 28.1678C19.7771 28.5909 19.6275 28.9961 19.3939 29.3531C19.1604 29.71 18.849 30.0093 18.4831 30.2286C17.8786 30.5592 17.185 30.6902 16.5016 30.6028C15.8181 30.5155 15.1798 30.2142 14.6779 29.7421C14.1813 29.1838 13.8811 28.4784 13.823 27.7335C13.823 27.6153 13.7778 27.4972 13.7535 27.386C13.7512 27.1844 13.75 26.9828 13.75 26.7813ZM14.3373 26.6318H19.3658C19.3345 25.0298 18.3232 23.8935 16.9749 23.8831C15.4737 23.8622 14.3999 24.9742 14.3338 26.6249L14.3373 26.6318Z" fill="white"/>
</g>
<defs>
<clipPath id="clip0_25_957">
<rect width="16" height="16" fill="white" transform="translate(12 19)"/>
</clipPath>
</defs>
</svg>
