<svg width="39" height="38" viewBox="0 0 39 38" fill="none" xmlns="http://www.w3.org/2000/svg">
<path d="M31.3208 10.0399H22.5834L19.7257 7.18225C18.9667 6.42323 17.9419 6 16.868 6H9.04004V10.0399H16.8715L19.7292 12.8976C20.4882 13.6566 21.5131 14.0799 22.5869 14.0799H30.4184L30.5 21.5H34.4583V13.1774C34.4583 11.446 33.0557 10.0399 31.3208 10.0399Z" fill="#EA9F66"/>
<path d="M9.03991 10.0398H5V28.4171C5 30.1485 6.4026 31.5546 8.13749 31.5546H25V27.5147H9.03991V10.0398Z" fill="#EA9F66"/>
<g clip-path="url(#clip0_31_477)">
<path d="M31.8662 30.8833C31.8891 30.7917 31.8891 30.6771 31.8891 30.5625C31.8891 30.4479 31.8891 30.3563 31.8662 30.2417L32.5079 29.7833C32.5766 29.7375 32.5996 29.6458 32.5537 29.5771L31.935 28.5229C31.8891 28.4542 31.8204 28.4313 31.7516 28.4542L31.0412 28.7979C30.8808 28.6604 30.6975 28.5688 30.4912 28.4771L30.4225 27.6979C30.4225 27.6292 30.3537 27.5604 30.285 27.5604H29.0704C29.0016 27.5604 28.9329 27.6292 28.9329 27.6979L28.8412 28.5C28.635 28.5688 28.4746 28.6833 28.2912 28.8208L27.5808 28.5C27.5121 28.4771 27.4204 28.5 27.3975 28.5688L26.7787 29.6229C26.7329 29.6917 26.7558 29.7833 26.8246 29.8292L27.4662 30.2875C27.4433 30.3792 27.4433 30.4938 27.4433 30.6083C27.4433 30.7229 27.4433 30.8146 27.4662 30.9292L26.8246 31.3875C26.7558 31.4333 26.7329 31.525 26.7787 31.5938L27.3975 32.6479C27.4433 32.7167 27.5121 32.7396 27.5808 32.7167L28.2912 32.3958C28.4516 32.5333 28.635 32.625 28.8412 32.7167L28.91 33.4958C28.91 33.5646 28.9787 33.6333 29.0475 33.6333H30.2621C30.3308 33.6333 30.3996 33.5646 30.3996 33.4958L30.4683 32.7167C30.6746 32.6479 30.835 32.5333 31.0183 32.3958L31.7287 32.7167C31.7975 32.7396 31.8891 32.7167 31.9121 32.6479L32.5308 31.5938C32.5766 31.525 32.5537 31.4333 32.485 31.3875L31.8662 30.8833ZM29.6662 31.7083C29.0246 31.7083 28.5204 31.2042 28.5204 30.5625C28.5204 29.9208 29.0246 29.4167 29.6662 29.4167C30.3079 29.4167 30.8121 29.9208 30.8121 30.5625C30.8121 31.2042 30.3079 31.7083 29.6662 31.7083Z" fill="#E65100"/>
<path d="M35.6021 26.5062C35.625 26.3916 35.625 26.3 35.625 26.2083C35.625 26.1166 35.625 26.025 35.6021 25.9104L36.175 25.4979C36.2438 25.4521 36.2438 25.3833 36.2209 25.3146L35.6479 24.3291C35.6021 24.2604 35.5334 24.2375 35.4646 24.2833L34.8 24.5812C34.6396 24.4666 34.4792 24.375 34.2959 24.2833L34.2271 23.5729C34.25 23.5041 34.2042 23.4583 34.1354 23.4583H33.0125C32.9438 23.4583 32.875 23.5041 32.875 23.5729L32.8063 24.2833C32.6229 24.3521 32.4625 24.4437 32.3021 24.5812L31.6375 24.2833C31.5688 24.2604 31.5 24.2833 31.4542 24.3291L30.8813 25.3146C30.8354 25.3833 30.8584 25.4521 30.9271 25.4979L31.5 25.9104V26.2083C31.5 26.3 31.5 26.3916 31.5229 26.5062L30.95 26.9187C30.8813 26.9646 30.8813 27.0333 30.9042 27.1021L31.4771 28.0875C31.5229 28.1562 31.5917 28.1791 31.6604 28.1333L32.325 27.8354C32.4854 27.95 32.6459 28.0416 32.8292 28.1333L32.8979 28.8437C32.8979 28.9125 32.9667 28.9583 33.0354 28.9583H34.1584C34.2271 28.9583 34.2959 28.9125 34.2959 28.8437L34.3646 28.1333C34.5479 28.0646 34.7084 27.9729 34.8688 27.8354L35.5334 28.1333C35.6021 28.1562 35.6709 28.1333 35.7167 28.0875L36.2896 27.1021C36.3354 27.0333 36.3125 26.9646 36.2438 26.9187L35.6021 26.5062ZM33.5625 27.3541C32.9209 27.3541 32.4167 26.85 32.4167 26.2083C32.4167 25.5666 32.9209 25.0625 33.5625 25.0625C34.2042 25.0625 34.7084 25.5666 34.7084 26.2083C34.7084 26.85 34.2042 27.3541 33.5625 27.3541Z" fill="#FFA000"/>
</g>
<defs>
<clipPath id="clip0_31_477">
<rect width="11" height="11" fill="white" transform="translate(26 23)"/>
</clipPath>
</defs>
</svg>
