<svg width="39" height="38" viewBox="0 0 39 38" fill="none" xmlns="http://www.w3.org/2000/svg">
<path d="M31.3208 10.0399H22.5834L19.7257 7.18225C18.9667 6.42323 17.9419 6 16.868 6H9.04004V10.0399H16.8715L19.7292 12.8976C20.4882 13.6566 21.5131 14.0799 22.5869 14.0799H30.4184V20.5H34.4583V13.1774C34.4583 11.446 33.0557 10.0399 31.3208 10.0399Z" fill="#EA9F66"/>
<path d="M9 19C7.4379 19 6.5 19.5 6 20C5.5 20.5 5 21 5 22C5 23 5 28.4171 5 28.4171C5 30.1485 6.4026 31.5546 8.13749 31.5546H24.5V27.5L9.03992 27.5147L9 19Z" fill="#EA9F66"/>
<path d="M25.0004 24H21.0004V22H9.00037V19H21C22.6706 19 23.5351 19.5841 24 20C24.7003 20.6266 25.0557 21.2567 25.0557 22L25.0004 24Z" fill="#EA9F66"/>
<g clip-path="url(#clip0_31_472)">
<path d="M31.8662 29.8833C31.8891 29.7917 31.8891 29.6771 31.8891 29.5625C31.8891 29.4479 31.8891 29.3563 31.8662 29.2417L32.5079 28.7833C32.5766 28.7375 32.5996 28.6458 32.5537 28.5771L31.935 27.5229C31.8891 27.4542 31.8204 27.4313 31.7516 27.4542L31.0412 27.7979C30.8808 27.6604 30.6975 27.5688 30.4912 27.4771L30.4225 26.6979C30.4225 26.6292 30.3537 26.5604 30.285 26.5604H29.0704C29.0016 26.5604 28.9329 26.6292 28.9329 26.6979L28.8412 27.5C28.635 27.5688 28.4746 27.6833 28.2912 27.8208L27.5808 27.5C27.5121 27.4771 27.4204 27.5 27.3975 27.5688L26.7787 28.6229C26.7329 28.6917 26.7558 28.7833 26.8246 28.8292L27.4662 29.2875C27.4433 29.3792 27.4433 29.4938 27.4433 29.6083C27.4433 29.7229 27.4433 29.8146 27.4662 29.9292L26.8246 30.3875C26.7558 30.4333 26.7329 30.525 26.7787 30.5938L27.3975 31.6479C27.4433 31.7167 27.5121 31.7396 27.5808 31.7167L28.2912 31.3958C28.4516 31.5333 28.635 31.625 28.8412 31.7167L28.91 32.4958C28.91 32.5646 28.9787 32.6333 29.0475 32.6333H30.2621C30.3308 32.6333 30.3996 32.5646 30.3996 32.4958L30.4683 31.7167C30.6746 31.6479 30.835 31.5333 31.0183 31.3958L31.7287 31.7167C31.7975 31.7396 31.8891 31.7167 31.9121 31.6479L32.5308 30.5938C32.5766 30.525 32.5537 30.4333 32.485 30.3875L31.8662 29.8833ZM29.6662 30.7083C29.0246 30.7083 28.5204 30.2042 28.5204 29.5625C28.5204 28.9208 29.0246 28.4167 29.6662 28.4167C30.3079 28.4167 30.8121 28.9208 30.8121 29.5625C30.8121 30.2042 30.3079 30.7083 29.6662 30.7083Z" fill="#E65100"/>
<path d="M35.6021 25.5062C35.625 25.3916 35.625 25.3 35.625 25.2083C35.625 25.1166 35.625 25.025 35.6021 24.9104L36.175 24.4979C36.2438 24.4521 36.2438 24.3833 36.2209 24.3146L35.6479 23.3291C35.6021 23.2604 35.5334 23.2375 35.4646 23.2833L34.8 23.5812C34.6396 23.4666 34.4792 23.375 34.2959 23.2833L34.2271 22.5729C34.25 22.5041 34.2042 22.4583 34.1354 22.4583H33.0125C32.9438 22.4583 32.875 22.5041 32.875 22.5729L32.8063 23.2833C32.6229 23.3521 32.4625 23.4437 32.3021 23.5812L31.6375 23.2833C31.5688 23.2604 31.5 23.2833 31.4542 23.3291L30.8813 24.3146C30.8354 24.3833 30.8584 24.4521 30.9271 24.4979L31.5 24.9104V25.2083C31.5 25.3 31.5 25.3916 31.5229 25.5062L30.95 25.9187C30.8813 25.9646 30.8813 26.0333 30.9042 26.1021L31.4771 27.0875C31.5229 27.1562 31.5917 27.1791 31.6604 27.1333L32.325 26.8354C32.4854 26.95 32.6459 27.0416 32.8292 27.1333L32.8979 27.8437C32.8979 27.9125 32.9667 27.9583 33.0354 27.9583H34.1584C34.2271 27.9583 34.2959 27.9125 34.2959 27.8437L34.3646 27.1333C34.5479 27.0646 34.7084 26.9729 34.8688 26.8354L35.5334 27.1333C35.6021 27.1562 35.6709 27.1333 35.7167 27.0875L36.2896 26.1021C36.3354 26.0333 36.3125 25.9646 36.2438 25.9187L35.6021 25.5062ZM33.5625 26.3541C32.9209 26.3541 32.4167 25.85 32.4167 25.2083C32.4167 24.5666 32.9209 24.0625 33.5625 24.0625C34.2042 24.0625 34.7084 24.5666 34.7084 25.2083C34.7084 25.85 34.2042 26.3541 33.5625 26.3541Z" fill="#FFA000"/>
</g>
<defs>
<clipPath id="clip0_31_472">
<rect width="11" height="11" fill="white" transform="translate(26 22)"/>
</clipPath>
</defs>
</svg>
