<svg width="31" height="36" viewBox="0 0 31 36" fill="none" xmlns="http://www.w3.org/2000/svg">
<path d="M11 28H7.5625C5.59499 28 4 26.4554 4 24.55V6.5M5.5 5H12.4335C12.808 5 13.1726 5.08562 13.5 5.24495M23 18.5V16.2245C23 15.922 22.9385 15.6252 22.8216 15.35M13.5 5.24495C13.7656 5.37423 14.0067 5.55202 14.2086 5.77196L22.4001 14.6964C22.579 14.8914 22.7209 15.1127 22.8216 15.35M13.5 5.24495V11.9C13.5 13.8054 15.095 15.35 17.0625 15.35H22.8216" stroke="#CECECE" stroke-width="3"/>
<path d="M17.5 32.5H24.5M21.01 20V32.06M14.5 22.5H17.5L19 21.5H23L24.5 22.5H27.5M13.5 29L16 23.48L18.5 29C17 30 15 30 13.5 29ZM23.5 29L26 23.48L28.5 29C27 30 25 30 23.5 29Z" stroke="black" stroke-width="0.633125" stroke-linecap="round" stroke-linejoin="round"/>
</svg>
