<svg width="31" height="36" viewBox="0 0 31 36" fill="none" xmlns="http://www.w3.org/2000/svg">
<path d="M11 28H7.5625C5.59499 28 4 26.4554 4 24.55V6.5M5.5 5H12.4335C12.808 5 13.1726 5.08562 13.5 5.24495M23 18.5V16.2245C23 15.922 22.9385 15.6252 22.8216 15.35M13.5 5.24495C13.7656 5.37423 14.0067 5.55202 14.2086 5.77196L22.4001 14.6964C22.579 14.8914 22.7209 15.1127 22.8216 15.35M13.5 5.24495V11.9C13.5 13.8054 15.095 15.35 17.0625 15.35H22.8216" stroke="#3C9850" stroke-width="3"/>
<path d="M17.7508 25.5425L12.6795 30.6138C12.6035 30.6873 12.5428 30.7753 12.5011 30.8725C12.4594 30.9698 12.4374 31.0744 12.4366 31.1802C12.4357 31.286 12.4559 31.3909 12.496 31.4888C12.5361 31.5867 12.5953 31.6757 12.6702 31.7505C12.745 31.8252 12.834 31.8844 12.932 31.9244C13.0299 31.9644 13.1349 31.9845 13.2407 31.9836C13.3465 31.9826 13.4511 31.9606 13.5483 31.9187C13.6455 31.8769 13.7334 31.8162 13.8068 31.74L19.4413 26.1056C19.5905 25.9562 19.6743 25.7537 19.6743 25.5425C19.6743 25.3313 19.5905 25.1288 19.4413 24.9794L13.8068 19.3439C13.6565 19.1988 13.4551 19.1185 13.2462 19.1205C13.0373 19.1224 12.8374 19.2063 12.6898 19.3541C12.5421 19.5019 12.4584 19.7018 12.4567 19.9108C12.4549 20.1197 12.5354 20.3209 12.6806 20.4712L17.7508 25.5425ZM20.2966 29.2187C20.0852 29.2187 19.8826 29.3027 19.7331 29.4521C19.5837 29.6016 19.4997 29.8043 19.4997 30.0156C19.4997 30.227 19.5837 30.4296 19.7331 30.5791C19.8826 30.7285 20.0852 30.8125 20.2966 30.8125H26.1403C26.3517 30.8125 26.5544 30.7285 26.7038 30.5791C26.8533 30.4296 26.9372 30.227 26.9372 30.0156C26.9372 29.8043 26.8533 29.6016 26.7038 29.4521C26.5544 29.3027 26.3517 29.2187 26.1403 29.2187H20.2966Z" fill="#61DA7C"/>
</svg>
