<svg width="39" height="38" viewBox="0 0 39 38" fill="none" xmlns="http://www.w3.org/2000/svg">
<path d="M31.3208 10.0399H22.5834L19.7257 7.18225C18.9667 6.42323 17.9419 6 16.868 6H9.04004V10.0399H16.8715L19.7292 12.8976C20.4882 13.6566 21.5131 14.0799 22.5869 14.0799H30.4184L30.5 21.5H34.4583V13.1774C34.4583 11.446 33.0557 10.0399 31.3208 10.0399Z" fill="#FDC318"/>
<path d="M9.03991 10.0398H5V28.4171C5 30.1485 6.4026 31.5546 8.13749 31.5546H25V27.5147H9.03991V10.0398Z" fill="#FDC318"/>
<path d="M26 22.6066L34.3824 22.0004V33.9997L26 32.7003V22.6066Z" fill="url(#paint0_linear_31_249)"/>
<path d="M34.3828 22.0005L35.9771 22.8234L35.9999 32.4188L34.3828 33.9999V22.0005Z" fill="url(#paint1_linear_31_249)"/>
<path d="M34.3824 26.4478C32.8199 26.1518 31.7755 28.3294 30.54 29.2276C28.355 30.8161 27.0492 27.9231 26 25.6244V22.6063C28.7943 22.3131 31.5886 22.2926 34.3824 22V26.4478Z" fill="url(#paint2_linear_31_249)"/>
<path d="M35.9879 29.3767L35.9777 22.8205L34.3828 22.0005V26.4432C35.4356 26.5226 34.9477 29.275 35.9879 29.3767Z" fill="url(#paint3_linear_31_249)"/>
<path d="M33.7014 29.0448L33.7375 29.1065C33.7868 29.0574 33.8329 29.0055 33.8757 28.9511L33.8336 28.894C33.7926 28.9466 33.7485 28.997 33.7014 29.0448ZM33.9472 28.7248L33.9959 28.77C34.0334 28.7031 34.0638 28.6329 34.0866 28.5603L34.0313 28.5306C34.009 28.5975 33.9803 28.6624 33.9454 28.7243L33.9472 28.7248ZM34.1221 28.0809L34.062 28.0986C34.0709 28.1477 34.0754 28.1974 34.0752 28.2472V28.3163L34.1353 28.3243C34.1373 28.2984 34.1383 28.2727 34.1383 28.2472C34.1372 28.1912 34.1318 28.1355 34.1221 28.0803V28.0809ZM34.0482 27.8558C34.0156 27.7899 33.9738 27.7286 33.9238 27.6735L33.8853 27.7306C33.9309 27.7801 33.9687 27.8355 33.9977 27.8952L34.0482 27.8558ZM33.7651 27.5432C33.7095 27.5102 33.6486 27.4861 33.5849 27.4718L33.574 27.5483C33.6318 27.5624 33.6871 27.5845 33.7381 27.6141L33.7651 27.5432ZM33.2189 27.4923L33.2339 27.5672C33.2888 27.5481 33.3463 27.5368 33.4046 27.5335V27.4558C33.3413 27.46 33.2789 27.4729 33.2195 27.4941L33.2189 27.4923ZM32.9034 27.678L32.886 27.6929L32.9196 27.7575L32.9364 27.7426C32.9786 27.7069 33.0234 27.6741 33.0705 27.6443L33.0452 27.5741C32.9956 27.6059 32.9486 27.6412 32.9046 27.6798L32.9034 27.678ZM32.5975 27.9752L32.6354 28.0352C32.6827 27.9849 32.7293 27.9371 32.7754 27.8918L32.7393 27.83C32.6933 27.8773 32.6464 27.9262 32.5987 27.9769L32.5975 27.9752ZM32.3241 28.2786L32.3638 28.3357C32.4094 28.2835 32.4545 28.2327 32.499 28.1832L32.4599 28.126C32.4158 28.1763 32.3702 28.2277 32.3229 28.2803L32.3241 28.2786ZM32.0549 28.5866L32.0945 28.6437L32.2292 28.49L32.1895 28.4329L32.0549 28.5866ZM31.7821 28.89L31.8205 28.9471C31.867 28.8968 31.9127 28.8466 31.9575 28.7963L31.9185 28.7391C31.8752 28.7898 31.8297 28.8401 31.7821 28.89ZM31.5026 29.1791L31.5387 29.2408C31.5868 29.1932 31.634 29.1454 31.6805 29.0974L31.6432 29.0368C31.5988 29.0844 31.5527 29.1319 31.505 29.1791H31.5026ZM31.2124 29.4482L31.2454 29.5128C31.2959 29.469 31.3454 29.4246 31.3939 29.3797L31.3614 29.3145C31.3133 29.3606 31.2645 29.4052 31.2148 29.4482H31.2124ZM30.9119 29.6905L30.9414 29.7579C30.9942 29.7198 31.0461 29.6802 31.097 29.6391L31.0658 29.5734C31.0149 29.6138 30.9634 29.653 30.9113 29.6911L30.9119 29.6905ZM30.5946 29.8996L30.6193 29.9705C30.6746 29.9381 30.7288 29.9042 30.7821 29.8688L30.7551 29.7996C30.7022 29.8347 30.6487 29.8682 30.5946 29.9002V29.8996ZM30.2647 30.0711L30.2839 30.1442C30.3412 30.1187 30.3977 30.0916 30.4534 30.0631L30.4312 29.9911C30.3763 30.0189 30.3212 30.0455 30.2647 30.0711ZM29.9234 30.1979L29.9372 30.2733C29.9965 30.2554 30.0548 30.2364 30.1121 30.2162L30.0959 30.1413C30.039 30.1615 29.9819 30.1804 29.9234 30.1979ZM29.5737 30.2796L29.5815 30.3568C29.642 30.3469 29.702 30.335 29.7617 30.3213L29.7509 30.2448C29.692 30.2581 29.6329 30.2697 29.5737 30.2796ZM29.2618 30.3133H29.2203V30.391H29.2636C29.31 30.3888 29.3559 30.3853 29.4012 30.3808L29.3964 30.3036C29.3519 30.3078 29.3074 30.311 29.2618 30.3133ZM28.8591 30.3562C28.9187 30.3688 28.9789 30.3785 29.0394 30.3853L29.0442 30.3082C28.9853 30.3028 28.9268 30.2932 28.8694 30.2796L28.8591 30.3562ZM28.5082 30.2373C28.5648 30.2632 28.6228 30.2863 28.6819 30.3065L28.6969 30.2316C28.6394 30.2119 28.5831 30.1894 28.528 30.1642L28.5082 30.2373ZM28.1765 30.0493C28.2302 30.0855 28.2847 30.1192 28.3399 30.1505L28.364 30.0796C28.3099 30.0492 28.2566 30.0162 28.2041 29.9808L28.1765 30.0493ZM27.8658 29.8094C27.9159 29.8532 27.9668 29.8951 28.0184 29.9351L28.0491 29.8688C27.9982 29.8307 27.9481 29.7896 27.8989 29.7454L27.8658 29.8094ZM27.5756 29.5288C27.622 29.5783 27.6695 29.6265 27.718 29.6734L27.7534 29.6111C27.7058 29.565 27.6589 29.5176 27.6128 29.4688L27.5756 29.5288ZM27.3057 29.218C27.349 29.2717 27.3933 29.3244 27.4385 29.3762L27.4782 29.3191C27.4337 29.2681 27.3901 29.2159 27.3472 29.1625L27.3057 29.218ZM27.0534 28.8831C27.0934 28.9403 27.1349 28.9974 27.1777 29.0545L27.2204 29.0003L27.1002 28.8323L27.0534 28.8831ZM26.8166 28.5294C26.8542 28.5889 26.8931 28.6485 26.9332 28.7083L26.9746 28.658C26.9346 28.5989 26.8961 28.5399 26.8593 28.4809L26.8166 28.5294ZM26.5948 28.1609C26.6297 28.2222 26.6662 28.2843 26.7042 28.3472L26.7511 28.2992C26.7134 28.2367 26.6774 28.1752 26.6429 28.1146L26.5948 28.1609ZM26.3863 27.7792C26.4188 27.8413 26.453 27.9055 26.4891 27.9717L26.5378 27.9272C26.5017 27.8613 26.4678 27.7977 26.4362 27.7363L26.3863 27.7792ZM26.191 27.3855C26.2195 27.4464 26.2515 27.5125 26.2872 27.5838L26.3376 27.5421C26.3052 27.4767 26.2735 27.411 26.2427 27.3449L26.191 27.3855ZM26.0636 26.9421L26.0107 26.9775C26.0107 26.9775 26.0414 27.0547 26.0991 27.1844L26.149 27.1432C26.1201 27.0792 26.0985 27.0291 26.0841 26.9929C26.0624 26.9387 26.0618 26.9415 26.0618 26.9415L26.0636 26.9421ZM33.4875 26.6615L33.5284 26.9038V26.9158L33.5386 26.9227L33.7501 27.0632L33.7621 27.0118L33.1612 27.1044L33.1906 27.1489L33.5416 26.6735L33.4875 26.6615ZM33.1708 27.1604L33.7717 27.0678L33.8445 27.0564L33.7844 27.0164L33.5728 26.8758L33.5855 26.8947L33.5446 26.6524L33.5332 26.5833L33.4911 26.6404L33.1402 27.1158L33.0993 27.1729L33.1708 27.1604Z" fill="#FDBF0F"/>
<defs>
<linearGradient id="paint0_linear_31_249" x1="29.7967" y1="29.5765" x2="28.0534" y2="35.797" gradientUnits="userSpaceOnUse">
<stop stop-color="#F1F1F2"/>
<stop offset="0.391" stop-color="#EAEBEC"/>
<stop offset="1" stop-color="#E6E7E8"/>
</linearGradient>
<linearGradient id="paint1_linear_31_249" x1="34.9188" y1="22.9656" x2="35.5367" y2="37.1991" gradientUnits="userSpaceOnUse">
<stop stop-color="#E6E7E8"/>
<stop offset="0.482" stop-color="#DBDCDE"/>
<stop offset="1" stop-color="#D7D8DA"/>
</linearGradient>
<linearGradient id="paint2_linear_31_249" x1="33.0892" y1="21.7554" x2="27.4686" y2="27.7019" gradientUnits="userSpaceOnUse">
<stop stop-color="#FFF57E"/>
<stop offset="1" stop-color="#FDBF0F"/>
</linearGradient>
<linearGradient id="paint3_linear_31_249" x1="34.6911" y1="22.1823" x2="35.8484" y2="28.5941" gradientUnits="userSpaceOnUse">
<stop stop-color="#FBE574"/>
<stop offset="1" stop-color="#EFAB14"/>
</linearGradient>
</defs>
</svg>
