<svg width="39" height="38" viewBox="0 0 39 38" fill="none" xmlns="http://www.w3.org/2000/svg">
<path d="M31.3208 10.0399H22.5834L19.7257 7.18225C18.9667 6.42323 17.9419 6 16.868 6H9.04004V10.0399H16.8715L19.7292 12.8976C20.4882 13.6566 21.5131 14.0799 22.5869 14.0799H30.4184V20.5H34.4583V13.1774C34.4583 11.446 33.0557 10.0399 31.3208 10.0399Z" fill="#FDC318"/>
<path d="M9 19C7.4379 19 6.5 19.5 6 20C5.5 20.5 5 21 5 22C5 23 5 28.4171 5 28.4171C5 30.1485 6.4026 31.5546 8.13749 31.5546H24.5V27.5L9.03992 27.5147L9 19Z" fill="#FDC318"/>
<path d="M25.0004 24H21.0004V22H9.00037V19H21C22.6706 19 23.5351 19.5841 24 20C24.7003 20.6266 25.0557 21.2567 25.0557 22L25.0004 24Z" fill="#FDC318"/>
<path d="M27 22.5561L33.7059 22.0004V32.9998L27 31.8087V22.5561Z" fill="url(#paint0_linear_31_244)"/>
<path d="M33.7061 22.0005L34.9815 22.7548L34.9997 31.5506L33.7061 32.9999V22.0005Z" fill="url(#paint1_linear_31_244)"/>
<path d="M33.7059 26.0771C32.456 25.8058 31.6204 27.8019 30.632 28.6253C28.884 30.0814 27.8394 27.4295 27 25.3223V22.5557C29.2355 22.287 31.4709 22.2682 33.7059 22V26.0771Z" fill="url(#paint2_linear_31_244)"/>
<path d="M34.9901 28.762L34.9819 22.7522L33.7061 22.0005V26.0729C34.5483 26.1457 34.158 28.6688 34.9901 28.762Z" fill="url(#paint3_linear_31_244)"/>
<path d="M33.1613 28.4577L33.1902 28.5143C33.2296 28.4692 33.2665 28.4217 33.3008 28.3718L33.2671 28.3195C33.2343 28.3677 33.199 28.4139 33.1613 28.4577ZM33.358 28.1644L33.3969 28.2058C33.4269 28.1445 33.4512 28.0801 33.4695 28.0136L33.4253 27.9863C33.4074 28.0477 33.3844 28.1071 33.3565 28.1639L33.358 28.1644ZM33.4979 27.5741L33.4498 27.5904C33.4569 27.6353 33.4605 27.6809 33.4604 27.7265V27.7899L33.5084 27.7973C33.51 27.7735 33.5108 27.7499 33.5108 27.7265C33.51 27.6753 33.5056 27.6242 33.4979 27.5736V27.5741ZM33.4387 27.3678C33.4127 27.3074 33.3792 27.2512 33.3392 27.2007L33.3084 27.253C33.3449 27.2984 33.3752 27.3492 33.3983 27.4039L33.4387 27.3678ZM33.2123 27.0812C33.1678 27.051 33.1191 27.0289 33.0681 27.0158L33.0594 27.086C33.1057 27.0988 33.1499 27.1191 33.1907 27.1462L33.2123 27.0812ZM32.7753 27.0346L32.7873 27.1032C32.8312 27.0858 32.8772 27.0754 32.9239 27.0723V27.0011C32.8732 27.005 32.8233 27.0168 32.7758 27.0362L32.7753 27.0346ZM32.5229 27.2049L32.509 27.2185L32.5359 27.2777L32.5494 27.264C32.5831 27.2313 32.6189 27.2012 32.6566 27.174L32.6364 27.1095C32.5967 27.1387 32.5591 27.1711 32.5239 27.2064L32.5229 27.2049ZM32.2782 27.4772L32.3085 27.5322C32.3463 27.4861 32.3837 27.4423 32.4205 27.4008L32.3917 27.3442C32.3548 27.3875 32.3173 27.4324 32.2792 27.4788L32.2782 27.4772ZM32.0595 27.7554L32.0912 27.8077C32.1277 27.7599 32.1638 27.7133 32.1994 27.6679L32.1681 27.6155C32.1329 27.6616 32.0963 27.7087 32.0585 27.7569L32.0595 27.7554ZM31.8441 28.0377L31.8758 28.09L31.9835 27.9492L31.9518 27.8968L31.8441 28.0377ZM31.6258 28.3158L31.6566 28.3682C31.6938 28.3221 31.7303 28.276 31.7662 28.2299L31.735 28.1775C31.7004 28.224 31.664 28.2701 31.6258 28.3158ZM31.4023 28.5808L31.4311 28.6374C31.4696 28.5937 31.5074 28.5499 31.5446 28.5059L31.5148 28.4504C31.4792 28.4941 31.4424 28.5375 31.4042 28.5808H31.4023ZM31.1701 28.8275L31.1965 28.8867C31.2369 28.8466 31.2765 28.8059 31.3153 28.7647L31.2893 28.705C31.2509 28.7472 31.2118 28.7881 31.172 28.8275H31.1701ZM30.9297 29.0496L30.9533 29.1114C30.9956 29.0765 31.0371 29.0402 31.0778 29.0025L31.0528 28.9422C31.0121 28.9793 30.9709 29.0152 30.9293 29.0501L30.9297 29.0496ZM30.6759 29.2413L30.6956 29.3063C30.7398 29.2766 30.7833 29.2455 30.8259 29.213L30.8043 29.1497C30.762 29.1818 30.7192 29.2125 30.6759 29.2418V29.2413ZM30.412 29.3985L30.4274 29.4655C30.4732 29.4421 30.5184 29.4173 30.5629 29.3911L30.5451 29.3251C30.5012 29.3506 30.4572 29.3751 30.412 29.3985ZM30.1389 29.5147L30.15 29.5839C30.1974 29.5675 30.244 29.55 30.2899 29.5315L30.2769 29.4629C30.2314 29.4814 30.1857 29.4987 30.1389 29.5147ZM29.8591 29.5896L29.8654 29.6603C29.9138 29.6513 29.9618 29.6404 30.0096 29.6279L30.0009 29.5577C29.9538 29.5699 29.9065 29.5806 29.8591 29.5896ZM29.6096 29.6205H29.5764V29.6918H29.6111C29.6482 29.6897 29.6849 29.6865 29.7211 29.6823L29.7173 29.6116C29.6817 29.6155 29.6461 29.6184 29.6096 29.6205ZM29.2875 29.6598C29.3351 29.6714 29.3833 29.6803 29.4317 29.6865L29.4356 29.6158C29.3884 29.6109 29.3417 29.6021 29.2957 29.5896L29.2875 29.6598ZM29.0068 29.5509C29.052 29.5746 29.0984 29.5958 29.1457 29.6142L29.1577 29.5456C29.1117 29.5275 29.0667 29.5069 29.0226 29.4838L29.0068 29.5509ZM28.7414 29.3785C28.7843 29.4117 28.8279 29.4426 28.8721 29.4713L28.8914 29.4063C28.8481 29.3784 28.8055 29.3482 28.7635 29.3157L28.7414 29.3785ZM28.4928 29.1586C28.5329 29.1987 28.5736 29.2371 28.615 29.2738L28.6395 29.213C28.5988 29.1781 28.5587 29.1404 28.5193 29.0999L28.4928 29.1586ZM28.2606 28.9014C28.2978 28.9468 28.3358 28.9909 28.3746 29.0339L28.4029 28.9768C28.3648 28.9346 28.3273 28.8911 28.2905 28.8464L28.2606 28.9014ZM28.0448 28.6164C28.0794 28.6657 28.1148 28.714 28.151 28.7615L28.1828 28.7092C28.1472 28.6624 28.1123 28.6145 28.078 28.5656L28.0448 28.6164ZM27.8429 28.3095C27.8749 28.3619 27.9081 28.4143 27.9424 28.4666L27.9765 28.4169L27.8804 28.2629L27.8429 28.3095ZM27.6535 27.9853C27.6836 28.0398 27.7147 28.0944 27.7467 28.1492L27.7799 28.1031C27.7479 28.049 27.7171 27.9949 27.6876 27.9408L27.6535 27.9853ZM27.4761 27.6475C27.504 27.7037 27.5331 27.7606 27.5636 27.8182L27.6011 27.7742C27.5709 27.7169 27.5421 27.6605 27.5145 27.605L27.4761 27.6475ZM27.3093 27.2976C27.3352 27.3545 27.3626 27.4133 27.3915 27.4741L27.4304 27.4332C27.4016 27.3728 27.3745 27.3145 27.3492 27.2583L27.3093 27.2976ZM27.153 26.9367C27.1758 26.9926 27.2014 27.0531 27.2299 27.1184L27.2703 27.0802C27.2443 27.0203 27.219 26.9601 27.1944 26.8995L27.153 26.9367ZM27.0511 26.5302L27.0088 26.5627C27.0088 26.5627 27.0333 26.6334 27.0795 26.7523L27.1194 26.7146C27.0963 26.6559 27.079 26.61 27.0674 26.5768C27.0501 26.5271 27.0497 26.5297 27.0497 26.5297L27.0511 26.5302ZM32.9902 26.2731L33.0229 26.4951V26.5061L33.0311 26.5124L33.2003 26.6413L33.2099 26.5941L32.7292 26.679L32.7527 26.7198L33.0335 26.2841L32.9902 26.2731ZM32.7368 26.7303L33.2176 26.6455L33.2758 26.635L33.2277 26.5983L33.0585 26.4695L33.0686 26.4868L33.0359 26.2647L33.0267 26.2013L32.9931 26.2537L32.7123 26.6895L32.6796 26.7418L32.7368 26.7303Z" fill="#FDBF0F"/>
<defs>
<linearGradient id="paint0_linear_31_244" x1="30.0373" y1="28.9452" x2="28.2471" y2="34.5202" gradientUnits="userSpaceOnUse">
<stop stop-color="#F1F1F2"/>
<stop offset="0.391" stop-color="#EAEBEC"/>
<stop offset="1" stop-color="#E6E7E8"/>
</linearGradient>
<linearGradient id="paint1_linear_31_244" x1="34.1349" y1="22.8852" x2="34.7835" y2="35.9249" gradientUnits="userSpaceOnUse">
<stop stop-color="#E6E7E8"/>
<stop offset="0.482" stop-color="#DBDCDE"/>
<stop offset="1" stop-color="#D7D8DA"/>
</linearGradient>
<linearGradient id="paint2_linear_31_244" x1="32.6713" y1="21.7758" x2="27.5273" y2="26.5254" gradientUnits="userSpaceOnUse">
<stop stop-color="#FFF57E"/>
<stop offset="1" stop-color="#FDBF0F"/>
</linearGradient>
<linearGradient id="paint3_linear_31_244" x1="33.9527" y1="22.1671" x2="35.1564" y2="27.9872" gradientUnits="userSpaceOnUse">
<stop stop-color="#FBE574"/>
<stop offset="1" stop-color="#EFAB14"/>
</linearGradient>
</defs>
</svg>
