<svg width="31" height="36" viewBox="0 0 31 36" fill="none" xmlns="http://www.w3.org/2000/svg">
<path d="M11 28H7.5625C5.59499 28 4 26.4554 4 24.55V6.5M5.5 5H12.4335C12.808 5 13.1726 5.08562 13.5 5.24495M23 18.5V16.2245C23 15.922 22.9385 15.6252 22.8216 15.35M13.5 5.24495C13.7656 5.37423 14.0067 5.55202 14.2086 5.77196L22.4001 14.6964C22.579 14.8914 22.7209 15.1127 22.8216 15.35M13.5 5.24495V11.9C13.5 13.8054 15.095 15.35 17.0625 15.35H22.8216" stroke="#FF5252" stroke-width="3"/>
<g clip-path="url(#clip0_25_972)">
<path d="M27.9815 22.56C27.9775 22.545 27.97 22.532 27.9645 22.5175C27.9551 22.4905 27.9434 22.4644 27.9295 22.4395C27.9048 22.4036 27.8777 22.3694 27.8485 22.337C27.8345 22.3242 27.8198 22.3121 27.8045 22.301C27.7913 22.2889 27.7774 22.2776 27.763 22.267L27.741 22.257L27.7235 22.245L24.7235 20.745C24.6541 20.7103 24.5776 20.6923 24.5 20.6923C24.4224 20.6923 24.3459 20.7103 24.2765 20.745L21.2765 22.245L21.259 22.257L21.237 22.267C21.2226 22.2776 21.2087 22.2889 21.1955 22.301C21.1585 22.3265 21.1267 22.359 21.102 22.3965C21.0906 22.4102 21.0799 22.4246 21.07 22.4395C21.0563 22.4645 21.0448 22.4906 21.0355 22.5175C21.0305 22.532 21.0225 22.545 21.0185 22.56C21.0064 22.6031 21.0002 22.6477 21 22.6925V25.3835L19 26.3835V20.6925C18.9998 20.6477 18.9936 20.6031 18.9815 20.56C18.9775 20.545 18.97 20.532 18.9645 20.5175C18.9551 20.4905 18.9434 20.4644 18.9295 20.4395C18.9198 20.4246 18.9093 20.4103 18.898 20.3965C18.8733 20.359 18.8415 20.3265 18.8045 20.301C18.7913 20.2889 18.7774 20.2776 18.763 20.267L18.741 20.257L18.7235 20.245L15.7235 18.745C15.6541 18.7103 15.5776 18.6923 15.5 18.6923C15.4224 18.6923 15.3459 18.7103 15.2765 18.745L12.2765 20.245L12.259 20.257L12.237 20.267C12.2226 20.2776 12.2087 20.2889 12.1955 20.301C12.1802 20.3121 12.1655 20.3242 12.1515 20.337C12.1333 20.3555 12.1166 20.3754 12.1015 20.3965C12.0902 20.4103 12.0797 20.4246 12.07 20.4395C12.0563 20.4645 12.0448 20.4906 12.0355 20.5175C12.0305 20.532 12.0225 20.545 12.0185 20.56C12.0064 20.6031 12.0002 20.6477 12 20.6925V30.1925C12 30.2853 12.0259 30.3763 12.0748 30.4553C12.1236 30.5342 12.1935 30.598 12.2765 30.6395L15.2765 32.1395L18.2765 33.6395C18.2835 33.643 18.2915 33.642 18.2995 33.645C18.3618 33.676 18.4304 33.6921 18.5 33.6921C18.5696 33.6921 18.6382 33.676 18.7005 33.645C18.708 33.642 18.7165 33.643 18.7235 33.64L24.7235 30.64C24.8066 30.5985 24.8765 30.5346 24.9254 30.4555C24.9742 30.3765 25 30.2854 25 30.1925V27.5015L27.7235 26.1395C27.8065 26.098 27.8764 26.0342 27.9252 25.9553C27.9741 25.8763 28 25.7853 28 25.6925V22.6925C27.9998 22.6477 27.9936 22.6031 27.9815 22.56ZM16.618 28.6925L18.7235 27.6395H18.724L21.5 26.2515L23.382 27.1925L18.5 29.6335L16.618 28.6925ZM24 24.5015V26.3835L22 25.3835V23.5015L24 24.5015ZM24.5 21.7515L26.382 22.6925L24.5 23.6335L22.618 22.6925L24.5 21.7515ZM16 27.8835V22.5015L18 21.5015V26.8835L16 27.8835ZM15.5 19.7515L17.382 20.6925L15.5 21.6335L13.618 20.6925L15.5 19.7515ZM13 21.5015L15 22.5015V30.8835L13 29.8835V21.5015ZM16 29.5015L18 30.5015V32.3835L16 31.3835V29.5015ZM24 29.8835L19 32.3835V30.5015L24 28.0015V29.8835ZM27 25.3835L25 26.3835V24.5015L27 23.5015V25.3835Z" fill="#FF5252"/>
</g>
<defs>
<clipPath id="clip0_25_972">
<rect width="16" height="16" fill="white" transform="translate(12 18)"/>
</clipPath>
</defs>
</svg>
