<svg width="31" height="36" viewBox="0 0 31 36" fill="none" xmlns="http://www.w3.org/2000/svg">
<path d="M11 28H7.5625C5.59499 28 4 26.4554 4 24.55V6.5M5.5 5H12.4335C12.808 5 13.1726 5.08562 13.5 5.24495M23 18.5V16.2245C23 15.922 22.9385 15.6252 22.8216 15.35M13.5 5.24495C13.7656 5.37423 14.0067 5.55202 14.2086 5.77196L22.4001 14.6964C22.579 14.8914 22.7209 15.1127 22.8216 15.35M13.5 5.24495V11.9C13.5 13.8054 15.095 15.35 17.0625 15.35H22.8216" stroke="#EED49F" stroke-width="3"/>
<path d="M16.4999 21.5H15.9999C15.2499 21.5 14.4999 22.25 14.4999 23V25C14.4999 26.1 13.4999 27 12.6699 27C13.4999 27 14.4999 27.9 14.4999 29V31C14.4999 31.75 15.2499 32.5 15.9999 32.5H16.4999M23.4999 21.5H23.9999C24.7499 21.5 25.4999 22.25 25.4999 23V25C25.4999 26.1 26.4999 27 27.3299 27C26.4999 27 25.4999 27.9 25.4999 29V31C25.4999 31.74 24.7499 32.5 23.9999 32.5H23.4999M16.9999 29.5C17.1325 29.5 17.2597 29.4473 17.3535 29.3536C17.4472 29.2598 17.4999 29.1326 17.4999 29C17.4999 28.8674 17.4472 28.7402 17.3535 28.6464C17.2597 28.5527 17.1325 28.5 16.9999 28.5C16.8673 28.5 16.7401 28.5527 16.6464 28.6464C16.5526 28.7402 16.4999 28.8674 16.4999 29C16.4999 29.1326 16.5526 29.2598 16.6464 29.3536C16.7401 29.4473 16.8673 29.5 16.9999 29.5ZM19.9999 29.5C20.1325 29.5 20.2597 29.4473 20.3535 29.3536C20.4472 29.2598 20.4999 29.1326 20.4999 29C20.4999 28.8674 20.4472 28.7402 20.3535 28.6464C20.2597 28.5527 20.1325 28.5 19.9999 28.5C19.8673 28.5 19.7401 28.5527 19.6464 28.6464C19.5526 28.7402 19.4999 28.8674 19.4999 29C19.4999 29.1326 19.5526 29.2598 19.6464 29.3536C19.7401 29.4473 19.8673 29.5 19.9999 29.5ZM22.9999 29.5C23.1325 29.5 23.2597 29.4473 23.3535 29.3536C23.4472 29.2598 23.4999 29.1326 23.4999 29C23.4999 28.8674 23.4472 28.7402 23.3535 28.6464C23.2597 28.5527 23.1325 28.5 22.9999 28.5C22.8673 28.5 22.7401 28.5527 22.6464 28.6464C22.5526 28.7402 22.4999 28.8674 22.4999 29C22.4999 29.1326 22.5526 29.2598 22.6464 29.3536C22.7401 29.4473 22.8673 29.5 22.9999 29.5Z" stroke="#EED49F" stroke-width="0.633125" stroke-linecap="round" stroke-linejoin="round"/>
</svg>
