<svg width="31" height="36" viewBox="0 0 31 36" fill="none" xmlns="http://www.w3.org/2000/svg">
<path d="M11 28H7.5625C5.59499 28 4 26.4554 4 24.55V6.5M5.5 5H12.4335C12.808 5 13.1726 5.08562 13.5 5.24495M23 18.5V16.2245C23 15.922 22.9385 15.6252 22.8216 15.35M13.5 5.24495C13.7656 5.37423 14.0067 5.55202 14.2086 5.77196L22.4001 14.6964C22.579 14.8914 22.7209 15.1127 22.8216 15.35M13.5 5.24495V11.9C13.5 13.8054 15.095 15.35 17.0625 15.35H22.8216" stroke="#93B4E7" stroke-width="3"/>
<path d="M19.5004 20.0853L13.0723 23.7982V31.2246L19.5004 34.9375L25.9317 31.2246V23.7982L19.5004 20.0853Z" fill="url(#paint0_radial_25_462)"/>
<path d="M19.5 23.8519L16.3125 25.6938V29.3764L19.5 31.2188L22.6875 29.3775V25.6938L19.5 23.8519Z" fill="#6F95DB"/>
<path d="M19.5003 20.0625L13.0557 23.8009L19.5003 27.3098L25.9449 23.8237L19.5003 20.0625ZM19.5003 27.7911L13.0557 31.2087L19.5003 34.9237L25.922 31.1853L19.5003 27.7911Z" fill="white" fill-opacity="0.1"/>
<defs>
<radialGradient id="paint0_radial_25_462" cx="0" cy="0" r="1" gradientUnits="userSpaceOnUse" gradientTransform="translate(19.4498 27.0544) scale(6.87708 7.94096)">
<stop stop-color="#93B4E7"/>
<stop offset="0.593" stop-color="#B9D1F8"/>
<stop offset="1" stop-color="#9CB6E0"/>
</radialGradient>
</defs>
</svg>
