<svg width="31" height="36" viewBox="0 0 31 36" fill="none" xmlns="http://www.w3.org/2000/svg">
<path d="M11 28H7.5625C5.59499 28 4 26.4554 4 24.55V6.5M5.5 5H12.4335C12.808 5 13.1726 5.08562 13.5 5.24495M23 18.5V16.2245C23 15.922 22.9385 15.6252 22.8216 15.35M13.5 5.24495C13.7656 5.37423 14.0067 5.55202 14.2086 5.77196L22.4001 14.6964C22.579 14.8914 22.7209 15.1127 22.8216 15.35M13.5 5.24495V11.9C13.5 13.8054 15.095 15.35 17.0625 15.35H22.8216" stroke="black" stroke-width="3"/>
<g clip-path="url(#clip0_25_987)">
<mask id="mask0_25_987" style="mask-type:luminance" maskUnits="userSpaceOnUse" x="12" y="19" width="16" height="16">
<path d="M20 35C24.4183 35 28 31.4183 28 27C28 22.5817 24.4183 19 20 19C15.5817 19 12 22.5817 12 27C12 31.4183 15.5817 35 20 35Z" fill="white"/>
</mask>
<g mask="url(#mask0_25_987)">
<path d="M20 35C24.4183 35 28 31.4183 28 27C28 22.5817 24.4183 19 20 19C15.5817 19 12 22.5817 12 27C12 31.4183 15.5817 35 20 35Z" fill="black"/>
<path d="M25.2894 33.0017L18.1457 23.8H16.7998V30.1973H17.8766V25.1675L24.4442 33.6529C24.7401 33.4549 25.0225 33.2373 25.2894 33.0017Z" fill="url(#paint0_linear_25_987)"/>
<path d="M22.2227 23.8H23.2893V30.2H22.2227V23.8Z" fill="url(#paint1_linear_25_987)"/>
</g>
</g>
<defs>
<linearGradient id="paint0_linear_25_987" x1="489.103" y1="579.354" x2="772.606" y2="930.744" gradientUnits="userSpaceOnUse">
<stop stop-color="white"/>
<stop offset="1" stop-color="white" stop-opacity="0"/>
</linearGradient>
<linearGradient id="paint1_linear_25_987" x1="75.557" y1="23.8" x2="73.7523" y2="493.796" gradientUnits="userSpaceOnUse">
<stop stop-color="white"/>
<stop offset="1" stop-color="white" stop-opacity="0"/>
</linearGradient>
<clipPath id="clip0_25_987">
<rect width="16" height="16" fill="white" transform="translate(12 19)"/>
</clipPath>
</defs>
</svg>
