<svg width="31" height="36" viewBox="0 0 31 36" fill="none" xmlns="http://www.w3.org/2000/svg">
<path d="M11 28H7.5625C5.59499 28 4 26.4554 4 24.55V6.5M5.5 5H12.4335C12.808 5 13.1726 5.08562 13.5 5.24495M23 18.5V16.2245C23 15.922 22.9385 15.6252 22.8216 15.35M13.5 5.24495C13.7656 5.37423 14.0067 5.55202 14.2086 5.77196L22.4001 14.6964C22.579 14.8914 22.7209 15.1127 22.8216 15.35M13.5 5.24495V11.9C13.5 13.8054 15.095 15.35 17.0625 15.35H22.8216" stroke="#6668EA" stroke-width="3"/>
<path d="M17.4312 31.7323C16.7607 31.1182 16.5652 29.8272 16.8441 28.8922C17.3245 29.4136 17.9875 29.7295 18.695 29.7741C19.7518 29.9741 20.8446 29.8377 21.8198 29.3842C21.934 29.3278 22.0392 29.2529 22.1641 29.177C22.2543 29.4424 22.2834 29.7248 22.2491 30.0031C22.2132 30.3231 22.1095 30.6319 21.9448 30.9086C21.78 31.1854 21.5581 31.4238 21.2939 31.608C21.0793 31.7673 20.8519 31.9103 20.6298 32.0606C20.3203 32.2265 20.0851 32.5036 19.9717 32.836C19.8584 33.1684 19.8752 33.5315 20.0189 33.852L20.0444 33.9375C19.7171 33.7938 19.4397 33.5562 19.2475 33.2548C19.0465 32.9444 18.9399 32.5824 18.9405 32.2125C18.9422 32.0285 18.9333 31.8446 18.9139 31.6616C18.8533 31.2202 18.6461 31.022 18.2562 31.0108C18.0694 31.0003 17.8851 31.0581 17.7378 31.1734C17.5905 31.2888 17.4902 31.4538 17.4556 31.6377C17.4492 31.6675 17.4407 31.6972 17.4312 31.7323ZM13.6035 28.625C14.8209 27.9887 16.1626 27.6261 17.5348 27.5625L19.0823 23.1106C19.0888 23.0074 19.1343 22.9106 19.2097 22.8398C19.285 22.7691 19.3845 22.7297 19.4879 22.7297C19.5913 22.7297 19.6908 22.7691 19.7661 22.8398C19.8415 22.9106 19.887 23.0074 19.8935 23.1106L21.4655 27.5625C22.8482 27.5508 24.2077 27.9183 25.3962 28.625C25.3962 28.625 21.9989 19.5284 21.9925 19.5098C21.8958 19.2378 21.7322 19.0625 21.5117 19.0625H17.4641C17.2436 19.0625 17.0869 19.2378 16.9839 19.5098L13.6035 28.625Z" fill="#7C4DFF"/>
</svg>
