<svg width="31" height="36" viewBox="0 0 31 36" fill="none" xmlns="http://www.w3.org/2000/svg">
<path d="M11 28H7.5625C5.59499 28 4 26.4554 4 24.55V6.5M5.5 5H12.4335C12.808 5 13.1726 5.08562 13.5 5.24495M23 18.5V16.2245C23 15.922 22.9385 15.6252 22.8216 15.35M13.5 5.24495C13.7656 5.37423 14.0067 5.55202 14.2086 5.77196L22.4001 14.6964C22.579 14.8914 22.7209 15.1127 22.8216 15.35M13.5 5.24495V11.9C13.5 13.8054 15.095 15.35 17.0625 15.35H22.8216" stroke="#3D8C64" stroke-width="3"/>
<path d="M21.4029 26.1547L15.5225 25.1188V32.7736C15.5225 32.8567 15.539 32.939 15.5709 33.0159C15.6028 33.0927 15.6495 33.1624 15.7083 33.2212C15.7672 33.2799 15.837 33.3265 15.9139 33.3583C15.9907 33.39 16.0731 33.4063 16.1562 33.4063H26.3031C26.3864 33.4065 26.4688 33.3903 26.5458 33.3586C26.6228 33.3269 26.6928 33.2803 26.7517 33.2216C26.8107 33.1628 26.8575 33.093 26.8895 33.0161C26.9214 32.9392 26.9379 32.8568 26.938 32.7736V29.9531L21.4029 26.1547Z" fill="#185C37"/>
<path d="M21.4029 19.5938H16.1562C16.0731 19.5937 15.9907 19.61 15.9139 19.6418C15.837 19.6735 15.7672 19.7201 15.7083 19.7788C15.6495 19.8376 15.6028 19.9074 15.5709 19.9842C15.539 20.061 15.5225 20.1433 15.5225 20.2265V23.0469L21.4029 26.5L24.5165 27.5359L26.938 26.5V23.0469L21.4029 19.5938Z" fill="#21A366"/>
<path d="M15.5225 23.0469H21.4029V26.5H15.5225V23.0469Z" fill="#107C41"/>
<path opacity="0.1" d="M19.731 22.3563H15.5225V30.9891H19.731C19.8987 30.9882 20.0593 30.9214 20.1781 30.8029C20.2968 30.6845 20.3641 30.5241 20.3653 30.3564V22.989C20.3641 22.8213 20.2968 22.6608 20.1781 22.5424C20.0593 22.424 19.8987 22.3571 19.731 22.3563Z" fill="black"/>
<path opacity="0.2" d="M19.3852 22.7015H15.5225V31.3344H19.3852C19.5529 31.3335 19.7135 31.2666 19.8322 31.1482C19.951 31.0298 20.0182 30.8693 20.0195 30.7016V23.3343C20.0182 23.1666 19.951 23.0061 19.8322 22.8877C19.7135 22.7693 19.5529 22.7024 19.3852 22.7015Z" fill="black"/>
<path opacity="0.2" d="M19.3852 22.7015H15.5225V30.6437H19.3852C19.5529 30.6429 19.7135 30.576 19.8322 30.4576C19.951 30.3391 20.0182 30.1787 20.0195 30.011V23.3343C20.0182 23.1666 19.951 23.0061 19.8322 22.8877C19.7135 22.7693 19.5529 22.7024 19.3852 22.7015Z" fill="black"/>
<path opacity="0.2" d="M19.0393 22.7015H15.5225V30.6437H19.0393C19.207 30.6429 19.3676 30.576 19.4864 30.4576C19.6051 30.3391 19.6724 30.1787 19.6736 30.011V23.3343C19.6724 23.1666 19.6051 23.0061 19.4864 22.8877C19.3676 22.7693 19.207 22.7024 19.0393 22.7015Z" fill="black"/>
<path d="M12.6968 22.7015H19.0389C19.2069 22.7014 19.3681 22.768 19.487 22.8866C19.6059 23.0052 19.6729 23.1663 19.6732 23.3343V29.6657C19.6729 29.8337 19.6059 29.9947 19.487 30.1133C19.3681 30.232 19.2069 30.2986 19.0389 30.2984H12.6968C12.6136 30.2986 12.5312 30.2823 12.4543 30.2506C12.3774 30.2188 12.3074 30.1723 12.2485 30.1135C12.1896 30.0547 12.1429 29.9849 12.111 29.9081C12.079 29.8313 12.0626 29.7489 12.0625 29.6657V23.3343C12.0626 23.2511 12.079 23.1687 12.111 23.0918C12.1429 23.015 12.1896 22.9452 12.2485 22.8864C12.3074 22.8277 12.3774 22.7811 12.4543 22.7494C12.5312 22.7177 12.6136 22.7014 12.6968 22.7015Z" fill="url(#paint0_linear_25_892)"/>
<path d="M14.0283 28.5575L15.3623 26.4941L14.1404 24.4424H15.1216L15.7884 25.7562C15.85 25.8805 15.8946 25.973 15.9148 26.0346H15.9238C15.9674 25.9347 16.0136 25.8386 16.0619 25.7445L16.7749 24.4446H17.678L16.4248 26.4846L17.7099 28.5591H16.7489L15.9785 27.1189C15.9428 27.057 15.9124 26.9921 15.8877 26.925H15.8749C15.8525 26.9904 15.8225 27.0529 15.7857 27.1114L14.9925 28.5575H14.0283Z" fill="white"/>
<path d="M26.3031 19.5938H21.4023V23.0469H26.9374V20.2265C26.9374 20.1433 26.9209 20.0609 26.889 19.9841C26.8571 19.9072 26.8103 19.8374 26.7514 19.7787C26.6925 19.7199 26.6226 19.6733 26.5457 19.6416C26.4687 19.6099 26.3863 19.5936 26.3031 19.5938Z" fill="#33C481"/>
<path d="M21.4023 26.5H26.9374V29.9531H21.4023V26.5Z" fill="#107C41"/>
<defs>
<linearGradient id="paint0_linear_25_892" x1="13.3874" y1="22.2043" x2="18.3482" y2="30.7957" gradientUnits="userSpaceOnUse">
<stop stop-color="#18884F"/>
<stop offset="0.5" stop-color="#117E43"/>
<stop offset="1" stop-color="#0B6631"/>
</linearGradient>
</defs>
</svg>
