<svg width="31" height="36" viewBox="0 0 31 36" fill="none" xmlns="http://www.w3.org/2000/svg">
<path d="M11 28H7.5625C5.59499 28 4 26.4554 4 24.55V6.5M5.5 5H12.4335C12.808 5 13.1726 5.08562 13.5 5.24495M23 18.5V16.2245C23 15.922 22.9385 15.6252 22.8216 15.35M13.5 5.24495C13.7656 5.37423 14.0067 5.55202 14.2086 5.77196L22.4001 14.6964C22.579 14.8914 22.7209 15.1127 22.8216 15.35M13.5 5.24495V11.9C13.5 13.8054 15.095 15.35 17.0625 15.35H22.8216" stroke="#0288D1" stroke-width="3"/>
<path d="M26.4491 25.2604C26.4066 25.2321 26.0524 24.9558 25.2874 24.9558C25.0891 24.9558 24.8907 24.9771 24.6924 25.0125C24.5437 24.0208 23.7149 23.5179 23.6795 23.4967L23.4741 23.3763L23.3466 23.5675C23.1766 23.8225 23.042 24.1129 22.9853 24.4104C22.8437 24.9771 22.9287 25.5154 23.2191 25.9758C22.872 26.1742 22.3053 26.2238 22.1849 26.2238H12.8562C12.6153 26.2238 12.417 26.4221 12.417 26.67C12.417 27.4846 12.5445 28.2992 12.8278 29.0642C13.1466 29.9071 13.6282 30.5304 14.2445 30.9129C14.9387 31.3379 16.0791 31.5788 17.3753 31.5788C17.9349 31.5788 18.5157 31.5292 19.0895 31.4229C19.8828 31.2813 20.6478 31.005 21.3491 30.6013C21.9298 30.2692 22.4497 29.8404 22.8862 29.3333C23.6299 28.5046 24.0691 27.5625 24.3878 26.7479H24.5224C25.3299 26.7479 25.8328 26.4221 26.1091 26.1458C26.2932 25.9758 26.4278 25.7704 26.527 25.5296L26.5837 25.3596L26.4491 25.2604ZM13.7274 25.9617H14.9741C15.0307 25.9617 15.0874 25.9121 15.0874 25.8483V24.7292C15.0874 24.6725 15.0378 24.6158 14.9741 24.6158H13.7274C13.6637 24.6158 13.6141 24.6654 13.6141 24.7292V25.8483C13.6212 25.9121 13.6637 25.9617 13.7274 25.9617ZM15.4487 25.9617H16.6953C16.752 25.9617 16.8087 25.9121 16.8087 25.8483V24.7292C16.8087 24.6725 16.7591 24.6158 16.6953 24.6158H15.4487C15.3849 24.6158 15.3353 24.6654 15.3353 24.7292V25.8483C15.3424 25.9121 15.3849 25.9617 15.4487 25.9617ZM17.1982 25.9617H18.4378C18.5087 25.9617 18.5582 25.9121 18.5582 25.8483V24.7292C18.5582 24.6725 18.5157 24.6158 18.4378 24.6158H17.1982C17.1416 24.6158 17.092 24.6654 17.092 24.7292V25.8483C17.092 25.9121 17.1345 25.9617 17.1982 25.9617ZM18.9266 25.9617H20.1803C20.237 25.9617 20.2866 25.9121 20.2866 25.8483V24.7292C20.2866 24.6725 20.2441 24.6158 20.1803 24.6158H18.9266C18.8699 24.6158 18.8203 24.6654 18.8203 24.7292V25.8483C18.8203 25.9121 18.8699 25.9617 18.9266 25.9617ZM15.4487 24.375H16.6953C16.752 24.375 16.8087 24.3113 16.8087 24.2475V23.1354C16.8087 23.0717 16.7591 23.0221 16.6953 23.0221H15.4487C15.3849 23.0221 15.3353 23.0646 15.3353 23.1354V24.2475C15.3424 24.3113 15.3849 24.375 15.4487 24.375ZM17.1982 24.375H18.4378C18.5087 24.375 18.5582 24.3113 18.5582 24.2475V23.1354C18.5582 23.0717 18.5157 23.0221 18.4378 23.0221H17.1982C17.1416 23.0221 17.092 23.0646 17.092 23.1354V24.2475C17.092 24.3113 17.1345 24.375 17.1982 24.375ZM18.9266 24.375H20.1803C20.237 24.375 20.2866 24.3113 20.2866 24.2475V23.1354C20.2866 23.0717 20.237 23.0221 20.1803 23.0221H18.9266C18.8699 23.0221 18.8203 23.0646 18.8203 23.1354V24.2475C18.8203 24.3113 18.8699 24.375 18.9266 24.375ZM18.9266 22.76H20.1803C20.237 22.76 20.2866 22.7104 20.2866 22.6467V21.5417C20.2866 21.4708 20.237 21.4213 20.1803 21.4213H18.9266C18.8699 21.4213 18.8203 21.4638 18.8203 21.5417V22.6467C18.8203 22.7033 18.8699 22.76 18.9266 22.76ZM20.6691 25.9617H21.9157C21.9795 25.9617 22.0291 25.9121 22.0291 25.8483V24.7292C22.0291 24.6725 21.9795 24.6158 21.9157 24.6158H20.6691C20.6124 24.6158 20.5628 24.6654 20.5628 24.7292V25.8483C20.5628 25.9121 20.6124 25.9617 20.6691 25.9617Z" fill="#0288D1"/>
</svg>
