<svg width="31" height="36" viewBox="0 0 31 36" fill="none" xmlns="http://www.w3.org/2000/svg">
<path d="M11 28H7.5625C5.59499 28 4 26.4554 4 24.55V6.5M5.5 5H12.4335C12.808 5 13.1726 5.08562 13.5 5.24495M23 18.5V16.2245C23 15.922 22.9385 15.6252 22.8216 15.35M13.5 5.24495C13.7656 5.37423 14.0067 5.55202 14.2086 5.77196L22.4001 14.6964C22.579 14.8914 22.7209 15.1127 22.8216 15.35M13.5 5.24495V11.9C13.5 13.8054 15.095 15.35 17.0625 15.35H22.8216" stroke="#CECECE" stroke-width="3"/>
<path d="M14.3047 24.375C13.6445 24.375 13.3144 24.375 13.0545 24.2673C12.8825 24.1961 12.7262 24.0917 12.5946 23.9601C12.4629 23.8285 12.3586 23.6722 12.2874 23.5002C12.1797 23.2402 12.1797 22.9102 12.1797 22.25C12.1797 21.5898 12.1797 21.2598 12.2874 20.9998C12.3586 20.8278 12.4629 20.6715 12.5946 20.5399C12.7262 20.4083 12.8825 20.3039 13.0545 20.2327C13.3144 20.125 13.6445 20.125 14.3047 20.125H19.4529C19.4219 20.1786 19.3944 20.2342 19.3707 20.2915C19.263 20.5514 19.263 20.8815 19.263 21.5417V24.375H14.3047ZM26.3464 22.25C26.3464 22.9102 26.3464 23.2402 26.2387 23.5002C26.1675 23.6722 26.0631 23.8285 25.9315 23.9601C25.7998 24.0917 25.6436 24.1961 25.4716 24.2673C25.2116 24.375 24.8815 24.375 24.2214 24.375H23.513V21.5417C23.513 20.8815 23.513 20.5514 23.4054 20.2915C23.3816 20.2342 23.3542 20.1786 23.3232 20.125H24.2214C24.8815 20.125 25.2116 20.125 25.4716 20.2327C25.6436 20.3039 25.7998 20.4083 25.9315 20.5399C26.0631 20.6715 26.1675 20.8278 26.2387 20.9998C26.3464 21.2598 26.3464 21.5898 26.3464 22.25Z" fill="#E73A38"/>
<path d="M23.4054 32.7085C23.513 32.4486 23.513 32.1185 23.513 31.4583V28.625H24.2214C24.8815 28.625 25.2116 28.625 25.4716 28.7327C25.6436 28.8039 25.7998 28.9083 25.9315 29.0399C26.0631 29.1715 26.1675 29.3278 26.2387 29.4998C26.3464 29.7598 26.3464 30.0898 26.3464 30.75C26.3464 31.4102 26.3464 31.7402 26.2387 32.0002C26.1675 32.1722 26.0631 32.3285 25.9315 32.4601C25.7998 32.5917 25.6436 32.6961 25.4716 32.7673C25.2116 32.875 24.8815 32.875 24.2214 32.875H23.3232C23.3544 32.8216 23.3817 32.7662 23.4054 32.7085ZM19.4529 32.875H14.3047C13.6445 32.875 13.3144 32.875 13.0545 32.7673C12.8825 32.6961 12.7262 32.5917 12.5946 32.4601C12.4629 32.3285 12.3586 32.1722 12.2874 32.0002C12.1797 31.7402 12.1797 31.4102 12.1797 30.75C12.1797 30.0898 12.1797 29.7598 12.2874 29.4998C12.3586 29.3278 12.4629 29.1715 12.5946 29.0399C12.7262 28.9083 12.8825 28.8039 13.0545 28.7327C13.3144 28.625 13.6445 28.625 14.3047 28.625H19.263V31.4583C19.263 32.1185 19.263 32.4486 19.3707 32.7085C19.3943 32.7662 19.4217 32.8216 19.4529 32.875Z" fill="#199A5A"/>
<path d="M23.513 24.375H24.2214C24.8815 24.375 25.2116 24.375 25.4716 24.4827C25.6436 24.5539 25.7998 24.6583 25.9315 24.7899C26.0631 24.9215 26.1675 25.0778 26.2387 25.2498C26.3464 25.5097 26.3464 25.8398 26.3464 26.5C26.3464 27.1602 26.3464 27.4903 26.2387 27.7502C26.1675 27.9222 26.0631 28.0785 25.9315 28.2101C25.7998 28.3417 25.6436 28.4461 25.4716 28.5173C25.2116 28.625 24.8815 28.625 24.2214 28.625H23.513V24.375ZM19.263 24.375V28.625H14.3047C13.6445 28.625 13.3144 28.625 13.0545 28.5173C12.8825 28.4461 12.7262 28.3417 12.5946 28.2101C12.4629 28.0785 12.3586 27.9222 12.2874 27.7502C12.1797 27.4903 12.1797 27.1602 12.1797 26.5C12.1797 25.8398 12.1797 25.5097 12.2874 25.2498C12.3586 25.0778 12.4629 24.9215 12.5946 24.7899C12.7262 24.6583 12.8825 24.5539 13.0545 24.4827C13.3144 24.375 13.6445 24.375 14.3047 24.375H19.263Z" fill="#3F7DE8"/>
<path fill-rule="evenodd" clip-rule="evenodd" d="M23.406 20.2915C23.5137 20.5514 23.5137 20.8815 23.5137 21.5417V31.4584C23.5137 32.1185 23.5137 32.4486 23.406 32.7086C23.3348 32.8806 23.2304 33.0368 23.0988 33.1685C22.9672 33.3001 22.8109 33.4045 22.6389 33.4757C22.3789 33.5834 22.0488 33.5834 21.3887 33.5834C20.7285 33.5834 20.3984 33.5834 20.1385 33.4757C19.9665 33.4045 19.8102 33.3001 19.6786 33.1685C19.5469 33.0368 19.4425 32.8806 19.3713 32.7086C19.2637 32.4486 19.2637 32.1185 19.2637 31.4584V21.5417C19.2637 20.8815 19.2637 20.5514 19.3713 20.2915C19.3949 20.2339 19.4223 20.1784 19.4535 20.125C19.6095 19.8548 19.8502 19.6437 20.1385 19.5244C20.3984 19.4167 20.7285 19.4167 21.3887 19.4167C22.0488 19.4167 22.3789 19.4167 22.6389 19.5244C22.8109 19.5956 22.9672 19.6999 23.0988 19.8316C23.2304 19.9632 23.3348 20.1195 23.406 20.2915ZM21.9199 25.7917C21.9199 25.6508 21.864 25.5157 21.7643 25.416C21.6647 25.3164 21.5296 25.2604 21.3887 25.2604C21.2478 25.2604 21.1126 25.3164 21.013 25.416C20.9134 25.5157 20.8574 25.6508 20.8574 25.7917V27.2084C20.8574 27.3492 20.9134 27.4844 21.013 27.584C21.1126 27.6836 21.2478 27.7396 21.3887 27.7396C21.5296 27.7396 21.6647 27.6836 21.7643 27.584C21.864 27.4844 21.9199 27.3492 21.9199 27.2084V25.7917Z" fill="#FBA953"/>
</svg>
