<svg width="31" height="36" viewBox="0 0 31 36" fill="none" xmlns="http://www.w3.org/2000/svg">
<path d="M11 28H7.5625C5.59499 28 4 26.4554 4 24.55V6.5M5.5 5H12.4335C12.808 5 13.1726 5.08562 13.5 5.24495M23 18.5V16.2245C23 15.922 22.9385 15.6252 22.8216 15.35M13.5 5.24495C13.7656 5.37423 14.0067 5.55202 14.2086 5.77196L22.4001 14.6964C22.579 14.8914 22.7209 15.1127 22.8216 15.35M13.5 5.24495V11.9C13.5 13.8054 15.095 15.35 17.0625 15.35H22.8216" stroke="#FFB300" stroke-width="3"/>
<path d="M26.5839 26.015C26.4568 25.8826 26.3039 25.7774 26.1347 25.7061C25.9655 25.6347 25.7836 25.5986 25.5999 25.6C25.4199 25.5936 25.2405 25.6259 25.0741 25.695C24.9077 25.764 24.7581 25.868 24.6354 26H22.4139L23.9529 24.461C24.1403 24.4625 24.3261 24.4268 24.4996 24.356C24.6731 24.2852 24.8308 24.1807 24.9636 24.0485C25.0965 23.9164 25.2018 23.7592 25.2735 23.5861C25.3452 23.413 25.3819 23.2274 25.3814 23.04C25.3859 22.8559 25.3512 22.6728 25.2795 22.5031C25.2079 22.3334 25.101 22.1808 24.9659 22.0555C24.8323 21.9268 24.6745 21.8258 24.5017 21.7582C24.3289 21.6905 24.1445 21.6577 23.9589 21.6615C23.7767 21.6565 23.5954 21.6889 23.4262 21.7567C23.2569 21.8244 23.1034 21.9261 22.9749 22.0555C22.8381 22.1739 22.7304 22.3221 22.66 22.4887C22.5896 22.6553 22.5584 22.8359 22.5689 23.0165L20.9999 24.585V22.363C21.1319 22.2404 21.236 22.0908 21.305 21.9243C21.374 21.7579 21.4064 21.5786 21.3999 21.3985C21.4012 21.2148 21.3649 21.0328 21.2934 20.8636C21.2219 20.6944 21.1166 20.5416 20.9839 20.4145C20.856 20.283 20.7031 20.1784 20.534 20.107C20.365 20.0356 20.1834 19.9988 19.9999 19.9988C19.8165 19.9988 19.6349 20.0356 19.4658 20.107C19.2968 20.1784 19.1438 20.283 19.0159 20.4145C18.8833 20.5416 18.778 20.6944 18.7065 20.8636C18.6349 21.0328 18.5987 21.2148 18.5999 21.3985C18.5934 21.5787 18.6257 21.7581 18.6948 21.9246C18.7638 22.0911 18.8679 22.2408 18.9999 22.3635V24.585L17.4309 23.016C17.4415 22.8354 17.4103 22.6548 17.3399 22.4882C17.2695 22.3216 17.1617 22.1734 17.0249 22.055C16.8967 21.9254 16.7432 21.8235 16.5739 21.7558C16.4046 21.688 16.2232 21.6557 16.0409 21.661C15.6663 21.6539 15.3042 21.7956 15.0339 22.055C14.8989 22.1803 14.792 22.3329 14.7204 22.5026C14.6487 22.6723 14.614 22.8554 14.6184 23.0395C14.6152 23.2268 14.6504 23.4127 14.7219 23.5858C14.7934 23.7589 14.8996 23.9156 15.0339 24.046C15.1663 24.1796 15.3242 24.2852 15.4983 24.3564C15.6723 24.4276 15.8589 24.463 16.0469 24.4605L17.5859 25.9995H15.3644C15.2418 25.8675 15.0922 25.7635 14.9258 25.6945C14.7593 25.6254 14.58 25.5931 14.3999 25.5995C14.2163 25.5982 14.0343 25.6344 13.8651 25.7058C13.6959 25.7773 13.5431 25.8825 13.4159 26.015C13.2843 26.1429 13.1797 26.2959 13.1083 26.465C13.0368 26.6341 13 26.8157 13 26.9993C13 27.1828 13.0368 27.3645 13.1083 27.5335C13.1797 27.7026 13.2843 27.8556 13.4159 27.9835C13.543 28.1162 13.6958 28.2215 13.865 28.293C14.0342 28.3645 14.2162 28.4008 14.3999 28.3995C14.58 28.406 14.7593 28.3736 14.9258 28.3046C15.0922 28.2356 15.2418 28.1315 15.3644 27.9995H17.5859L16.0469 29.538C15.8596 29.5366 15.6738 29.5723 15.5003 29.6431C15.3268 29.7139 15.1691 29.8184 15.0363 29.9505C14.9034 30.0827 14.7981 30.2398 14.7264 30.4129C14.6547 30.586 14.618 30.7716 14.6184 30.959C14.614 31.1432 14.6487 31.3262 14.7204 31.4959C14.792 31.6657 14.8989 31.8182 15.0339 31.9435C15.1676 32.0722 15.3254 32.1733 15.4982 32.2409C15.671 32.3085 15.8554 32.3413 16.0409 32.3375C16.2232 32.3425 16.4045 32.3101 16.5737 32.2424C16.743 32.1746 16.8965 32.0729 17.0249 31.9435C17.1617 31.8252 17.2695 31.677 17.3399 31.5103C17.4103 31.3437 17.4415 31.1631 17.4309 30.9825L18.9999 29.4135V31.6355C18.8679 31.7582 18.7639 31.9078 18.6949 32.0742C18.6258 32.2406 18.5935 32.42 18.5999 32.6C18.5984 32.8769 18.6796 33.1479 18.8329 33.3785C18.9863 33.609 19.2049 33.7886 19.4608 33.8942C19.7168 33.9999 19.9984 34.0268 20.2697 33.9715C20.541 33.9163 20.7897 33.7813 20.9839 33.584C21.1166 33.4569 21.2219 33.3041 21.2934 33.1349C21.3649 32.9657 21.4012 32.7837 21.3999 32.6C21.4064 32.42 21.374 32.2406 21.305 32.0742C21.236 31.9078 21.1319 31.7582 20.9999 31.6355V29.4135L22.5689 30.9825C22.5584 31.1631 22.5896 31.3437 22.66 31.5103C22.7304 31.677 22.8381 31.8252 22.9749 31.9435C23.1032 32.0731 23.2567 32.175 23.426 32.2428C23.5953 32.3106 23.7767 32.3428 23.9589 32.3375C24.3335 32.3447 24.6957 32.203 24.9659 31.9435C25.101 31.8182 25.2079 31.6657 25.2795 31.4959C25.3512 31.3262 25.3859 31.1432 25.3814 30.959C25.3847 30.7718 25.3494 30.5858 25.278 30.4127C25.2065 30.2396 25.1003 30.083 24.9659 29.9525C24.8336 29.8189 24.6757 29.7134 24.5016 29.6422C24.3276 29.571 24.141 29.5355 23.9529 29.538L22.4139 28H24.6354C24.7581 28.1321 24.9078 28.2362 25.0743 28.3052C25.2409 28.3742 25.4203 28.4066 25.6004 28.4C25.8774 28.4015 26.1485 28.3204 26.379 28.1669C26.6096 28.0135 26.7892 27.7948 26.8948 27.5388C27.0004 27.2828 27.0272 27.0011 26.9718 26.7297C26.9165 26.4584 26.7814 26.2097 26.5839 26.0155V26.015Z" fill="#FFB300"/>
</svg>
