<svg width="39" height="38" viewBox="0 0 39 38" fill="none" xmlns="http://www.w3.org/2000/svg">
<path d="M31.3208 10.0399H22.5834L19.7257 7.18225C18.9667 6.42323 17.9419 6 16.868 6H9.04004V10.0399H16.8715L19.7292 12.8976C20.4882 13.6566 21.5131 14.0799 22.5869 14.0799H30.4184L30.5 21.5H34.4583V13.1774C34.4583 11.446 33.0557 10.0399 31.3208 10.0399Z" fill="#EA666F"/>
<path d="M9.03991 10.0398H5V28.4171C5 30.1485 6.4026 31.5546 8.13749 31.5546H25V27.5147H9.03991V10.0398Z" fill="#EA666F"/>
<path d="M29 24V29.092C28.8398 29.0331 28.6707 29.002 28.5 29C28.2033 29 27.9133 29.088 27.6666 29.2528C27.42 29.4176 27.2277 29.6519 27.1142 29.926C27.0006 30.2001 26.9709 30.5017 27.0288 30.7926C27.0867 31.0836 27.2296 31.3509 27.4393 31.5607C27.6491 31.7704 27.9164 31.9133 28.2074 31.9712C28.4983 32.0291 28.7999 31.9994 29.074 31.8858C29.3481 31.7723 29.5824 31.58 29.7472 31.3334C29.912 31.0867 30 30.7967 30 30.5V25.5H33.5V27.592C33.3398 27.5331 33.1707 27.502 33 27.5C32.7033 27.5 32.4133 27.588 32.1666 27.7528C31.92 27.9176 31.7277 28.1519 31.6142 28.426C31.5006 28.7001 31.4709 29.0017 31.5288 29.2926C31.5867 29.5836 31.7296 29.8509 31.9393 30.0607C32.1491 30.2704 32.4164 30.4133 32.7074 30.4712C32.9983 30.5291 33.2999 30.4994 33.574 30.3858C33.8481 30.2723 34.0824 30.08 34.2472 29.8334C34.412 29.5867 34.5 29.2967 34.5 29V24H29Z" fill="#EA666F"/>
</svg>
