<svg width="39" height="38" viewBox="0 0 39 38" fill="none" xmlns="http://www.w3.org/2000/svg">
<path d="M31.3208 10.0399H22.5834L19.7257 7.18225C18.9667 6.42323 17.9419 6 16.868 6H9.04004V10.0399H16.8715L19.7292 12.8976C20.4882 13.6566 21.5131 14.0799 22.5869 14.0799H30.4184V20.5H34.4583V13.1774C34.4583 11.446 33.0557 10.0399 31.3208 10.0399Z" fill="#EA666F"/>
<path d="M9 19C7.4379 19 6.5 19.5 6 20C5.5 20.5 5 21 5 22C5 23 5 28.4171 5 28.4171C5 30.1485 6.4026 31.5546 8.13749 31.5546H24.5V27.5L9.03992 27.5147L9 19Z" fill="#EA666F"/>
<path d="M25.0004 24H21.0004V22H9.00037V19H21C22.6706 19 23.5351 19.5841 24 20C24.7003 20.6266 25.0557 21.2567 25.0557 22L25.0004 24Z" fill="#EA666F"/>
<path d="M28.3337 23.1667V28.683C28.1601 28.6192 27.9769 28.5855 27.792 28.5834C27.4706 28.5834 27.1564 28.6787 26.8892 28.8572C26.622 29.0358 26.4137 29.2896 26.2907 29.5865C26.1677 29.8834 26.1355 30.2102 26.1982 30.5254C26.2609 30.8406 26.4157 31.1301 26.6429 31.3574C26.8702 31.5847 27.1598 31.7394 27.475 31.8021C27.7902 31.8648 28.1169 31.8327 28.4139 31.7097C28.7108 31.5867 28.9646 31.3784 29.1431 31.1112C29.3217 30.8439 29.417 30.5297 29.417 30.2084V24.7917H33.2087V27.058C33.0351 26.9942 32.8519 26.9605 32.667 26.9584C32.3456 26.9584 32.0314 27.0537 31.7642 27.2322C31.497 27.4108 31.2887 27.6646 31.1657 27.9615C31.0427 28.2584 31.0105 28.5852 31.0732 28.9004C31.1359 29.2156 31.2907 29.5051 31.5179 29.7324C31.7452 29.9597 32.0348 30.1144 32.35 30.1771C32.6652 30.2398 32.9919 30.2077 33.2889 30.0847C33.5858 29.9617 33.8396 29.7534 34.0181 29.4862C34.1967 29.2189 34.292 28.9047 34.292 28.5834V23.1667H28.3337Z" fill="#EA666F"/>
</svg>
