<svg width="31" height="36" viewBox="0 0 31 36" fill="none" xmlns="http://www.w3.org/2000/svg">
<path d="M11 28H7.5625C5.59499 28 4 26.4554 4 24.55V6.5M5.5 5H12.4335C12.808 5 13.1726 5.08562 13.5 5.24495M23 18.5V16.2245C23 15.922 22.9385 15.6252 22.8216 15.35M13.5 5.24495C13.7656 5.37423 14.0067 5.55202 14.2086 5.77196L22.4001 14.6964C22.579 14.8914 22.7209 15.1127 22.8216 15.35M13.5 5.24495V11.9C13.5 13.8054 15.095 15.35 17.0625 15.35H22.8216" stroke="#8AADF4" stroke-width="3"/>
<path d="M11 28H7.5625C5.59499 28 4 26.4554 4 24.55V6.5M5.5 5H12.4335C12.808 5 13.1726 5.08562 13.5 5.24495M23 18.5V16.2245C23 15.922 22.9385 15.6252 22.8216 15.35M13.5 5.24495C13.7656 5.37423 14.0067 5.55202 14.2086 5.77196L22.4001 14.6964C22.579 14.8914 22.7209 15.1127 22.8216 15.35M13.5 5.24495V11.9C13.5 13.8054 15.095 15.35 17.0625 15.35H22.8216" stroke="#8AADF4" stroke-width="3"/>
<g clip-path="url(#clip0_24_376)">
<path d="M14 35.5C13.3 35.5 12.5 34.7 12.5 34V25C12.5 24.3 13.3 23.5 14 23.5H23C23.7 23.5 24.5 24.3 24.5 25V34C24.5 34.7 23.7 35.5 23 35.5H14Z" stroke="#8AADF4" stroke-width="0.633125" stroke-linecap="round" stroke-linejoin="round"/>
<path d="M13.2002 23.8L16.2402 21.3C16.2402 21.3 17.1702 20.5 17.7002 20.5H26.1002C26.7602 20.5 27.5002 21.23 27.5002 21.9V29.63C27.4847 30.2785 27.2362 30.8997 26.8002 31.38L24.1202 34.89M15.0002 28.5L18.0002 30.5L15.0002 32.5M19.0002 32.5H21.0002" stroke="#8AADF4" stroke-width="0.633125" stroke-linecap="round" stroke-linejoin="round"/>
</g>
<defs>
<clipPath id="clip0_24_376">
<rect width="16" height="16" fill="white" transform="translate(12 20)"/>
</clipPath>
</defs>
</svg>
