<svg width="39" height="38" viewBox="0 0 39 38" fill="none" xmlns="http://www.w3.org/2000/svg">
<path d="M31.3208 10.0399H22.5834L19.7257 7.18225C18.9667 6.42323 17.9419 6 16.868 6H9.04004V10.0399H16.8715L19.7292 12.8976C20.4882 13.6566 21.5131 14.0799 22.5869 14.0799H30.4184L30.5 21.5H34.4583V13.1774C34.4583 11.446 33.0557 10.0399 31.3208 10.0399Z" fill="#EA9066"/>
<path d="M9.03991 10.0398H5V28.4171C5 30.1485 6.4026 31.5546 8.13749 31.5546H25V27.5147H9.03991V10.0398Z" fill="#EA9066"/>
<g clip-path="url(#clip0_31_497)">
<path d="M26.0029 25.5169L26.4073 30.0462L30.4674 32L30.4202 27.2043L26.0029 25.5169ZM31.4468 27.1447L34.9931 25.1317L34.6198 29.5722L31.3921 31.9652L31.4468 27.1447ZM30.8557 26.286L34.4641 24.3618L30.2024 23L26.4073 24.6578L30.8557 26.286Z" fill="#EA9066"/>
</g>
<defs>
<clipPath id="clip0_31_497">
<rect width="9" height="9" fill="white" transform="translate(26 23)"/>
</clipPath>
</defs>
</svg>
