<svg width="39" height="38" viewBox="0 0 39 38" fill="none" xmlns="http://www.w3.org/2000/svg">
<path d="M31.3208 10.0399H22.5834L19.7257 7.18225C18.9667 6.42323 17.9419 6 16.868 6H9.04004V10.0399H16.8715L19.7292 12.8976C20.4882 13.6566 21.5131 14.0799 22.5869 14.0799H30.4184V20.5H34.4583V13.1774C34.4583 11.446 33.0557 10.0399 31.3208 10.0399Z" fill="#61DA7C"/>
<path d="M9 19C7.4379 19 6.5 19.5 6 20C5.5 20.5 5 21 5 22C5 23 5 28.4171 5 28.4171C5 30.1485 6.4026 31.5546 8.13749 31.5546H24.5V27.5L9.03992 27.5147L9 19Z" fill="#61DA7C"/>
<path d="M25.0004 24H21.0004V22H9.00037V19H21C22.6706 19 23.5351 19.5841 24 20C24.7003 20.6266 25.0557 21.2567 25.0557 22L25.0004 24Z" fill="#61DA7C"/>
<path d="M29.05 31.6065C28.4417 31.3438 27.9125 30.9875 27.4625 30.5375C27.0125 30.0875 26.6563 29.5583 26.394 28.95C26.1317 28.3417 26.0003 27.6917 26 27C25.9997 26.3083 26.131 25.6583 26.394 25.05C26.657 24.4417 27.0132 23.9125 27.4625 23.4625C27.9118 23.0125 28.441 22.6563 29.05 22.394C29.659 22.1317 30.309 22.0003 31 22C31.691 21.9997 32.341 22.131 32.95 22.394C33.559 22.657 34.0882 23.0132 34.5375 23.4625C34.9868 23.9118 35.3432 24.441 35.6065 25.05C35.8698 25.659 36.001 26.309 36 27C35.999 27.691 35.8677 28.341 35.606 28.95C35.3443 29.559 34.9882 30.0882 34.5375 30.5375C34.0868 30.9868 33.5577 31.3432 32.95 31.6065C32.3423 31.8698 31.6923 32.001 31 32C30.3077 31.999 29.6577 31.8682 29.05 31.6065ZM30.5 30.975V30C30.225 30 29.9897 29.9022 29.794 29.7065C29.5983 29.5108 29.5003 29.2753 29.5 29V28.5L27.1 26.1C27.075 26.25 27.0522 26.4 27.0315 26.55C27.0108 26.7 27.0003 26.85 27 27C27 28.0083 27.3313 28.8917 27.994 29.65C28.6567 30.4083 29.492 30.85 30.5 30.975ZM33.95 29.7C34.2917 29.325 34.5522 28.9063 34.7315 28.444C34.9108 27.9817 35.0003 27.5003 35 27C35 26.1833 34.773 25.4375 34.319 24.7625C33.865 24.0875 33.2587 23.6 32.5 23.3V23.5C32.5 23.775 32.4022 24.0105 32.2065 24.2065C32.0108 24.4025 31.7753 24.5003 31.5 24.5H30.5V25.5C30.5 25.6417 30.452 25.7605 30.356 25.8565C30.26 25.9525 30.1413 26.0003 30 26H29V27H32C32.1417 27 32.2605 27.048 32.3565 27.144C32.4525 27.24 32.5003 27.3587 32.5 27.5V29H33C33.2167 29 33.4125 29.0647 33.5875 29.194C33.7625 29.3233 33.8833 29.492 33.95 29.7Z" fill="#3D8C75"/>
</svg>
