<svg width="39" height="38" viewBox="0 0 39 38" fill="none" xmlns="http://www.w3.org/2000/svg">
<path d="M31.3208 10.0399H22.5834L19.7257 7.18225C18.9667 6.42323 17.9419 6 16.868 6H9.04004V10.0399H16.8715L19.7292 12.8976C20.4882 13.6566 21.5131 14.0799 22.5869 14.0799H30.4184L30.5 21.5H34.4583V13.1774C34.4583 11.446 33.0557 10.0399 31.3208 10.0399Z" fill="#61DA7C"/>
<path d="M9.03991 10.0398H5V28.4171C5 30.1485 6.4026 31.5546 8.13749 31.5546H25V27.5147H9.03991V10.0398Z" fill="#61DA7C"/>
<path d="M29.05 32.6065C28.4417 32.3438 27.9125 31.9875 27.4625 31.5375C27.0125 31.0875 26.6563 30.5583 26.394 29.95C26.1317 29.3417 26.0003 28.6917 26 28C25.9997 27.3083 26.131 26.6583 26.394 26.05C26.657 25.4417 27.0132 24.9125 27.4625 24.4625C27.9118 24.0125 28.441 23.6563 29.05 23.394C29.659 23.1317 30.309 23.0003 31 23C31.691 22.9997 32.341 23.131 32.95 23.394C33.559 23.657 34.0882 24.0132 34.5375 24.4625C34.9868 24.9118 35.3432 25.441 35.6065 26.05C35.8698 26.659 36.001 27.309 36 28C35.999 28.691 35.8677 29.341 35.606 29.95C35.3443 30.559 34.9882 31.0882 34.5375 31.5375C34.0868 31.9868 33.5577 32.3432 32.95 32.6065C32.3423 32.8698 31.6923 33.001 31 33C30.3077 32.999 29.6577 32.8682 29.05 32.6065ZM30.5 31.975V31C30.225 31 29.9897 30.9022 29.794 30.7065C29.5983 30.5108 29.5003 30.2753 29.5 30V29.5L27.1 27.1C27.075 27.25 27.0522 27.4 27.0315 27.55C27.0108 27.7 27.0003 27.85 27 28C27 29.0083 27.3313 29.8917 27.994 30.65C28.6567 31.4083 29.492 31.85 30.5 31.975ZM33.95 30.7C34.2917 30.325 34.5522 29.9063 34.7315 29.444C34.9108 28.9817 35.0003 28.5003 35 28C35 27.1833 34.773 26.4375 34.319 25.7625C33.865 25.0875 33.2587 24.6 32.5 24.3V24.5C32.5 24.775 32.4022 25.0105 32.2065 25.2065C32.0108 25.4025 31.7753 25.5003 31.5 25.5H30.5V26.5C30.5 26.6417 30.452 26.7605 30.356 26.8565C30.26 26.9525 30.1413 27.0003 30 27H29V28H32C32.1417 28 32.2605 28.048 32.3565 28.144C32.4525 28.24 32.5003 28.3587 32.5 28.5V30H33C33.2167 30 33.4125 30.0647 33.5875 30.194C33.7625 30.3233 33.8833 30.492 33.95 30.7Z" fill="#3D8C75"/>
</svg>
