<svg width="31" height="36" viewBox="0 0 31 36" fill="none" xmlns="http://www.w3.org/2000/svg">
<path d="M11 28H7.5625C5.59499 28 4 26.4554 4 24.55V6.5M5.5 5H12.4335C12.808 5 13.1726 5.08562 13.5 5.24495M23 18.5V16.2245C23 15.922 22.9385 15.6252 22.8216 15.35M13.5 5.24495C13.7656 5.37423 14.0067 5.55202 14.2086 5.77196L22.4001 14.6964C22.579 14.8914 22.7209 15.1127 22.8216 15.35M13.5 5.24495V11.9C13.5 13.8054 15.095 15.35 17.0625 15.35H22.8216" stroke="#CECECE" stroke-width="3"/>
<path d="M26.2405 19.0625H12.7595C12.3746 19.0625 12.0625 19.3746 12.0625 19.7595V33.2405C12.0625 33.6254 12.3746 33.9375 12.7595 33.9375H26.2405C26.6254 33.9375 26.9375 33.6254 26.9375 33.2405V19.7595C26.9375 19.3746 26.6254 19.0625 26.2405 19.0625Z" fill="#3178C6"/>
<path d="M24.3652 31.5941L24.5729 31.3907C25.5339 31.4215 25.5488 31.3907 25.5913 31.2908L25.8569 30.657L25.875 30.5964L25.8532 30.5433C25.8421 30.5157 25.807 30.4307 25.2067 29.867V29.5706C25.8973 28.9129 25.8846 28.88 25.8442 28.7812L25.5786 28.1405C25.5387 28.0449 25.5212 28.0066 24.5692 28.0342L24.3609 27.8276C24.3825 27.5158 24.3716 27.2026 24.3285 26.8931L24.3014 26.8331L23.6151 26.5372C23.5141 26.4915 23.4785 26.475 22.8304 27.1709L22.5393 27.1667C21.8715 26.4644 21.8402 26.4761 21.7382 26.517L21.1007 26.7714C21.0008 26.8118 20.9657 26.8283 21.004 27.7808L20.7984 27.9832C19.8373 27.9519 19.8257 27.9832 19.781 28.0831L19.5154 28.7153L19.5 28.7748L19.5218 28.8279C19.5329 28.855 19.5664 28.9374 20.1683 29.5047V29.8006C19.4777 30.4583 19.491 30.4913 19.5308 30.5901L19.7933 31.2313C19.8336 31.3296 19.8506 31.3646 20.8026 31.3375L21.0103 31.55C20.9885 31.8612 20.999 32.1739 21.0417 32.4829L21.0682 32.5435L21.7589 32.841C21.8598 32.8824 21.8938 32.8973 22.5403 32.2035L22.8315 32.2067C23.4998 32.91 23.5343 32.8973 23.6326 32.8574L24.2701 32.6035C24.3694 32.5642 24.4045 32.5488 24.3652 31.5941ZM21.625 30.1125C21.5719 29.9749 21.5465 29.8282 21.5502 29.6808C21.5539 29.5335 21.5867 29.3882 21.6466 29.2535C21.7065 29.1188 21.7924 28.9972 21.8993 28.8957C22.0063 28.7943 22.1322 28.7149 22.2699 28.6622L22.2848 28.6563C22.5672 28.5489 22.8805 28.557 23.157 28.6788C23.4334 28.8005 23.6509 29.0263 23.7622 29.3071C23.8687 29.5838 23.8614 29.8913 23.742 30.1626C23.6226 30.4339 23.4007 30.647 23.1247 30.7553C22.8404 30.8663 22.5238 30.8611 22.2433 30.7409C21.9627 30.6206 21.7407 30.3949 21.625 30.1125Z" fill="white"/>
</svg>
