<svg width="31" height="36" viewBox="0 0 31 36" fill="none" xmlns="http://www.w3.org/2000/svg">
<path d="M11 28H7.5625C5.59499 28 4 26.4554 4 24.55V6.5M5.5 5H12.4335C12.808 5 13.1726 5.08562 13.5 5.24495M23 18.5V16.2245C23 15.922 22.9385 15.6252 22.8216 15.35M13.5 5.24495C13.7656 5.37423 14.0067 5.55202 14.2086 5.77196L22.4001 14.6964C22.579 14.8914 22.7209 15.1127 22.8216 15.35M13.5 5.24495V11.9C13.5 13.8054 15.095 15.35 17.0625 15.35H22.8216" stroke="#66AAEA" stroke-width="3"/>
<g clip-path="url(#clip0_25_1131)">
<path d="M24.25 19H15.75C13.6789 19 12 20.6789 12 22.75V31.25C12 33.3211 13.6789 35 15.75 35H24.25C26.3211 35 28 33.3211 28 31.25V22.75C28 20.6789 26.3211 19 24.25 19Z" fill="#0277BD"/>
<path d="M15.3596 25.4157L15.5384 27.4121H20.006V25.4157H15.3596ZM20.0059 21.375H15L15.1815 23.3714H20.0059V21.375ZM20.0059 32.6776V30.6005L19.9972 30.6028L17.7738 30.0025L17.6317 28.4102H15.6276L15.9073 31.5449L19.9967 32.6801L20.0059 32.6776Z" fill="#EBEBEB"/>
<path d="M22.4573 27.4121L22.2256 30.0012L19.999 30.6022V32.6791L24.0917 31.5449L24.1217 31.2076L24.5908 25.9518L24.6395 25.4157L25 21.375H19.999V23.3714H22.8121L22.6305 25.4157H19.999V27.4121H22.4573Z" fill="white"/>
</g>
<defs>
<clipPath id="clip0_25_1131">
<rect width="16" height="16" fill="white" transform="translate(12 19)"/>
</clipPath>
</defs>
</svg>
