<svg width="31" height="36" viewBox="0 0 31 36" fill="none" xmlns="http://www.w3.org/2000/svg">
<path d="M11 28H7.5625C5.59499 28 4 26.4554 4 24.55V6.5M5.5 5H12.4335C12.808 5 13.1726 5.08562 13.5 5.24495M23 18.5V16.2245C23 15.922 22.9385 15.6252 22.8216 15.35M13.5 5.24495C13.7656 5.37423 14.0067 5.55202 14.2086 5.77196L22.4001 14.6964C22.579 14.8914 22.7209 15.1127 22.8216 15.35M13.5 5.24495V11.9C13.5 13.8054 15.095 15.35 17.0625 15.35H22.8216" stroke="#66CFEA" stroke-width="3"/>
<path d="M15.5484 26.1048C16.8172 26.5502 18.1555 26.7649 19.4999 26.7385C20.8443 26.7647 22.1826 26.5499 23.4513 26.1042C24.4416 25.718 24.7927 25.2888 24.7927 25.0417V23.1531C24.4464 23.3848 24.075 23.5766 23.6856 23.7248C22.3433 24.2053 20.9254 24.4396 19.4999 24.4164C18.0745 24.4388 16.6568 24.2049 15.3142 23.7258C14.9245 23.5777 14.5531 23.3856 14.207 23.1531V25.0391C14.207 25.2909 14.5593 25.718 15.5484 26.1048ZM15.5484 29.6668C15.9966 29.8377 16.4587 29.9694 16.9297 30.0604C17.7766 30.2239 18.6374 30.3045 19.4999 30.3011C20.3624 30.3047 21.2232 30.2243 22.0701 30.061C22.541 29.97 23.0032 29.8383 23.4513 29.6673C24.4416 29.2811 24.7927 28.8519 24.7927 28.6048V26.8039C24.5066 26.9761 24.2058 27.1228 23.8938 27.2422C22.4838 27.7413 20.9954 27.983 19.4999 27.9556C18.0041 27.9821 16.5158 27.7396 15.1059 27.2395C14.7943 27.1194 14.4936 26.9727 14.207 26.8012V28.6038C14.207 28.8513 14.5593 29.279 15.5484 29.6668ZM19.4999 33.9375C22.4218 33.9375 24.7927 33.011 24.7927 31.8688V30.3617C24.5324 30.5186 24.2596 30.654 23.9772 30.7665L23.8938 30.7999C22.484 31.3005 20.9957 31.5436 19.4999 31.5177C18.004 31.5448 16.5154 31.3017 15.1059 30.7999L15.0225 30.7665C14.7401 30.654 14.4674 30.5186 14.207 30.3617V31.8688C14.207 33.011 16.578 33.9375 19.4999 33.9375Z" fill="#41D1FF"/>
<path d="M19.4999 23.1999C22.423 23.1999 24.7927 22.2737 24.7927 21.1312C24.7927 19.9887 22.423 19.0625 19.4999 19.0625C16.5767 19.0625 14.207 19.9887 14.207 21.1312C14.207 22.2737 16.5767 23.1999 19.4999 23.1999Z" fill="#41D1FF"/>
</svg>
