<svg width="31" height="36" viewBox="0 0 31 36" fill="none" xmlns="http://www.w3.org/2000/svg">
<path d="M11 28H7.5625C5.59499 28 4 26.4554 4 24.55V6.5M5.5 5H12.4335C12.808 5 13.1726 5.08562 13.5 5.24495M23 18.5V16.2245C23 15.922 22.9385 15.6252 22.8216 15.35M13.5 5.24495C13.7656 5.37423 14.0067 5.55202 14.2086 5.77196L22.4001 14.6964C22.579 14.8914 22.7209 15.1127 22.8216 15.35M13.5 5.24495V11.9C13.5 13.8054 15.095 15.35 17.0625 15.35H22.8216" stroke="#D30001" stroke-width="3"/>
<g clip-path="url(#clip0_25_1017)">
<path d="M24.25 19H15.75C13.6789 19 12 20.6789 12 22.75V31.25C12 33.3211 13.6789 35 15.75 35H24.25C26.3211 35 28 33.3211 28 31.25V22.75C28 20.6789 26.3211 19 24.25 19Z" fill="#D30001"/>
<path d="M26.2419 26.2989L26.25 26.307C26.25 26.307 26.1563 26.3731 26.0571 26.4558C22.9266 24.141 21.0141 25.2323 20.4134 25.5244C17.6852 27.0467 18.4736 30.7838 18.4896 30.8583L18.4899 30.8594H14.1358C14.1358 30.8594 14.3011 29.2281 15.4586 27.2991C16.6159 25.3701 18.5891 23.9095 20.1929 23.7662C23.2854 23.4564 26.0724 26.1331 26.2419 26.2989ZM18.6552 29.7572L19.2504 29.9721C19.278 30.188 19.3171 30.3924 19.358 30.5789L19.3827 30.6886L18.7213 30.4516C18.6937 30.2863 18.6663 30.0493 18.6552 29.7572ZM14.0256 27.9714L14.6594 28.2029C14.5822 28.3814 14.484 28.6104 14.4126 28.7904L14.3839 28.8643L13.75 28.6328C13.8051 28.484 13.9208 28.2084 14.0256 27.9714ZM18.9033 27.751L19.3001 28.0651C19.2564 28.2349 19.2229 28.4072 19.1996 28.581L19.1844 28.71L18.7379 28.3573C18.782 28.1588 18.8316 27.9549 18.9033 27.751ZM19.8788 26.2133L20.1268 26.5881C20.0298 26.6895 19.9399 26.7909 19.8598 26.8979L19.8016 26.9794L19.5371 26.5826C19.6407 26.4503 19.755 26.3268 19.8788 26.2133ZM15.9326 25.3976L16.3239 25.7393C16.2243 25.8435 16.1289 25.9515 16.0379 26.0633L15.9492 26.1747L15.5248 25.8109C15.6515 25.6732 15.7893 25.5354 15.9326 25.3976ZM21.3945 25.3756L21.5157 25.7393C21.3879 25.779 21.2601 25.8293 21.1322 25.8873L21.0363 25.9322L20.9095 25.5519C21.0672 25.4828 21.2292 25.4239 21.3945 25.3756ZM22.6842 25.2433C22.8253 25.2521 22.9699 25.2679 23.1181 25.2937L23.2298 25.3149L23.2078 25.6566C23.0639 25.626 22.9181 25.6057 22.7713 25.5958L22.6622 25.5905L22.6842 25.2433ZM18.1592 23.7221L18.4072 24.1024C18.2997 24.1561 18.1953 24.2161 18.0894 24.2799L17.9828 24.3449L17.7292 23.9591C17.8703 23.8761 18.0137 23.7971 18.1592 23.7221ZM22.6951 23.5127C23.0231 23.6064 23.1641 23.6706 23.2206 23.7006L23.2297 23.7056L23.2077 24.0748C23.0905 24.0271 22.9723 23.9818 22.8533 23.9389L22.6731 23.8764L22.6951 23.5127ZM20.5898 23.1875L20.6999 23.5237H20.6448C20.5248 23.5233 20.4049 23.5272 20.2852 23.5353L20.1654 23.5458L20.0606 23.2206C20.2362 23.1989 20.4129 23.1878 20.5898 23.1875Z" fill="white"/>
</g>
<defs>
<clipPath id="clip0_25_1017">
<rect width="16" height="16" fill="white" transform="translate(12 19)"/>
</clipPath>
</defs>
</svg>
