<svg width="39" height="38" viewBox="0 0 39 38" fill="none" xmlns="http://www.w3.org/2000/svg">
<path d="M31.3208 10.0399H22.5834L19.7257 7.18225C18.9667 6.42323 17.9419 6 16.868 6H9.04004V10.0399H16.8715L19.7292 12.8976C20.4882 13.6566 21.5131 14.0799 22.5869 14.0799H30.4184L30.5 21.5H34.4583V13.1774C34.4583 11.446 33.0557 10.0399 31.3208 10.0399Z" fill="#66B7EA"/>
<path d="M9.03991 10.0398H5V28.4171C5 30.1485 6.4026 31.5546 8.13749 31.5546H25V27.5147H9.03991V10.0398Z" fill="#66B7EA"/>
<path d="M27.2133 32.2004L26.3711 22.75H35.6291L34.7857 32.1989L30.9945 33.25L27.2133 32.2004Z" fill="#1572B6"/>
<path d="M31 32.4468L34.0638 31.5974L34.7845 23.5229H31V32.4468Z" fill="#33A9DC"/>
<path d="M27.7549 27.5177C28.6001 27.5177 28.7194 27.1754 28.7194 26.8675C28.7119 26.6192 28.6797 26.3722 28.6234 26.1302C28.5679 25.8908 28.5362 25.6465 28.5285 25.4009C28.5281 24.5924 29.2425 24.25 30.2546 24.25H30.5048V24.7334H30.2906C29.5879 24.7334 29.3505 25.0143 29.3505 25.4886C29.3548 25.699 29.3828 25.9081 29.4338 26.1122C29.4858 26.3309 29.5137 26.5546 29.517 26.7794C29.5286 27.3419 29.1953 27.6224 28.659 27.7285V27.7457C28.7786 27.7511 28.896 27.7802 29.0042 27.8315C29.1125 27.8828 29.2094 27.9551 29.2893 28.0443C29.3692 28.1335 29.4305 28.2378 29.4696 28.351C29.5087 28.4641 29.5248 28.584 29.517 28.7035C29.5143 28.9283 29.4864 29.1521 29.4338 29.3706C29.3827 29.5779 29.3548 29.7902 29.3505 30.0036C29.3505 30.4949 29.6239 30.7675 30.2906 30.7675H30.5048V31.2501H30.2546C29.2669 31.2501 28.5296 30.934 28.5296 30.0471C28.5379 29.8046 28.5697 29.5635 28.6245 29.3271C28.6802 29.0934 28.7124 28.8547 28.7205 28.6146C28.7205 28.342 28.6013 27.9644 27.756 27.9644L27.7549 27.5177Z" fill="#EBEBEB"/>
<path d="M34.2548 27.9648C33.4095 27.9648 33.2903 28.3424 33.2903 28.6146C33.299 28.8546 33.3308 29.0932 33.3851 29.3271C33.4404 29.5635 33.4725 29.8046 33.4811 30.0471C33.4811 30.934 32.7311 31.2505 31.7561 31.2505H31.506V30.7668H31.7085C32.3753 30.7581 32.6603 30.4941 32.6603 30.0029C32.6497 29.79 32.6218 29.5783 32.577 29.3699C32.5204 29.1518 32.4886 28.928 32.4821 28.7028C32.471 28.4627 32.5546 28.2279 32.7148 28.0489C32.8751 27.8698 33.0992 27.7608 33.339 27.7454V27.7281C33.1006 27.7131 32.8775 27.6055 32.7174 27.4282C32.5573 27.2509 32.4729 27.0181 32.4821 26.7794C32.4892 26.5542 32.521 26.3305 32.577 26.1122C32.6219 25.9067 32.6493 25.6977 32.6591 25.4875C32.6591 25.0135 32.409 24.7409 31.719 24.7322H31.5049V24.25H31.7434C32.7559 24.25 33.4815 24.5924 33.4815 25.4005C33.4735 25.6462 33.4413 25.8905 33.3855 26.1299C33.3305 26.372 33.2987 26.6189 33.2906 26.8671C33.2906 27.1746 33.4099 27.517 34.2551 27.517L34.2548 27.9648Z" fill="white"/>
</svg>
