<svg width="31" height="36" viewBox="0 0 31 36" fill="none" xmlns="http://www.w3.org/2000/svg">
<path d="M11 28H7.5625C5.59499 28 4 26.4554 4 24.55V6.5M5.5 5H12.4335C12.808 5 13.1726 5.08562 13.5 5.24495M23 18.5V16.2245C23 15.922 22.9385 15.6252 22.8216 15.35M13.5 5.24495C13.7656 5.37423 14.0067 5.55202 14.2086 5.77196L22.4001 14.6964C22.579 14.8914 22.7209 15.1127 22.8216 15.35M13.5 5.24495V11.9C13.5 13.8054 15.095 15.35 17.0625 15.35H22.8216" stroke="#CECECE" stroke-width="3"/>
<path d="M19.4968 28.2999C19.9831 28.2999 20.4496 28.1101 20.7935 27.7724C21.1374 27.4347 21.3306 26.9766 21.3306 26.4989C21.3306 26.0213 21.1374 25.5632 20.7935 25.2255C20.4496 24.8877 19.9831 24.698 19.4968 24.698C19.0104 24.698 18.5439 24.8877 18.2 25.2255C17.8561 25.5632 17.6629 26.0213 17.6629 26.4989C17.6629 26.9766 17.8561 27.4347 18.2 27.7724C18.5439 28.1101 19.0104 28.2999 19.4968 28.2999ZM22.7066 21.0961L25.9164 26.4989L22.7066 31.9018H16.287L13.0771 26.4989L16.287 21.0961H22.7066Z" stroke="#8087A2" stroke-width="1.08328" stroke-linecap="round" stroke-linejoin="round"/>
</svg>
