<svg width="39" height="38" viewBox="0 0 39 38" fill="none" xmlns="http://www.w3.org/2000/svg">
<path d="M31.3208 10.0399H22.5834L19.7257 7.18225C18.9667 6.42323 17.9419 6 16.868 6H9.04004V10.0399H16.8715L19.7292 12.8976C20.4882 13.6566 21.5131 14.0799 22.5869 14.0799H30.4184V20.5H34.4583V13.1774C34.4583 11.446 33.0557 10.0399 31.3208 10.0399Z" fill="#FEBC2F"/>
<path d="M9 19C7.4379 19 6.5 19.5 6 20C5.5 20.5 5 21 5 22C5 23 5 28.4171 5 28.4171C5 30.1485 6.4026 31.5546 8.13749 31.5546H24.5V27.5L9.03992 27.5147L9 19Z" fill="#FEBC2F"/>
<path d="M25.0004 24H21.0004V22H9.00037V19H21C22.6706 19 23.5351 19.5841 24 20C24.7003 20.6266 25.0557 21.2567 25.0557 22L25.0004 24Z" fill="#FEBC2F"/>
<path d="M28.2105 26.721C29.1061 27.0355 30.0508 27.187 30.9998 27.1684C31.9488 27.1868 32.8935 27.0352 33.789 26.7206C34.488 26.448 34.7359 26.145 34.7359 25.9706V24.6375C34.4915 24.801 34.2293 24.9364 33.9544 25.041C33.0069 25.3802 32.006 25.5456 30.9998 25.5293C29.9937 25.545 28.9929 25.3799 28.0452 25.0418C27.7701 24.9372 27.5079 24.8016 27.2637 24.6375V25.9688C27.2637 26.1465 27.5123 26.448 28.2105 26.721ZM28.2105 29.2354C28.5269 29.3561 28.8531 29.449 29.1855 29.5133C29.7833 29.6287 30.391 29.6856 30.9998 29.6831C31.6086 29.6857 32.2162 29.6289 32.814 29.5136C33.1465 29.4494 33.4727 29.3564 33.789 29.2358C34.488 28.9631 34.7359 28.6601 34.7359 28.4858V27.2145C34.5339 27.3361 34.3216 27.4396 34.1014 27.5239C33.1061 27.8762 32.0555 28.0468 30.9998 28.0275C29.944 28.0462 28.8934 27.875 27.8982 27.522C27.6782 27.4372 27.4659 27.3337 27.2637 27.2126V28.485C27.2637 28.6598 27.5123 28.9616 28.2105 29.2354ZM30.9998 32.25C33.0623 32.25 34.7359 31.596 34.7359 30.7898V29.7259C34.5522 29.8367 34.3596 29.9322 34.1603 30.0116L34.1014 30.0353C33.1063 30.3886 32.0557 30.5602 30.9998 30.5419C29.9439 30.561 28.8931 30.3894 27.8982 30.0353L27.8393 30.0116C27.64 29.9322 27.4474 29.8367 27.2637 29.7259V30.7898C27.2637 31.596 28.9373 32.25 30.9998 32.25Z" fill="#FFDA44"/>
<path d="M30.9998 24.6705C33.0632 24.6705 34.7359 24.0167 34.7359 23.2103C34.7359 22.4038 33.0632 21.75 30.9998 21.75C28.9364 21.75 27.2637 22.4038 27.2637 23.2103C27.2637 24.0167 28.9364 24.6705 30.9998 24.6705Z" fill="#FFDA44"/>
</svg>
