<svg width="39" height="38" viewBox="0 0 39 38" fill="none" xmlns="http://www.w3.org/2000/svg">
<path d="M31.3208 10.0399H22.5834L19.7257 7.18225C18.9667 6.42323 17.9419 6 16.868 6H9.04004V10.0399H16.8715L19.7292 12.8976C20.4882 13.6566 21.5131 14.0799 22.5869 14.0799H30.4184L30.5 21.5H34.4583V13.1774C34.4583 11.446 33.0557 10.0399 31.3208 10.0399Z" fill="#FEBC2F"/>
<path d="M9.03991 10.0398H5V28.4171C5 30.1485 6.4026 31.5546 8.13749 31.5546H25V27.5147H9.03991V10.0398Z" fill="#FEBC2F"/>
<path d="M28.2105 27.721C29.1061 28.0355 30.0508 28.187 30.9998 28.1684C31.9488 28.1868 32.8935 28.0352 33.789 27.7206C34.488 27.448 34.7359 27.145 34.7359 26.9706V25.6375C34.4915 25.801 34.2293 25.9364 33.9544 26.041C33.0069 26.3802 32.006 26.5456 30.9998 26.5293C29.9937 26.545 28.9929 26.3799 28.0452 26.0418C27.7701 25.9372 27.5079 25.8016 27.2637 25.6375V26.9688C27.2637 27.1465 27.5123 27.448 28.2105 27.721ZM28.2105 30.2354C28.5269 30.3561 28.8531 30.449 29.1855 30.5133C29.7833 30.6287 30.391 30.6856 30.9998 30.6831C31.6086 30.6857 32.2162 30.6289 32.814 30.5136C33.1465 30.4494 33.4727 30.3564 33.789 30.2358C34.488 29.9631 34.7359 29.6601 34.7359 29.4858V28.2145C34.5339 28.3361 34.3216 28.4396 34.1014 28.5239C33.1061 28.8762 32.0555 29.0468 30.9998 29.0275C29.944 29.0462 28.8934 28.875 27.8982 28.522C27.6782 28.4372 27.4659 28.3337 27.2637 28.2126V29.485C27.2637 29.6598 27.5123 29.9616 28.2105 30.2354ZM30.9998 33.25C33.0623 33.25 34.7359 32.596 34.7359 31.7898V30.7259C34.5522 30.8367 34.3596 30.9322 34.1603 31.0116L34.1014 31.0353C33.1063 31.3886 32.0557 31.5602 30.9998 31.5419C29.9439 31.561 28.8931 31.3894 27.8982 31.0353L27.8393 31.0116C27.64 30.9322 27.4474 30.8367 27.2637 30.7259V31.7898C27.2637 32.596 28.9373 33.25 30.9998 33.25Z" fill="#FFDA44"/>
<path d="M30.9998 25.6705C33.0632 25.6705 34.7359 25.0167 34.7359 24.2103C34.7359 23.4038 33.0632 22.75 30.9998 22.75C28.9364 22.75 27.2637 23.4038 27.2637 24.2103C27.2637 25.0167 28.9364 25.6705 30.9998 25.6705Z" fill="#FFDA44"/>
</svg>
