<svg width="31" height="36" viewBox="0 0 31 36" fill="none" xmlns="http://www.w3.org/2000/svg">
<path d="M11 28H7.5625C5.59499 28 4 26.4554 4 24.55V6.5M5.5 5H12.4335C12.808 5 13.1726 5.08562 13.5 5.24495M23 18.5V16.2245C23 15.922 22.9385 15.6252 22.8216 15.35M13.5 5.24495C13.7656 5.37423 14.0067 5.55202 14.2086 5.77196L22.4001 14.6964C22.579 14.8914 22.7209 15.1127 22.8216 15.35M13.5 5.24495V11.9C13.5 13.8054 15.095 15.35 17.0625 15.35H22.8216" stroke="#667EEA" stroke-width="3"/>
<g clip-path="url(#clip0_25_404)">
<g clip-path="url(#clip1_25_404)">
<path d="M17.0853 22.2107C17.0648 22.2118 17.0447 22.2174 17.0265 22.227L11.3032 25.581C11.2682 25.6016 11.2393 25.6311 11.2192 25.6663C11.1991 25.7016 11.1885 25.7415 11.1885 25.7821C11.1885 25.8227 11.1991 25.8626 11.2192 25.8979C11.2393 25.9332 11.2682 25.9626 11.3032 25.9833L13.4027 27.213L13.8751 27.4892C14.0919 27.6167 14.9766 28.148 15.2196 28.2939C15.2384 28.3052 15.2599 28.3113 15.2819 28.3113C15.3039 28.3113 15.3254 28.3052 15.3442 28.2939L17.6428 26.9544C17.6586 26.9456 17.6717 26.9326 17.6807 26.9169C17.6897 26.9012 17.6942 26.8833 17.6938 26.8652C17.6934 26.8471 17.6885 26.8295 17.6795 26.8138C17.6704 26.7982 17.6575 26.7852 17.6421 26.7759C17.3502 26.6073 16.7255 26.2461 16.491 26.1087L15.9293 25.7793L17.0067 25.156C17.0664 25.121 17.1159 25.071 17.1503 25.011C17.1847 24.951 17.2029 24.883 17.2029 24.8138V22.3276C17.2027 22.2965 17.1902 22.2668 17.1682 22.2449C17.1462 22.223 17.1164 22.2107 17.0853 22.2107ZM22.2909 22.2107C22.2753 22.2105 22.2599 22.2134 22.2455 22.2193C22.2311 22.2251 22.2181 22.2337 22.207 22.2447C22.196 22.2556 22.1873 22.2687 22.1814 22.283C22.1755 22.2974 22.1725 22.3128 22.1726 22.3283V24.8145C22.1728 24.8835 22.1911 24.9512 22.2255 25.0109C22.2599 25.0707 22.3093 25.1204 22.3688 25.1552L23.4412 25.7821L21.2 27.0968C21.1736 27.1122 21.1435 27.1204 21.1129 27.1205C21.0823 27.1207 21.0521 27.1127 21.0256 27.0975C20.999 27.0823 20.9769 27.0603 20.9615 27.0338C20.9461 27.0073 20.938 26.9772 20.9379 26.9466V23.9128C20.9378 23.8896 20.9316 23.8669 20.9201 23.8468C20.9085 23.8267 20.892 23.8099 20.8721 23.7981C20.8523 23.7861 20.8298 23.7795 20.8067 23.7787C20.7837 23.778 20.7608 23.7832 20.7403 23.7938C20.6553 23.8377 19.9647 24.1707 19.6495 24.3222C19.3092 24.1683 18.971 24.0096 18.6351 23.8462C18.5934 23.825 18.5459 23.8314 18.5034 23.8505C18.468 23.8668 18.4382 23.9185 18.4382 23.966V26.9466C18.4382 27.009 18.446 27.2158 18.2229 27.3447L15.8896 28.6934L19.6884 30.8935L28.0723 25.9833C28.1072 25.9626 28.1362 25.9332 28.1563 25.8979C28.1764 25.8626 28.187 25.8227 28.187 25.7821C28.187 25.7415 28.1764 25.7016 28.1563 25.6663C28.1362 25.6311 28.1072 25.6016 28.0723 25.581L26.079 24.4122L25.9274 24.3237L25.926 24.323L22.3489 22.227C22.331 22.2175 22.3112 22.2119 22.2909 22.2107Z" fill="#667EEA"/>
</g>
</g>
<defs>
<clipPath id="clip0_25_404">
<rect width="17" height="17" fill="white" transform="translate(11 18)"/>
</clipPath>
<clipPath id="clip1_25_404">
<rect width="17" height="17" fill="white" transform="translate(11.1875 18.0521)"/>
</clipPath>
</defs>
</svg>
