<svg width="31" height="36" viewBox="0 0 31 36" fill="none" xmlns="http://www.w3.org/2000/svg">
<path d="M11 28H7.5625C5.59499 28 4 26.4554 4 24.55V6.5M5.5 5H12.4335C12.808 5 13.1726 5.08562 13.5 5.24495M23 18.5V16.2245C23 15.922 22.9385 15.6252 22.8216 15.35M13.5 5.24495C13.7656 5.37423 14.0067 5.55202 14.2086 5.77196L22.4001 14.6964C22.579 14.8914 22.7209 15.1127 22.8216 15.35M13.5 5.24495V11.9C13.5 13.8054 15.095 15.35 17.0625 15.35H22.8216" stroke="#EAC366" stroke-width="3"/>
<path d="M12.0615 25.0555C12.4626 25.0555 12.8637 25.0512 13.2643 25.0555L13.2924 25.0757L14.7592 26.5409C15.2326 26.0596 15.7155 25.5878 16.1936 25.1065C16.2217 25.0789 16.252 25.0465 16.2956 25.0534H17.2641C17.3267 25.0488 17.3898 25.0522 17.4516 25.0635C17.0797 25.4194 16.7201 25.7907 16.3524 26.1525L13.9448 28.5522C13.769 28.7243 13.6006 28.9044 13.4194 29.0701C13.0188 29.0818 12.6167 29.0739 12.2156 29.0739C12.8653 28.4316 13.5071 27.7813 14.1589 27.1417C13.4571 26.449 12.7617 25.7498 12.0615 25.0555ZM17.7459 25.0555H18.7229V29.0749C18.3983 29.0749 18.0737 29.0813 17.7496 29.0707V26.4176C16.8996 27.2713 16.0448 28.1176 15.1938 28.9676C15.1465 29.0101 15.1056 29.0829 15.0317 29.0707C14.594 29.0675 14.1557 29.0707 13.7174 29.0707C15.0629 27.7333 16.4057 26.3949 17.7459 25.0555ZM18.9455 25.0566C19.1951 25.0518 19.4443 25.0566 19.694 25.0566C20.1381 25.5097 20.5918 25.9538 21.0412 26.4017C21.4903 25.9529 21.9399 25.5046 22.3901 25.0566H23.1338C23.131 26.3967 23.131 27.7367 23.1338 29.0765C22.8836 29.0765 22.6329 29.0797 22.3826 29.0765C22.3855 28.2311 22.3855 27.3859 22.3826 26.5409C21.9343 26.9887 21.4923 27.444 21.0407 27.8881C20.586 27.4445 20.1445 26.9876 19.6956 26.5382C19.6956 27.385 19.6924 28.2318 19.6988 29.0781C19.448 29.0781 19.1978 29.0808 18.9471 29.0781C18.946 27.7358 18.9455 26.3953 18.9455 25.0566ZM23.3554 25.055C23.6061 25.055 23.8569 25.0512 24.1076 25.055C24.1051 26.1469 24.1051 27.2387 24.1076 28.3306H26.1168C26.1503 28.3338 26.1933 28.3243 26.2183 28.3546C26.4563 28.5957 26.7001 28.8327 26.9371 29.0739C25.7432 29.0763 24.5494 29.0763 23.3559 29.0739C23.3584 27.7344 23.3582 26.3948 23.3554 25.055Z" fill="#FBC02D"/>
</svg>
