<svg width="31" height="36" viewBox="0 0 31 36" fill="none" xmlns="http://www.w3.org/2000/svg">
<path d="M11 28H7.5625C5.59499 28 4 26.4554 4 24.55V6.5M5.5 5H12.4335C12.808 5 13.1726 5.08562 13.5 5.24495M23 18.5V16.2245C23 15.922 22.9385 15.6252 22.8216 15.35M13.5 5.24495C13.7656 5.37423 14.0067 5.55202 14.2086 5.77196L22.4001 14.6964C22.579 14.8914 22.7209 15.1127 22.8216 15.35M13.5 5.24495V11.9C13.5 13.8054 15.095 15.35 17.0625 15.35H22.8216" stroke="#BABAFF" stroke-width="3"/>
<path d="M19.375 27L25.237 22.964C25.9835 22.45 27 22.984 27 23.89V30.109C27 31.015 25.9835 31.5495 25.237 31.0355L19.375 27Z" fill="url(#paint0_radial_25_1320)"/>
<path d="M19.375 27L25.237 22.964C25.9835 22.45 27 22.984 27 23.89V30.109C27 31.015 25.9835 31.5495 25.237 31.0355L19.375 27Z" fill="url(#paint1_linear_25_1320)" fill-opacity="0.75"/>
<path d="M13 24.25C13 23.6533 13.2371 23.081 13.659 22.659C14.081 22.2371 14.6533 22 15.25 22H20.25C20.8467 22 21.419 22.2371 21.841 22.659C22.2629 23.081 22.5 23.6533 22.5 24.25V29.75C22.5 30.3467 22.2629 30.919 21.841 31.341C21.419 31.7629 20.8467 32 20.25 32H15.25C14.6533 32 14.081 31.7629 13.659 31.341C13.2371 30.919 13 30.3467 13 29.75V24.25Z" fill="url(#paint2_radial_25_1320)"/>
<path opacity="0.5" d="M14 29.25C14 28.7859 14.1844 28.3408 14.5126 28.0126C14.8408 27.6844 15.2859 27.5 15.75 27.5H19.75C20.2141 27.5 20.6592 27.6844 20.9874 28.0126C21.3156 28.3408 21.5 28.7859 21.5 29.25C21.5 29.7141 21.3156 30.1592 20.9874 30.4874C20.6592 30.8156 20.2141 31 19.75 31H15.75C15.2859 31 14.8408 30.8156 14.5126 30.4874C14.1844 30.1592 14 29.7141 14 29.25Z" fill="url(#paint3_linear_25_1320)"/>
<path fill-rule="evenodd" clip-rule="evenodd" d="M15.75 28.5C15.5511 28.5 15.3603 28.579 15.2197 28.7197C15.079 28.8603 15 29.0511 15 29.25C15 29.4489 15.079 29.6397 15.2197 29.7803C15.3603 29.921 15.5511 30 15.75 30H17.75C17.9489 30 18.1397 29.921 18.2803 29.7803C18.421 29.6397 18.5 29.4489 18.5 29.25C18.5 29.0511 18.421 28.8603 18.2803 28.7197C18.1397 28.579 17.9489 28.5 17.75 28.5H15.75ZM19.75 28.5C19.5511 28.5 19.3603 28.579 19.2197 28.7197C19.079 28.8603 19 29.0511 19 29.25C19 29.4489 19.079 29.6397 19.2197 29.7803C19.3603 29.921 19.5511 30 19.75 30C19.9489 30 20.1397 29.921 20.2803 29.7803C20.421 29.6397 20.5 29.4489 20.5 29.25C20.5 29.0511 20.421 28.8603 20.2803 28.7197C20.1397 28.579 19.9489 28.5 19.75 28.5Z" fill="#BABAFF"/>
<defs>
<radialGradient id="paint0_radial_25_1320" cx="0" cy="0" r="1" gradientUnits="userSpaceOnUse" gradientTransform="translate(23.3494 21.6171) rotate(71.74) scale(11.6513 23.1097)">
<stop offset="0.081" stop-color="#F08AF4"/>
<stop offset="0.394" stop-color="#9C6CFE"/>
<stop offset="1" stop-color="#4E44DB"/>
</radialGradient>
<linearGradient id="paint1_linear_25_1320" x1="21.1995" y1="27" x2="26.9925" y2="26.792" gradientUnits="userSpaceOnUse">
<stop stop-color="#312A9A"/>
<stop offset="1" stop-color="#312A9A" stop-opacity="0"/>
</linearGradient>
<radialGradient id="paint2_radial_25_1320" cx="0" cy="0" r="1" gradientUnits="userSpaceOnUse" gradientTransform="translate(11.2728 22.4165) rotate(44.077) scale(15.2144 31.9517)">
<stop stop-color="#F08AF4"/>
<stop offset="0.341" stop-color="#9C6CFE"/>
<stop offset="1" stop-color="#4E44DB"/>
</radialGradient>
<linearGradient id="paint3_linear_25_1320" x1="13.8295" y1="27.5" x2="15.07" y2="32.147" gradientUnits="userSpaceOnUse">
<stop stop-color="#3B148A"/>
<stop offset="1" stop-color="#4B20A0"/>
</linearGradient>
</defs>
</svg>
